<svg width="105" height="54" fill="none" xmlns="http://www.w3.org/2000/svg"><path d="m6.392 20.457 2.558-5.115 3.835-1.278 17.9-11.507 2.557-1.278h3.835l2.557 2.557 3.836 1.278v5.115l-5.114.375h-2.558l-3.835 2.182-2.557 2.556-5.114 2.558-2.557 2.557H6.392Z" fill="#B7B7B7"/><path d="M99.726 25.57h2.557v-2.556h-2.557v2.557ZM97.169 25.57h2.557v-2.556h-2.557v2.557ZM94.611 25.57h2.557v-2.556h-2.557v2.557Z" fill="#D3D3D3"/><path d="M92.055 25.57h2.557v-2.556h-2.557v2.557ZM89.498 25.57h2.556v-2.556h-2.556v2.557ZM86.94 25.57h2.557v-2.556H86.94v2.557ZM84.383 25.57h2.557v-2.556h-2.557v2.557ZM81.826 25.57h2.557v-2.556h-2.557v2.557Z" fill="#D3D3D3"/><path d="M79.269 25.57h2.557v-2.556h-2.557v2.557ZM76.712 25.57h2.557v-2.556h-2.557v2.557ZM74.155 25.57h2.557v-2.556h-2.557v2.557ZM71.598 25.57h2.557v-2.556h-2.557v2.557ZM69.041 25.57h2.557v-2.556H69.04v2.557ZM66.483 25.57h2.557v-2.556h-2.557v2.557Z" fill="#D3D3D3"/><path d="M63.927 25.57h2.557v-2.556h-2.557v2.557Z" fill="#D3D3D3"/><path d="M61.37 25.57h2.557v-2.556H61.37v2.557Z" fill="#D3D3D3"/><path d="M58.813 25.57h2.557v-2.556h-2.557v2.557ZM56.256 25.57h2.557v-2.556h-2.557v2.557ZM53.698 25.57h2.557v-2.556h-2.557v2.557ZM51.142 25.57h2.556v-2.556h-2.556v2.557Z" fill="#D3D3D3"/><path d="M48.584 25.57h2.557v-2.556h-2.556v2.557ZM46.027 25.57h2.557v-2.556h-2.557v2.557ZM43.47 25.57h2.557v-2.556H43.47v2.557ZM40.914 25.57h2.556v-2.556h-2.556v2.557ZM38.356 25.57h2.557v-2.556h-2.557v2.557ZM35.799 25.57h2.557v-2.556h-2.557v2.557Z" fill="#B7B7B7"/><path d="M33.242 25.57H35.8v-2.556h-2.557v2.557ZM30.685 25.57h2.557v-2.556h-2.557v2.557ZM28.128 25.57h2.557v-2.556h-2.557v2.557ZM25.57 25.57h2.558v-2.556H25.57v2.557Z" fill="#B7B7B7"/><path d="M23.014 25.57h2.557v-2.556h-2.557v2.557ZM20.456 25.57h2.557v-2.556h-2.557v2.557Z" fill="#B7B7B7"/><path d="M17.9 25.57h2.557v-2.556H17.9v2.557ZM15.343 25.57H17.9v-2.556h-2.557v2.557Z" fill="#B7B7B7"/><path d="M12.786 25.57h2.557v-2.556h-2.557v2.557ZM10.229 25.57h2.557v-2.556h-2.557v2.557ZM7.671 25.57h2.557v-2.556H7.671v2.557ZM5.114 25.57h2.557v-2.556H5.114v2.557Z" fill="#B7B7B7"/><path d="M2.558 25.57h2.557v-2.556H2.558v2.557Z" fill="#B7B7B7"/><path d="M99.726 23.014h2.557v-2.557h-2.557v2.557ZM97.169 23.014h2.557v-2.557h-2.557v2.557ZM94.611 23.014h2.557v-2.557h-2.557v2.557Z" fill="#060608"/><path d="M92.055 23.014h2.557v-2.557h-2.557v2.557ZM89.498 23.014h2.556v-2.557h-2.556v2.557ZM86.94 23.014h2.557v-2.557H86.94v2.557ZM84.383 23.014h2.557v-2.557h-2.557v2.557ZM81.826 23.014h2.557v-2.557h-2.557v2.557Z" fill="#060608"/><path d="M79.269 23.014h2.557v-2.557h-2.557v2.557ZM76.712 23.014h2.557v-2.557h-2.557v2.557ZM74.155 23.014h2.557v-2.557h-2.557v2.557ZM71.598 23.014h2.557v-2.557h-2.557v2.557ZM69.041 23.014h2.557v-2.557H69.04v2.557ZM66.483 23.014h2.557v-2.557h-2.557v2.557Z" fill="#060608"/><path d="M63.927 23.014h2.557v-2.557h-2.557v2.557Z" fill="#060608"/><path d="M61.37 23.014h2.557v-2.557H61.37v2.557Z" fill="#060608"/><path d="M58.813 23.014h2.557v-2.557h-2.557v2.557ZM56.256 23.014h2.557v-2.557h-2.557v2.557ZM53.698 23.014h2.557v-2.557h-2.557v2.557ZM51.142 23.014h2.556v-2.557h-2.556v2.557ZM48.584 23.014h2.557v-2.557h-2.556v2.557ZM46.027 23.014h2.557v-2.557h-2.557v2.557ZM43.47 23.014h2.557v-2.557H43.47v2.557ZM40.914 23.014h2.556v-2.557h-2.556v2.557ZM38.356 23.014h2.557v-2.557h-2.557v2.557ZM35.799 23.014h2.557v-2.557h-2.557v2.557Z" fill="#060608"/><path d="M33.242 23.014H35.8v-2.557h-2.557v2.557ZM30.685 23.014h2.557v-2.557h-2.557v2.557ZM28.128 23.014h2.557v-2.557h-2.557v2.557ZM25.57 23.014h2.558v-2.557H25.57v2.557Z" fill="#060608"/><path d="M23.014 23.014h2.557v-2.557h-2.557v2.557ZM20.456 23.014h2.557v-2.557h-2.557v2.557Z" fill="#060608"/><path d="M17.9 23.014h2.557v-2.557H17.9v2.557ZM15.343 23.014H17.9v-2.557h-2.557v2.557Z" fill="#060608"/><path d="M12.786 23.014h2.557v-2.557h-2.557v2.557ZM10.229 23.014h2.557v-2.557h-2.557v2.557ZM7.671 23.014h2.557v-2.557H7.671v2.557ZM5.114 23.014h2.557v-2.557H5.114v2.557Z" fill="#060608"/><path d="M2.558 23.014h2.557v-2.557H2.558v2.557ZM5.114 20.457h2.557V17.9H5.114v2.557ZM7.671 17.9h2.557v-2.557H7.671V17.9ZM10.229 17.9h2.557v-2.557h-2.557V17.9ZM10.229 15.342h2.557v-2.556h-2.557v2.556ZM15.343 12.786H17.9v-2.557h-2.557v2.557ZM17.9 12.786h2.557v-2.557H17.9v2.557ZM17.9 10.229h2.557V7.672H17.9v2.557ZM12.786 15.342h2.557v-2.556h-2.557v2.556ZM24.293 17.9h2.556v-2.557h-2.556V17.9ZM26.85 17.9h2.557v-2.557H26.85V17.9ZM31.963 12.786h2.557v-2.557h-2.557v2.557ZM34.52 12.786h2.557v-2.557h-2.556v2.557ZM29.407 15.342h2.557v-2.556h-2.557v2.556Z" fill="#060608"/><path d="M20.456 10.229h2.557V7.672h-2.557v2.557ZM20.456 7.671h2.557V5.114h-2.557v2.557ZM23.014 7.671h2.557V5.114h-2.557v2.557Z" fill="#060608"/><path d="M25.57 7.671h2.558V5.114H25.57v2.557ZM25.57 5.114h2.558V2.557H25.57v2.557ZM30.685 2.557h2.557V0h-2.557v2.557ZM33.242 2.557H35.8V0h-2.557v2.557Z" fill="#060608"/><path d="M35.799 2.557h2.557V0h-2.557v2.557ZM38.356 5.114h2.557V2.557h-2.557v2.557ZM40.914 5.114h2.556V2.557h-2.556v2.557ZM43.47 7.671h2.557V5.114H43.47v2.557ZM43.47 10.229h2.557V7.672H43.47v2.557ZM40.914 12.786h2.556v-2.557h-2.556v2.557ZM38.356 12.786h2.557v-2.557h-2.557v2.557ZM35.799 10.604h2.557V8.047h-2.557v2.557ZM28.128 5.114h2.557V2.557h-2.557v2.557ZM21.735 20.457h2.557V17.9h-2.557v2.557Z" fill="#060608"/><path d="m98.416 20.457-2.558-5.115-3.835-1.278-17.9-11.507-2.557-1.278h-3.835l-2.557 2.557-3.836 1.278v5.115l5.114.375h2.557l3.836 2.182 2.557 2.556 5.114 2.558 2.557 2.557h15.343Z" fill="#B7B7B7"/><path d="M99.694 20.457h-2.557v-2.558h2.558v2.558ZM97.137 17.9H94.58v-2.557h2.557V17.9ZM94.58 17.9h-2.558v-2.557h2.558V17.9Z" fill="#060608"/><path d="M94.58 15.343h-2.558v-2.558h2.558v2.558ZM89.466 12.786H86.91v-2.558h2.558v2.558ZM86.909 12.786h-2.557v-2.558h2.557v2.558Z" fill="#060608"/><path d="M86.909 10.229h-2.557V7.67h2.557v2.558ZM92.023 15.343h-2.558v-2.558h2.558v2.558ZM80.516 17.9H77.96v-2.557h2.557V17.9ZM77.959 17.9H75.4v-2.557h2.558V17.9ZM72.845 12.786h-2.557v-2.558h2.557v2.558ZM70.288 12.786h-2.557v-2.558h2.557v2.558Z" fill="#060608"/><path d="M75.402 15.343h-2.558v-2.558h2.558v2.558ZM84.352 10.229h-2.558V7.67h2.558v2.558Z" fill="#060608"/><path d="M84.352 7.671h-2.558V5.113h2.558v2.558Z" fill="#060608"/><path d="M81.795 7.671h-2.558V5.113h2.558v2.558Z" fill="#060608"/><path d="M79.238 7.671H76.68V5.113h2.558v2.558Z" fill="#060608"/><path d="M79.238 5.114H76.68V2.557h2.558v2.557ZM74.123 2.557h-2.558V0h2.558v2.557Z" fill="#060608"/><path d="M71.566 2.557H69.01V0h2.558v2.557ZM69.01 2.557h-2.558V0h2.558v2.557ZM66.452 5.114h-2.557V2.557h2.557v2.557Z" fill="#060608"/><path d="M63.895 5.114h-2.558V2.557h2.558v2.557Z" fill="#060608"/><path d="M61.338 7.671h-2.557V5.113h2.558v2.558Z" fill="#060608"/><path d="M61.338 10.229h-2.557V7.67h2.558v2.558Z" fill="#060608"/><path d="M63.895 12.786h-2.558v-2.558h2.558v2.558Z" fill="#060608"/><path d="M66.452 12.786h-2.557v-2.558h2.557v2.558ZM69.01 10.604h-2.558V8.046h2.558v2.558ZM76.68 5.114h-2.557V2.557h2.557v2.557ZM83.073 20.457h-2.557v-2.558h2.557v2.558Z" fill="#060608"/><path d="M99.726 28.128h2.557v-2.557h-2.557v2.557ZM97.169 28.128h2.557v-2.557h-2.557v2.557ZM94.611 28.128h2.557v-2.557h-2.557v2.557Z" fill="#D3D3D3"/><path d="M92.055 28.128h2.557v-2.557h-2.557v2.557ZM89.498 28.128h2.556v-2.557h-2.556v2.557ZM86.94 28.128h2.557v-2.557H86.94v2.557ZM84.383 28.128h2.557v-2.557h-2.557v2.557ZM81.826 28.128h2.557v-2.557h-2.557v2.557Z" fill="#D3D3D3"/><path d="M79.269 28.128h2.557v-2.557h-2.557v2.557ZM76.712 28.128h2.557v-2.557h-2.557v2.557ZM74.155 28.128h2.557v-2.557h-2.557v2.557ZM71.598 28.128h2.557v-2.557h-2.557v2.557ZM69.041 28.128h2.557v-2.557H69.04v2.557ZM66.483 28.128h2.557v-2.557h-2.557v2.557Z" fill="#D3D3D3"/><path d="M63.927 28.128h2.557v-2.557h-2.557v2.557Z" fill="#D3D3D3"/><path d="M61.37 28.128h2.557v-2.557H61.37v2.557Z" fill="#D3D3D3"/><path d="M58.813 28.128h2.557v-2.557h-2.557v2.557ZM56.256 28.128h2.557v-2.557h-2.557v2.557ZM53.698 28.128h2.557v-2.557h-2.557v2.557ZM51.142 28.128h2.556v-2.557h-2.556v2.557Z" fill="#D3D3D3"/><path d="M48.584 28.128h2.557v-2.557h-2.556v2.557ZM46.027 28.128h2.557v-2.557h-2.557v2.557ZM43.47 28.128h2.557v-2.557H43.47v2.557ZM40.914 28.128h2.556v-2.557h-2.556v2.557ZM38.356 28.128h2.557v-2.557h-2.557v2.557ZM35.799 28.128h2.557v-2.557h-2.557v2.557Z" fill="#B7B7B7"/><path d="M33.242 28.128H35.8v-2.557h-2.557v2.557ZM30.685 28.128h2.557v-2.557h-2.557v2.557ZM28.128 28.128h2.557v-2.557h-2.557v2.557ZM25.57 28.128h2.558v-2.557H25.57v2.557Z" fill="#B7B7B7"/><path d="M23.014 28.128h2.557v-2.557h-2.557v2.557ZM20.456 28.128h2.557v-2.557h-2.557v2.557Z" fill="#B7B7B7"/><path d="M17.9 28.128h2.557v-2.557H17.9v2.557ZM15.343 28.128H17.9v-2.557h-2.557v2.557Z" fill="#B7B7B7"/><path d="M12.786 28.128h2.557v-2.557h-2.557v2.557ZM10.229 28.128h2.557v-2.557h-2.557v2.557ZM7.671 28.128h2.557v-2.557H7.671v2.557ZM5.114 28.128h2.557v-2.557H5.114v2.557Z" fill="#B7B7B7"/><path d="M2.558 28.128h2.557v-2.557H2.558v2.557Z" fill="#B7B7B7"/><path d="M99.726 30.685h2.557v-2.557h-2.557v2.557ZM97.169 30.685h2.557v-2.557h-2.557v2.557ZM94.611 30.685h2.557v-2.557h-2.557v2.557Z" fill="#D3D3D3"/><path d="M92.055 30.685h2.557v-2.557h-2.557v2.557Z" fill="#FB695B"/><path d="M89.498 30.685h2.556v-2.557h-2.556v2.557ZM86.94 30.685h2.557v-2.557H86.94v2.557ZM84.383 30.685h2.557v-2.557h-2.557v2.557ZM81.826 30.685h2.557v-2.557h-2.557v2.557Z" fill="#FA695C"/><path d="M79.269 30.685h2.557v-2.557h-2.557v2.557ZM76.712 30.685h2.557v-2.557h-2.557v2.557ZM74.155 30.685h2.557v-2.557h-2.557v2.557ZM71.598 30.685h2.557v-2.557h-2.557v2.557Z" fill="#FA695C"/><path d="M69.041 30.685h2.557v-2.557H69.04v2.557ZM66.483 30.685h2.557v-2.557h-2.557v2.557Z" fill="#F34231"/><path d="M63.927 30.685h2.557v-2.557h-2.557v2.557Z" fill="#D3D3D3"/><path d="M61.37 30.685h2.557v-2.557H61.37v2.557Z" fill="#D3D3D3"/><path d="M58.813 30.685h2.557v-2.557h-2.557v2.557ZM56.256 30.685h2.557v-2.557h-2.557v2.557ZM53.698 30.685h2.557v-2.557h-2.557v2.557ZM51.142 30.685h2.556v-2.557h-2.556v2.557Z" fill="#D3D3D3"/><path d="M48.584 30.685h2.557v-2.557h-2.556v2.557ZM46.027 30.685h2.557v-2.557h-2.557v2.557ZM43.47 30.685h2.557v-2.557H43.47v2.557ZM40.914 30.685h2.556v-2.557h-2.556v2.557ZM38.356 30.685h2.557v-2.557h-2.557v2.557Z" fill="#B7B7B7"/><path d="M35.799 30.685h2.557v-2.557h-2.557v2.557Z" fill="#00AFF4"/><path d="M33.242 30.685H35.8v-2.557h-2.557v2.557ZM30.685 30.685h2.557v-2.557h-2.557v2.557ZM28.128 30.685h2.557v-2.557h-2.557v2.557ZM25.57 30.685h2.558v-2.557H25.57v2.557Z" fill="#00AFF4"/><path d="M23.014 30.685h2.557v-2.557h-2.557v2.557ZM20.456 30.685h2.557v-2.557h-2.557v2.557Z" fill="#00AFF4"/><path d="M17.9 30.685h2.557v-2.557H17.9v2.557Z" fill="#00AFF4"/><path d="M15.343 30.685H17.9v-2.557h-2.557v2.557Z" fill="#00AFF6"/><path d="M12.786 30.685h2.557v-2.557h-2.557v2.557ZM10.229 30.685h2.557v-2.557h-2.557v2.557Z" fill="#009AF0"/><path d="M7.671 30.685h2.557v-2.557H7.671v2.557ZM5.114 30.685h2.557v-2.557H5.114v2.557Z" fill="#B7B7B7"/><path d="M2.558 30.685h2.557v-2.557H2.558v2.557Z" fill="#B7B7B7"/><path d="M99.726 33.242h2.557v-2.557h-2.557v2.557ZM97.169 33.242h2.557v-2.557h-2.557v2.557ZM94.611 33.242h2.557v-2.557h-2.557v2.557Z" fill="#D3D3D3"/><path d="M92.055 33.242h2.557v-2.557h-2.557v2.557ZM89.498 33.242h2.556v-2.557h-2.556v2.557ZM86.94 33.242h2.557v-2.557H86.94v2.557ZM84.383 33.242h2.557v-2.557h-2.557v2.557ZM81.826 33.242h2.557v-2.557h-2.557v2.557Z" fill="#FA695C"/><path d="M79.269 33.242h2.557v-2.557h-2.557v2.557ZM76.712 33.242h2.557v-2.557h-2.557v2.557ZM74.155 33.242h2.557v-2.557h-2.557v2.557Z" fill="#FA695C"/><path d="M71.598 33.242h2.557v-2.557h-2.557v2.557ZM69.041 33.242h2.557v-2.557H69.04v2.557ZM66.483 33.242h2.557v-2.557h-2.557v2.557Z" fill="#F34231"/><path d="M63.927 33.242h2.557v-2.557h-2.557v2.557Z" fill="#F34231"/><path d="M61.37 33.242h2.557v-2.557H61.37v2.557Z" fill="#D3D3D3"/><path d="M58.813 33.242h2.557v-2.557h-2.557v2.557ZM56.256 33.242h2.557v-2.557h-2.557v2.557ZM53.698 33.242h2.557v-2.557h-2.557v2.557ZM51.142 33.242h2.556v-2.557h-2.556v2.557Z" fill="#D3D3D3"/><path d="M48.584 33.242h2.557v-2.557h-2.556v2.557ZM46.027 33.242h2.557v-2.557h-2.557v2.557ZM43.47 33.242h2.557v-2.557H43.47v2.557ZM40.914 33.242h2.556v-2.557h-2.556v2.557Z" fill="#B7B7B7"/><path d="M38.356 33.242h2.557v-2.557h-2.557v2.557ZM35.799 33.242h2.557v-2.557h-2.557v2.557Z" fill="#00AFF4"/><path d="M33.242 33.242H35.8v-2.557h-2.557v2.557ZM30.685 33.242h2.557v-2.557h-2.557v2.557ZM28.128 33.242h2.557v-2.557h-2.557v2.557ZM25.57 33.242h2.558v-2.557H25.57v2.557Z" fill="#00AFF4"/><path d="M23.014 33.242h2.557v-2.557h-2.557v2.557ZM20.456 33.242h2.557v-2.557h-2.557v2.557Z" fill="#00AFF4"/><path d="M17.9 33.242h2.557v-2.557H17.9v2.557Z" fill="#00B0F4"/><path d="M15.343 33.242H17.9v-2.557h-2.557v2.557Z" fill="#009AF0"/><path d="M12.786 33.242h2.557v-2.557h-2.557v2.557ZM10.229 33.242h2.557v-2.557h-2.557v2.557Z" fill="#009AF0"/><path d="M7.671 33.242h2.557v-2.557H7.671v2.557ZM5.114 33.242h2.557v-2.557H5.114v2.557Z" fill="#B7B7B7"/><path d="M2.558 33.242h2.557v-2.557H2.558v2.557Z" fill="#B7B7B7"/><path d="M99.726 35.799h2.557v-2.557h-2.557V35.8ZM97.169 35.799h2.557v-2.557h-2.557V35.8ZM94.611 35.799h2.557v-2.557h-2.557V35.8Z" fill="#D3D3D3"/><path d="M92.055 35.799h2.557v-2.557h-2.557V35.8ZM89.498 35.799h2.556v-2.557h-2.556V35.8ZM86.94 35.799h2.557v-2.557H86.94V35.8ZM84.383 35.799h2.557v-2.557h-2.557V35.8ZM81.826 35.799h2.557v-2.557h-2.557V35.8Z" fill="#FA695C"/><path d="M79.269 35.799h2.557v-2.557h-2.557V35.8ZM76.712 35.799h2.557v-2.557h-2.557V35.8Z" fill="#FA695C"/><path d="M74.155 35.799h2.557v-2.557h-2.557V35.8ZM71.598 35.799h2.557v-2.557h-2.557V35.8ZM69.041 35.799h2.557v-2.557H69.04V35.8ZM66.483 35.799h2.557v-2.557h-2.557V35.8Z" fill="#F34231"/><path d="M63.927 35.799h2.557v-2.557h-2.557V35.8Z" fill="#F34231"/><path d="M61.37 35.799h2.557v-2.557H61.37V35.8Z" fill="#D3D3D3"/><path d="M58.813 35.799h2.557v-2.557h-2.557V35.8ZM56.256 35.799h2.557v-2.557h-2.557V35.8ZM53.698 35.799h2.557v-2.557h-2.557V35.8ZM51.142 35.799h2.556v-2.557h-2.556V35.8Z" fill="#D3D3D3"/><path d="M48.584 35.799h2.557v-2.557h-2.556V35.8ZM46.027 35.799h2.557v-2.557h-2.557V35.8ZM43.47 35.799h2.557v-2.557H43.47V35.8ZM40.914 35.799h2.556v-2.557h-2.556V35.8Z" fill="#B7B7B7"/><path d="M38.356 35.799h2.557v-2.557h-2.557V35.8ZM35.799 35.799h2.557v-2.557h-2.557V35.8Z" fill="#00AFF4"/><path d="M33.242 35.799H35.8v-2.557h-2.557V35.8ZM30.685 35.799h2.557v-2.557h-2.557V35.8ZM28.128 35.799h2.557v-2.557h-2.557V35.8ZM25.57 35.799h2.558v-2.557H25.57V35.8Z" fill="#00AFF4"/><path d="M23.014 35.799h2.557v-2.557h-2.557V35.8Z" fill="#00AFF4"/><path d="M20.456 35.799h2.557v-2.557h-2.557V35.8Z" fill="#00AEF4"/><path d="M17.9 35.799h2.557v-2.557H17.9V35.8ZM15.343 35.799H17.9v-2.557h-2.557V35.8Z" fill="#009AF0"/><path d="M12.786 35.799h2.557v-2.557h-2.557V35.8ZM10.229 35.799h2.557v-2.557h-2.557V35.8Z" fill="#009AF0"/><path d="M7.671 35.799h2.557v-2.557H7.671V35.8ZM5.114 35.799h2.557v-2.557H5.114V35.8Z" fill="#B7B7B7"/><path d="M2.558 35.799h2.557v-2.557H2.558V35.8Z" fill="#B7B7B7"/><path d="M99.726 38.356h2.557V35.8h-2.557v2.556ZM97.169 38.356h2.557V35.8h-2.557v2.556ZM94.611 38.356h2.557V35.8h-2.557v2.556Z" fill="#D3D3D3"/><path d="M92.055 38.356h2.557V35.8h-2.557v2.556ZM89.498 38.356h2.556V35.8h-2.556v2.556ZM86.94 38.356h2.557V35.8H86.94v2.556ZM84.383 38.356h2.557V35.8h-2.557v2.556ZM81.826 38.356h2.557V35.8h-2.557v2.556Z" fill="#FA695C"/><path d="M79.269 38.356h2.557V35.8h-2.557v2.556Z" fill="#FA695C"/><path d="M76.712 38.356h2.557V35.8h-2.557v2.556ZM74.155 38.356h2.557V35.8h-2.557v2.556ZM71.598 38.356h2.557V35.8h-2.557v2.556ZM69.041 38.356h2.557V35.8H69.04v2.556ZM66.483 38.356h2.557V35.8h-2.557v2.556Z" fill="#F34231"/><path d="M63.927 38.356h2.557V35.8h-2.557v2.556Z" fill="#F34231"/><path d="M61.37 38.356h2.557V35.8H61.37v2.556Z" fill="#D3D3D3"/><path d="M58.813 38.356h2.557V35.8h-2.557v2.556ZM56.256 38.356h2.557V35.8h-2.557v2.556ZM53.698 38.356h2.557V35.8h-2.557v2.556ZM51.142 38.356h2.556V35.8h-2.556v2.556Z" fill="#D3D3D3"/><path d="M48.584 38.356h2.557V35.8h-2.556v2.556Z" fill="#B7B7B7"/><path d="M53.698 40.913h2.557v-2.557h-2.557v2.557ZM51.142 40.913h2.556v-2.557h-2.556v2.557ZM48.584 40.913h2.557v-2.557h-2.556v2.557Z" fill="#060608"/><path d="M46.027 38.356h2.557V35.8h-2.557v2.556ZM43.47 38.356h2.557V35.8H43.47v2.556ZM40.914 38.356h2.556V35.8h-2.556v2.556Z" fill="#B7B7B7"/><path d="M38.356 38.356h2.557V35.8h-2.557v2.556ZM35.799 38.356h2.557V35.8h-2.557v2.556Z" fill="#00AFF4"/><path d="M33.242 38.356H35.8V35.8h-2.557v2.556ZM30.685 38.356h2.557V35.8h-2.557v2.556ZM28.128 38.356h2.557V35.8h-2.557v2.556ZM25.57 38.356h2.558V35.8H25.57v2.556Z" fill="#00AFF4"/><path d="M23.014 38.356h2.557V35.8h-2.557v2.556Z" fill="#00AEF4"/><path d="M20.456 38.356h2.557V35.8h-2.557v2.556Z" fill="#009AF0"/><path d="M17.9 38.356h2.557V35.8H17.9v2.556ZM15.343 38.356H17.9V35.8h-2.557v2.556Z" fill="#009AF0"/><path d="M12.786 38.356h2.557V35.8h-2.557v2.556ZM10.229 38.356h2.557V35.8h-2.557v2.556Z" fill="#009AF0"/><path d="M7.671 38.356h2.557V35.8H7.671v2.556ZM5.114 38.356h2.557V35.8H5.114v2.556Z" fill="#B7B7B7"/><path d="M2.558 38.356h2.557V35.8H2.558v2.556Z" fill="#B7B7B7"/><path d="M99.726 40.913h2.557v-2.557h-2.557v2.557ZM97.169 40.913h2.557v-2.557h-2.557v2.557ZM94.611 40.913h2.557v-2.557h-2.557v2.557Z" fill="#D3D3D3"/><path d="M92.055 40.913h2.557v-2.557h-2.557v2.557ZM89.498 40.913h2.556v-2.557h-2.556v2.557ZM86.94 40.913h2.557v-2.557H86.94v2.557ZM84.383 40.913h2.557v-2.557h-2.557v2.557ZM81.826 40.913h2.557v-2.557h-2.557v2.557Z" fill="#FA695C"/><path d="M79.269 40.913h2.557v-2.557h-2.557v2.557ZM76.712 40.913h2.557v-2.557h-2.557v2.557ZM74.155 40.913h2.557v-2.557h-2.557v2.557ZM71.598 40.913h2.557v-2.557h-2.557v2.557ZM69.041 40.913h2.557v-2.557H69.04v2.557ZM66.483 40.913h2.557v-2.557h-2.557v2.557Z" fill="#F34231"/><path d="M63.927 40.913h2.557v-2.557h-2.557v2.557Z" fill="#F34231"/><path d="M61.37 40.913h2.557v-2.557H61.37v2.557Z" fill="#D3D3D3"/><path d="M58.813 40.913h2.557v-2.557h-2.557v2.557ZM56.256 40.913h2.557v-2.557h-2.557v2.557Z" fill="#D3D3D3"/><path d="M46.027 40.913h2.557v-2.557h-2.557v2.557ZM43.47 40.913h2.557v-2.557H43.47v2.557ZM40.914 40.913h2.556v-2.557h-2.556v2.557Z" fill="#B7B7B7"/><path d="M38.356 40.913h2.557v-2.557h-2.557v2.557ZM35.799 40.913h2.557v-2.557h-2.557v2.557Z" fill="#00AFF4"/><path d="M33.242 40.913H35.8v-2.557h-2.557v2.557ZM30.685 40.913h2.557v-2.557h-2.557v2.557ZM28.128 40.913h2.557v-2.557h-2.557v2.557ZM25.57 40.913h2.558v-2.557H25.57v2.557Z" fill="#00AFF4"/><path d="M23.014 40.913h2.557v-2.557h-2.557v2.557ZM20.456 40.913h2.557v-2.557h-2.557v2.557Z" fill="#009AF0"/><path d="M17.9 40.913h2.557v-2.557H17.9v2.557ZM15.343 40.913H17.9v-2.557h-2.557v2.557Z" fill="#009AF0"/><path d="M12.786 40.913h2.557v-2.557h-2.557v2.557ZM10.229 40.913h2.557v-2.557h-2.557v2.557Z" fill="#009AF0"/><path d="M7.671 40.913h2.557v-2.557H7.671v2.557ZM5.114 40.913h2.557v-2.557H5.114v2.557Z" fill="#B7B7B7"/><path d="M2.558 40.913h2.557v-2.557H2.558v2.557Z" fill="#B7B7B7"/><path d="M99.726 43.47h2.557v-2.557h-2.557v2.557ZM97.169 43.47h2.557v-2.557h-2.557v2.557ZM94.611 43.47h2.557v-2.557h-2.557v2.557Z" fill="#D3D3D3"/><path d="M92.055 43.47h2.557v-2.557h-2.557v2.557ZM89.498 43.47h2.556v-2.557h-2.556v2.557ZM86.94 43.47h2.557v-2.557H86.94v2.557ZM84.383 43.47h2.557v-2.557h-2.557v2.557Z" fill="#FA695C"/><path d="M81.826 43.47h2.557v-2.557h-2.557v2.557Z" fill="#F34231"/><path d="M79.269 43.47h2.557v-2.557h-2.557v2.557ZM76.712 43.47h2.557v-2.557h-2.557v2.557ZM74.155 43.47h2.557v-2.557h-2.557v2.557ZM71.598 43.47h2.557v-2.557h-2.557v2.557ZM69.041 43.47h2.557v-2.557H69.04v2.557ZM66.483 43.47h2.557v-2.557h-2.557v2.557Z" fill="#F34231"/><path d="M63.927 43.47h2.557v-2.557h-2.557v2.557Z" fill="#F34231"/><path d="M61.37 43.47h2.557v-2.557H61.37v2.557Z" fill="#D3D3D3"/><path d="M58.813 43.47h2.557v-2.557h-2.557v2.557ZM56.256 43.47h2.557v-2.557h-2.557v2.557Z" fill="#D3D3D3"/><path d="M53.698 43.47h2.557v-2.557h-2.557v2.557ZM48.584 43.47h2.557v-2.557h-2.556v2.557ZM46.027 48.585h2.557v-2.557h-2.557v2.557ZM46.027 51.142h2.557v-2.557h-2.557v2.557ZM56.256 48.585h2.557v-2.557h-2.557v2.557ZM56.256 51.142h2.557v-2.557h-2.557v2.557ZM56.256 46.028h2.557V43.47h-2.557v2.557ZM46.027 46.028h2.557V43.47h-2.557v2.557Z" fill="#060608"/><path d="M46.027 43.47h2.557v-2.557h-2.557v2.557ZM43.47 43.47h2.557v-2.557H43.47v2.557ZM40.914 43.47h2.556v-2.557h-2.556v2.557Z" fill="#B7B7B7"/><path d="M38.356 43.47h2.557v-2.557h-2.557v2.557ZM35.799 43.47h2.557v-2.557h-2.557v2.557Z" fill="#00AFF4"/><path d="M33.242 43.47H35.8v-2.557h-2.557v2.557ZM30.685 43.47h2.557v-2.557h-2.557v2.557Z" fill="#00AFF4"/><path d="M28.128 43.47h2.557v-2.557h-2.557v2.557Z" fill="#00AFF6"/><path d="M25.57 43.47h2.558v-2.557H25.57v2.557Z" fill="#009AF0"/><path d="M23.014 43.47h2.557v-2.557h-2.557v2.557ZM20.456 43.47h2.557v-2.557h-2.557v2.557Z" fill="#009AF0"/><path d="M17.9 43.47h2.557v-2.557H17.9v2.557ZM15.343 43.47H17.9v-2.557h-2.557v2.557Z" fill="#009AF0"/><path d="M12.786 43.47h2.557v-2.557h-2.557v2.557ZM10.229 43.47h2.557v-2.557h-2.557v2.557Z" fill="#009AF0"/><path d="M7.671 43.47h2.557v-2.557H7.671v2.557ZM5.114 43.47h2.557v-2.557H5.114v2.557Z" fill="#B7B7B7"/><path d="M2.558 43.47h2.557v-2.557H2.558v2.557Z" fill="#B7B7B7"/><path d="M99.726 46.028h2.557V43.47h-2.557v2.557ZM97.169 46.028h2.557V43.47h-2.557v2.557ZM94.611 46.028h2.557V43.47h-2.557v2.557Z" fill="#D3D3D3"/><path d="M92.055 46.028h2.557V43.47h-2.557v2.557ZM89.498 46.028h2.556V43.47h-2.556v2.557ZM86.94 46.028h2.557V43.47H86.94v2.557Z" fill="#FA695C"/><path d="M84.383 46.028h2.557V43.47h-2.557v2.557ZM81.826 46.028h2.557V43.47h-2.557v2.557Z" fill="#F34231"/><path d="M79.269 46.028h2.557V43.47h-2.557v2.557ZM76.712 46.028h2.557V43.47h-2.557v2.557ZM74.155 46.028h2.557V43.47h-2.557v2.557ZM71.598 46.028h2.557V43.47h-2.557v2.557ZM69.041 46.028h2.557V43.47H69.04v2.557ZM66.483 46.028h2.557V43.47h-2.557v2.557Z" fill="#F34231"/><path d="M63.927 46.028h2.557V43.47h-2.557v2.557Z" fill="#B63023"/><path d="M61.37 46.028h2.557V43.47H61.37v2.557Z" fill="#D3D3D3"/><path d="M58.813 46.028h2.557V43.47h-2.557v2.557Z" fill="#D3D3D3"/><path d="M43.47 46.028h2.557V43.47H43.47v2.557ZM40.914 46.028h2.556V43.47h-2.556v2.557ZM38.356 46.028h2.557V43.47h-2.557v2.557Z" fill="#B7B7B7"/><path d="M35.799 46.028h2.557V43.47h-2.557v2.557Z" fill="#00AFF4"/><path d="M33.242 46.028H35.8V43.47h-2.557v2.557Z" fill="#00AFF4"/><path d="M30.685 46.028h2.557V43.47h-2.557v2.557Z" fill="#00AFF3"/><path d="M28.128 46.028h2.557V43.47h-2.557v2.557ZM25.57 46.028h2.558V43.47H25.57v2.557Z" fill="#009AF0"/><path d="M23.014 46.028h2.557V43.47h-2.557v2.557ZM20.456 46.028h2.557V43.47h-2.557v2.557Z" fill="#009AF0"/><path d="M17.9 46.028h2.557V43.47H17.9v2.557ZM15.343 46.028H17.9V43.47h-2.557v2.557Z" fill="#009AF0"/><path d="M12.786 46.028h2.557V43.47h-2.557v2.557ZM10.229 46.028h2.557V43.47h-2.557v2.557Z" fill="#009AF0"/><path d="M7.671 46.028h2.557V43.47H7.671v2.557ZM5.114 46.028h2.557V43.47H5.114v2.557Z" fill="#B7B7B7"/><path d="M2.558 46.028h2.557V43.47H2.558v2.557Z" fill="#B7B7B7"/><path d="M99.726 48.585h2.557v-2.557h-2.557v2.557ZM97.169 48.585h2.557v-2.557h-2.557v2.557ZM94.611 48.585h2.557v-2.557h-2.557v2.557Z" fill="#D3D3D3"/><path d="M92.055 48.585h2.557v-2.557h-2.557v2.557ZM89.498 48.585h2.556v-2.557h-2.556v2.557ZM86.94 48.585h2.557v-2.557H86.94v2.557ZM84.383 48.585h2.557v-2.557h-2.557v2.557ZM81.826 48.585h2.557v-2.557h-2.557v2.557Z" fill="#D3D3D3"/><path d="M79.269 48.585h2.557v-2.557h-2.557v2.557ZM76.712 48.585h2.557v-2.557h-2.557v2.557ZM74.155 48.585h2.557v-2.557h-2.557v2.557ZM71.598 48.585h2.557v-2.557h-2.557v2.557ZM69.041 48.585h2.557v-2.557H69.04v2.557ZM66.483 48.585h2.557v-2.557h-2.557v2.557Z" fill="#D3D3D3"/><path d="M63.927 48.585h2.557v-2.557h-2.557v2.557Z" fill="#D3D3D3"/><path d="M61.37 48.585h2.557v-2.557H61.37v2.557Z" fill="#D3D3D3"/><path d="M58.813 48.585h2.557v-2.557h-2.557v2.557Z" fill="#D3D3D3"/><path d="M43.47 48.585h2.557v-2.557H43.47v2.557ZM40.914 48.585h2.556v-2.557h-2.556v2.557ZM38.356 48.585h2.557v-2.557h-2.557v2.557ZM35.799 48.585h2.557v-2.557h-2.557v2.557Z" fill="#B7B7B7"/><path d="M33.242 48.585H35.8v-2.557h-2.557v2.557ZM30.685 48.585h2.557v-2.557h-2.557v2.557ZM28.128 48.585h2.557v-2.557h-2.557v2.557ZM25.57 48.585h2.558v-2.557H25.57v2.557Z" fill="#B7B7B7"/><path d="M23.014 48.585h2.557v-2.557h-2.557v2.557ZM20.456 48.585h2.557v-2.557h-2.557v2.557Z" fill="#B7B7B7"/><path d="M17.9 48.585h2.557v-2.557H17.9v2.557ZM15.343 48.585H17.9v-2.557h-2.557v2.557Z" fill="#B7B7B7"/><path d="M12.786 48.585h2.557v-2.557h-2.557v2.557ZM10.229 48.585h2.557v-2.557h-2.557v2.557ZM7.671 48.585h2.557v-2.557H7.671v2.557ZM5.114 48.585h2.557v-2.557H5.114v2.557Z" fill="#B7B7B7"/><path d="M2.558 48.585h2.557v-2.557H2.558v2.557Z" fill="#B7B7B7"/><path d="M0 25.57h2.557v-2.556H0v2.557ZM0 28.128h2.557v-2.557H0v2.557ZM0 30.685h2.557v-2.557H0v2.557ZM0 33.242h2.557v-2.557H0v2.557ZM0 35.799h2.557v-2.557H0V35.8ZM0 38.356h2.557V35.8H0v2.556Z" fill="#060608"/><path d="M0 40.913h2.557v-2.557H0v2.557ZM0 43.47h2.557v-2.557H0v2.557ZM0 46.028h2.557V43.47H0v2.557ZM0 48.585h2.557v-2.557H0v2.557ZM102.283 25.57h2.557v-2.556h-2.557v2.557ZM102.283 28.128h2.557v-2.557h-2.557v2.557ZM102.283 30.685h2.557v-2.557h-2.557v2.557ZM102.283 33.242h2.557v-2.557h-2.557v2.557ZM102.283 35.799h2.557v-2.557h-2.557V35.8ZM102.283 38.356h2.557V35.8h-2.557v2.556Z" fill="#060608"/><path d="M102.283 40.913h2.557v-2.557h-2.557v2.557ZM102.283 43.47h2.557v-2.557h-2.557v2.557ZM102.283 46.028h2.557V43.47h-2.557v2.557ZM102.283 48.585h2.557v-2.557h-2.557v2.557ZM99.726 51.142h2.557v-2.557h-2.557v2.557Z" fill="#060608"/><path d="M97.169 51.142h2.557v-2.557h-2.557v2.557ZM94.611 51.142h2.557v-2.557h-2.557v2.557Z" fill="#D3D3D3"/><path d="M92.055 51.142h2.557v-2.557h-2.557v2.557ZM89.498 51.142h2.556v-2.557h-2.556v2.557ZM86.94 51.142h2.557v-2.557H86.94v2.557ZM84.383 51.142h2.557v-2.557h-2.557v2.557ZM81.826 51.142h2.557v-2.557h-2.557v2.557Z" fill="#D3D3D3"/><path d="M79.269 51.142h2.557v-2.557h-2.557v2.557ZM76.712 51.142h2.557v-2.557h-2.557v2.557ZM74.155 51.142h2.557v-2.557h-2.557v2.557ZM71.598 51.142h2.557v-2.557h-2.557v2.557ZM69.041 51.142h2.557v-2.557H69.04v2.557ZM66.483 51.142h2.557v-2.557h-2.557v2.557Z" fill="#D3D3D3"/><path d="M63.927 51.142h2.557v-2.557h-2.557v2.557Z" fill="#D3D3D3"/><path d="M61.37 51.142h2.557v-2.557H61.37v2.557Z" fill="#D3D3D3"/><path d="M58.813 51.142h2.557v-2.557h-2.557v2.557Z" fill="#D3D3D3"/><path d="M43.47 51.142h2.557v-2.557H43.47v2.557ZM40.914 51.142h2.556v-2.557h-2.556v2.557ZM38.356 51.142h2.557v-2.557h-2.557v2.557ZM35.799 51.142h2.557v-2.557h-2.557v2.557Z" fill="#B7B7B7"/><path d="M33.242 51.142H35.8v-2.557h-2.557v2.557ZM30.685 51.142h2.557v-2.557h-2.557v2.557ZM28.128 51.142h2.557v-2.557h-2.557v2.557ZM25.57 51.142h2.558v-2.557H25.57v2.557Z" fill="#B7B7B7"/><path d="M23.014 51.142h2.557v-2.557h-2.557v2.557ZM20.456 51.142h2.557v-2.557h-2.557v2.557Z" fill="#B7B7B7"/><path d="M17.9 51.142h2.557v-2.557H17.9v2.557ZM15.343 51.142H17.9v-2.557h-2.557v2.557Z" fill="#B7B7B7"/><path d="M12.786 51.142h2.557v-2.557h-2.557v2.557ZM10.229 51.142h2.557v-2.557h-2.557v2.557ZM7.671 51.142h2.557v-2.557H7.671v2.557ZM5.114 51.142h2.557v-2.557H5.114v2.557Z" fill="#B7B7B7"/><path d="M43.47 53.699h2.557v-2.557H43.47v2.556ZM40.914 53.699h2.556v-2.557h-2.556v2.556ZM38.356 53.699h2.557v-2.557h-2.557v2.556ZM35.799 53.699h2.557v-2.557h-2.557v2.556Z" fill="#060608"/><path d="M33.242 53.699H35.8v-2.557h-2.557v2.556ZM30.685 53.699h2.557v-2.557h-2.557v2.556ZM28.128 53.699h2.557v-2.557h-2.557v2.556ZM25.57 53.699h2.558v-2.557H25.57v2.556Z" fill="#060608"/><path d="M23.014 53.699h2.557v-2.557h-2.557v2.556ZM20.456 53.699h2.557v-2.557h-2.557v2.556Z" fill="#060608"/><path d="M17.9 53.699h2.557v-2.557H17.9v2.556ZM15.343 53.699H17.9v-2.557h-2.557v2.556Z" fill="#060608"/><path d="M12.786 53.699h2.557v-2.557h-2.557v2.556ZM10.229 53.699h2.557v-2.557h-2.557v2.556ZM7.671 53.699h2.557v-2.557H7.671v2.556ZM5.114 53.699h2.557v-2.557H5.114v2.556Z" fill="#060608"/><path d="M2.558 51.142h2.557v-2.557H2.558v2.557ZM97.137 53.699h2.557v-2.557h-2.557v2.556Z" fill="#060608"/><path d="M94.58 53.699h2.558v-2.557H94.58v2.556ZM92.022 53.699h2.557v-2.557h-2.556v2.556Z" fill="#060608"/><path d="M89.466 53.699h2.557v-2.557h-2.557v2.556ZM86.91 53.699h2.556v-2.557H86.91v2.556ZM84.352 53.699h2.557v-2.557h-2.557v2.556ZM81.794 53.699h2.557v-2.557h-2.557v2.556Z" fill="#060608"/><path d="M79.238 53.699h2.557v-2.557h-2.557v2.556ZM76.68 53.699h2.558v-2.557H76.68v2.556ZM74.123 53.699h2.557v-2.557h-2.557v2.556ZM71.566 53.699h2.557v-2.557h-2.557v2.556Z" fill="#060608"/><path d="M69.01 53.699h2.557v-2.557H69.01v2.556ZM66.452 53.699h2.557v-2.557h-2.557v2.556ZM63.895 53.699h2.557v-2.557h-2.557v2.556ZM61.338 53.699h2.557v-2.557h-2.557v2.556ZM58.781 53.699h2.557v-2.557h-2.557v2.556Z" fill="#060608"/></svg>