<svg width="102" height="55" fill="none" xmlns="http://www.w3.org/2000/svg"><path d="M97.743 14.568V9.106h-3.37V5.462h-3.371V3.642h-3.37V1.82H84.26V0H16.853v1.82h-3.37v1.822H10.11v1.821h-3.37v3.642H3.37v7.284H0V38.241h3.37V45.526h3.37v3.643h3.371v1.82h3.371v1.822h3.37v1.821h16.852v-1.82h3.371v-1.822h3.37V47.347h3.37v-3.642h13.482V47.347h3.371v3.641h3.37v1.822h3.37v1.821H84.26v-1.82h3.371v-1.822h3.37v-1.82h3.371v-3.643h3.37v-5.463h3.371V14.568h-3.37Z" fill="#060608"/><path d="M20.223 50.989h13.481v-1.82h3.37v-1.822h-6.74v1.821H16.853v1.82h3.37ZM87.631 47.347h-3.37v1.821h3.37v-1.821Z" fill="#C1CCDD"/><path d="M67.409 49.168v1.82h16.852v-1.82H70.78v-1.821h-6.741v1.821h3.37ZM16.852 47.347h-3.37v1.821h3.37v-1.821ZM91.002 45.526h-3.37v1.821h3.37v-1.821ZM64.038 45.526h-3.37v1.821h3.37v-1.821ZM40.446 45.526h-3.37v1.821h3.37v-1.821ZM13.482 45.526h-3.37v1.821h3.37v-1.821Z" fill="#C1CCDD"/><path d="M84.26 43.705h-3.37v1.82h3.37v-1.82Z" fill="#B1BFCF"/><path d="M23.594 43.705h-3.37v1.82h3.37v-1.82Z" fill="#C0CBDC"/><path d="M10.111 43.705h-3.37v1.82h3.37v-1.82ZM60.668 41.883h-3.37v1.822h3.37v-1.822ZM43.816 41.883h-3.37v1.822h3.37v-1.822ZM50.557 38.242h-6.741v1.82H57.297v-1.82h-6.74Z" fill="#C1CCDD"/><path d="M37.075 38.242h-3.37v1.82h3.37v-1.82Z" fill="#C0CBDC"/><path d="M47.187 36.421h10.11V34.6H40.447v1.821h-3.37V40.063h-6.741v1.82h-3.371v1.822h-3.37v1.82h-3.37v1.822h6.74v-1.821h6.74v-1.821h3.371v-1.821h3.37v-3.642h3.371V36.42h3.37Z" fill="#A8B8C7"/><path d="M91.001 34.6v3.641h3.37V32.78h-3.37v1.82Z" fill="#C1CCDD"/><path d="M84.26 32.779h-3.37v1.82h3.37v-1.82Z" fill="#ABB1BF"/><path d="M6.741 32.779h-3.37v1.82h3.37v-1.82Z" fill="#B7C0D1"/><path d="M87.631 30.957h-3.37v1.822h3.37v-1.822Z" fill="#E53C42"/><path d="M77.52 30.957h3.37v1.822h3.37v-1.822h6.741v-3.641h-6.74v-1.822h-3.37v1.822H77.52V30.958Z" fill="#E63B40"/><path d="M77.52 30.957v-3.641h-3.37v-1.822h-6.741v1.822h-3.37V30.958h3.37v1.82h6.74v-1.82h3.371Z" fill="#70C269"/><path d="M43.816 27.316h3.37V23.674h3.371V20.03h-6.74V23.673h-3.371v5.463h3.37v-1.82Z" fill="#3A4467"/><path d="M87.631 25.494h-3.37v1.822h3.37v-1.822Z" fill="#E0454B"/><path d="M13.482 23.673v3.643h6.74V32.778h6.741V27.317h6.741V20.03h-6.74v-5.463h-6.741v5.463h-6.741V23.673Z" fill="#3A4467"/><path d="M10.111 21.853h-3.37v1.82h3.37v-1.82Z" fill="#FEFEFE"/><path d="M77.52 20.031h3.37V16.39h-3.37v-1.821h-6.74v1.821h-3.371v3.642h3.37v1.822h6.741V20.03Z" fill="#1095D5"/><path d="M53.927 20.031v5.464h-3.37v3.641h3.37v-1.82h3.37V23.674h3.37V20.03h-6.74Z" fill="#3A4467"/><path d="M94.373 20.031v12.747h3.37V16.39h-3.37v3.642Z" fill="#C1CCDD"/><path d="M80.89 20.031h3.37v1.822h3.371V20.03h3.37V16.39h-3.37v-1.821h-6.74v5.463Z" fill="#FFAC33"/><path d="M6.74 20.032H3.37v7.283h3.37V21.854h3.371V20.03h3.37v-5.463h3.371V9.106h3.37V7.283h3.371V3.642h-3.37v1.821h-3.37v1.821h-3.371v1.821H10.11v7.284h-3.37v3.643Z" fill="#fff"/><path d="M3.37 20.031h3.37V16.39H3.37v3.642Z" fill="#C1CCDD"/><path d="M91.002 14.568h-3.37v1.821h3.37v-1.821Z" fill="#F0AE4C"/><path d="M10.111 14.568V10.926h-3.37v5.463h3.37v-1.821Z" fill="#C1CCDD"/><path d="M87.631 12.747h-3.37v1.821h3.37v-1.82Z" fill="#F5AD43"/><path d="M70.78 12.747h-3.371v1.821h3.37v-1.82Z" fill="#ADBCCC"/><path d="M94.372 10.926h-3.37v1.821h3.37v-1.821Z" fill="#C1CCDD"/><path d="M20.223 9.105h-3.37v1.822h3.37V9.105Z" fill="#F8F9FB"/><path d="M91.002 7.284h-3.37v1.821h3.37v-1.82ZM13.482 7.284h-3.37v1.821h3.37v-1.82ZM87.631 5.463h-3.37v1.821h3.37v-1.82ZM23.593 7.284h-3.37v3.642h-3.37v3.642h-3.371v5.463h6.74v-5.463h6.741v5.463h6.741v7.285h-6.74v5.463h-6.741v-5.463h-6.741V20.03h-3.37v3.642H6.74v3.642h-3.37v5.464h3.37v7.284h3.37v1.821h3.37v1.821h3.371v1.821h3.37v-1.82h6.741v-1.822h3.371v-1.821h3.37v-1.821h3.37V36.42h3.371V34.6h16.852v3.641h3.37v3.642h3.371v1.821h3.37v1.821h6.741V32.778h-6.74v-1.821h-3.37v-3.642h3.37v-1.821h6.74v-3.642h-3.37v-1.821h-3.37v-3.642h3.37v-1.821h-3.37v-3.642h-3.37V7.284h-3.371V5.463h-3.37V3.64H23.592v3.643Zm37.075 14.569v1.82h-3.37v3.643h-3.371v1.82h-3.37v-3.641h3.37v-5.463h6.74v1.821Zm-20.223 5.463v-3.642h3.37v-3.642h6.742v3.642h-3.37v3.642h-3.371v1.82h-3.37v-1.82ZM16.852 5.463h-3.37v1.821h3.37v-1.82ZM84.26 3.642h-3.37v1.821h3.37V3.642Z" fill="#C1CCDD"/><path d="M60.668 5.463v1.821h3.37v3.642h3.37v1.821h3.371v1.821h6.74v1.821h3.371v-1.821h3.37v-1.82h3.371v1.82h3.37v5.464h-3.37v1.82h-3.37v-1.82H77.52v1.82h-3.37v5.463h6.74v-1.82h6.741v1.82h3.37v3.643h-3.37v1.82h-3.37V34.6h-3.37v-3.643H74.15v16.39h6.74v-3.642h6.741v-1.821h3.37v-9.105h3.371V12.748h-3.37V9.105h-3.37V7.283H84.26v-1.82h-3.37V3.641H57.297v1.821h3.37Z" fill="#A8B8C7"/><path d="M20.223 3.642h-3.37v1.821h3.37V3.642Z" fill="#C1CCDD"/></svg>