<svg width="107" height="89" fill="none" xmlns="http://www.w3.org/2000/svg"><path d="M6.105 0H3.052v3.053h3.053V0ZM9.158 0H6.105v3.053h3.053V0ZM12.21 0H9.159v3.053h3.053V0Z" fill="#060608"/><path d="M15.264 0H12.21v3.053h3.053V0Z" fill="#060608"/><path d="M18.316 0h-3.053v3.053h3.053V0Z" fill="#060608"/><path d="M21.368 0h-3.053v3.053h3.053V0ZM24.421 0H21.37v3.053h3.052V0Z" fill="#060608"/><path d="M27.474 0H24.42v3.053h3.053V0ZM30.526 0h-3.052v3.053h3.052V0ZM33.578 0h-3.052v3.053h3.052V0ZM36.631 0H33.58v3.053h3.052V0ZM39.684 0h-3.052v3.053h3.052V0ZM42.737 0h-3.053v3.053h3.053V0ZM45.79 0h-3.053v3.053h3.053V0ZM48.842 0H45.79v3.053h3.052V0ZM51.895 0h-3.053v3.053h3.053V0ZM54.948 0h-3.053v3.053h3.053V0ZM58 0h-3.052v3.053H58V0ZM61.053 0h-3.052v3.053h3.052V0ZM64.105 0h-3.052v3.053h3.052V0ZM67.158 0h-3.052v3.053h3.052V0ZM70.211 0H67.16v3.053h3.052V0Z" fill="#060608"/><path d="M73.263 0h-3.052v3.053h3.052V0ZM76.316 0h-3.053v3.053h3.053V0ZM3.053 3.053H0v3.052h3.053V3.053Z" fill="#060608"/><path d="M6.105 3.053H3.052v3.052h3.053V3.053Z" fill="#1B2632"/><path d="M9.158 3.053H6.105v3.052h3.053V3.053ZM12.21 3.053H9.159v3.052h3.053V3.053Z" fill="#B2DCEF"/><path d="M15.264 3.053H12.21v3.052h3.053V3.053Z" fill="#B2DCEF"/><path d="M18.316 3.053h-3.053v3.052h3.053V3.053Z" fill="#B2DCEF"/><path d="M21.368 3.053h-3.053v3.052h3.053V3.053ZM24.421 3.053H21.37v3.052h3.052V3.053Z" fill="#B2DCEF"/><path d="M27.474 3.053H24.42v3.052h3.053V3.053ZM30.526 3.053h-3.052v3.052h3.052V3.053ZM33.578 3.053h-3.052v3.052h3.052V3.053ZM36.631 3.053H33.58v3.052h3.052V3.053ZM39.684 3.053h-3.052v3.052h3.052V3.053ZM42.737 3.053h-3.053v3.052h3.053V3.053ZM45.79 3.053h-3.053v3.052h3.053V3.053ZM48.842 3.053H45.79v3.052h3.052V3.053ZM51.895 3.053h-3.053v3.052h3.053V3.053ZM54.948 3.053h-3.053v3.052h3.053V3.053ZM58 3.053h-3.052v3.052H58V3.053ZM61.053 3.053h-3.052v3.052h3.052V3.053ZM64.105 3.053h-3.052v3.052h3.052V3.053ZM67.158 3.053h-3.052v3.052h3.052V3.053ZM70.211 3.053H67.16v3.052h3.052V3.053Z" fill="#B2DCEF"/><path d="M73.263 3.053h-3.052v3.052h3.052V3.053ZM76.316 3.053h-3.053v3.052h3.053V3.053Z" fill="#B2DCEF"/><path d="M79.369 3.053h-3.053v3.052h3.053V3.053ZM3.053 6.106H0v3.052h3.053V6.106Z" fill="#060608"/><path d="M6.105 6.106H3.052v3.052h3.053V6.106Z" fill="#1B2632"/><path d="M9.158 6.106H6.105v3.052h3.053V6.106Z" fill="#B2DCEF"/><path d="M12.21 6.106H9.159v3.052h3.053V6.106Z" fill="#1B2632"/><path d="M15.264 6.106H12.21v3.052h3.053V6.106Z" fill="#1B2632"/><path d="M18.316 6.106h-3.053v3.052h3.053V6.106Z" fill="#1B2632"/><path d="M21.368 6.106h-3.053v3.052h3.053V6.106ZM24.421 6.106H21.37v3.052h3.052V6.106Z" fill="#1B2632"/><path d="M27.474 6.106H24.42v3.052h3.053V6.106ZM30.526 6.106h-3.052v3.052h3.052V6.106ZM33.578 6.106h-3.052v3.052h3.052V6.106ZM36.631 6.106H33.58v3.052h3.052V6.106ZM39.684 6.106h-3.052v3.052h3.052V6.106ZM42.737 6.106h-3.053v3.052h3.053V6.106ZM45.79 6.106h-3.053v3.052h3.053V6.106ZM48.842 6.106H45.79v3.052h3.052V6.106ZM51.895 6.106h-3.053v3.052h3.053V6.106ZM54.948 6.106h-3.053v3.052h3.053V6.106ZM58 6.106h-3.052v3.052H58V6.106ZM61.053 6.106h-3.052v3.052h3.052V6.106ZM64.105 6.106h-3.052v3.052h3.052V6.106ZM67.158 6.106h-3.052v3.052h3.052V6.106ZM70.211 6.106H67.16v3.052h3.052V6.106Z" fill="#1B2632"/><path d="M73.263 6.106h-3.052v3.052h3.052V6.106Z" fill="#1B2632"/><path d="M76.316 6.106h-3.053v3.052h3.053V6.106Z" fill="#B2DCEF"/><path d="M79.369 6.106h-3.053v3.052h3.053V6.106ZM3.053 9.158H0v3.053h3.053V9.158Z" fill="#060608"/><path d="M6.105 9.158H3.052v3.053h3.053V9.158Z" fill="#1B2632"/><path d="M9.158 9.158H6.105v3.053h3.053V9.158Z" fill="#B2DCEF"/><path d="M12.21 9.158H9.159v3.053h3.053V9.158Z" fill="#1B2632"/><path d="M15.264 9.158H12.21v3.053h3.053V9.158Z" fill="#005784"/><path d="M18.316 9.158h-3.053v3.053h3.053V9.158Z" fill="#005784"/><path d="M21.368 9.158h-3.053v3.053h3.053V9.158ZM24.421 9.158H21.37v3.053h3.052V9.158Z" fill="#005784"/><path d="M27.474 9.158H24.42v3.053h3.053V9.158ZM30.526 9.158h-3.052v3.053h3.052V9.158ZM33.578 9.158h-3.052v3.053h3.052V9.158ZM36.631 9.158H33.58v3.053h3.052V9.158ZM39.684 9.158h-3.052v3.053h3.052V9.158ZM42.737 9.158h-3.053v3.053h3.053V9.158ZM45.79 9.158h-3.053v3.053h3.053V9.158ZM48.842 9.158H45.79v3.053h3.052V9.158ZM51.895 9.158h-3.053v3.053h3.053V9.158ZM54.948 9.158h-3.053v3.053h3.053V9.158ZM58 9.158h-3.052v3.053H58V9.158ZM61.053 9.158h-3.052v3.053h3.052V9.158ZM64.105 9.158h-3.052v3.053h3.052V9.158ZM67.158 9.158h-3.052v3.053h3.052V9.158ZM70.211 9.158H67.16v3.053h3.052V9.158Z" fill="#005784"/><path d="M73.263 9.158h-3.052v3.053h3.052V9.158Z" fill="#1B2632"/><path d="M76.316 9.158h-3.053v3.053h3.053V9.158Z" fill="#B2DCEF"/><path d="M79.369 9.158h-3.053v3.053h3.053V9.158ZM3.053 12.21H0v3.053h3.053v-3.052Z" fill="#060608"/><path d="M6.105 12.21H3.052v3.053h3.053v-3.052Z" fill="#1B2632"/><path d="M9.158 12.21H6.105v3.053h3.053v-3.052Z" fill="#B2DCEF"/><path d="M12.21 12.21H9.159v3.053h3.053v-3.052Z" fill="#1B2632"/><path d="M15.264 12.21H12.21v3.053h3.053v-3.052Z" fill="#005784"/><path d="M18.316 12.21h-3.053v3.053h3.053v-3.052Z" fill="#005784"/><path d="M21.368 12.21h-3.053v3.053h3.053v-3.052ZM24.421 12.21H21.37v3.053h3.052v-3.052Z" fill="#005784"/><path d="M27.474 12.21H24.42v3.053h3.053v-3.052ZM30.526 12.21h-3.052v3.053h3.052v-3.052ZM33.578 12.21h-3.052v3.053h3.052v-3.052ZM36.631 12.21H33.58v3.053h3.052v-3.052ZM39.684 12.21h-3.052v3.053h3.052v-3.052ZM42.737 12.21h-3.053v3.053h3.053v-3.052ZM45.79 12.21h-3.053v3.053h3.053v-3.052ZM48.842 12.21H45.79v3.053h3.052v-3.052ZM51.895 12.21h-3.053v3.053h3.053v-3.052ZM54.948 12.21h-3.053v3.053h3.053v-3.052Z" fill="#005784"/><path d="M58 12.21h-3.052v3.053H58v-3.052ZM61.053 12.21h-3.052v3.053h3.052v-3.052Z" fill="#31A2F2"/><path d="M64.105 12.21h-3.052v3.053h3.052v-3.052ZM67.158 12.21h-3.052v3.053h3.052v-3.052ZM70.211 12.21H67.16v3.053h3.052v-3.052Z" fill="#005784"/><path d="M73.263 12.21h-3.052v3.053h3.052v-3.052Z" fill="#1B2632"/><path d="M76.316 12.21h-3.053v3.053h3.053v-3.052Z" fill="#B2DCEF"/><path d="M79.369 12.21h-3.053v3.053h3.053v-3.052ZM3.053 15.263H0v3.053h3.053v-3.053Z" fill="#060608"/><path d="M6.105 15.263H3.052v3.053h3.053v-3.053Z" fill="#1B2632"/><path d="M9.158 15.263H6.105v3.053h3.053v-3.053Z" fill="#B2DCEF"/><path d="M12.21 15.263H9.159v3.053h3.053v-3.053Z" fill="#1B2632"/><path d="M15.264 15.263H12.21v3.053h3.053v-3.053Z" fill="#005784"/><path d="M18.316 15.263h-3.053v3.053h3.053v-3.053Z" fill="#005784"/><path d="M21.368 15.263h-3.053v3.053h3.053v-3.053ZM24.421 15.263H21.37v3.053h3.052v-3.053Z" fill="#005784"/><path d="M27.474 15.263H24.42v3.053h3.053v-3.053ZM30.526 15.263h-3.052v3.053h3.052v-3.053ZM33.578 15.263h-3.052v3.053h3.052v-3.053ZM36.631 15.263H33.58v3.053h3.052v-3.053ZM39.684 15.263h-3.052v3.053h3.052v-3.053ZM42.737 15.263h-3.053v3.053h3.053v-3.053ZM45.79 15.263h-3.053v3.053h3.053v-3.053ZM48.842 15.263H45.79v3.053h3.052v-3.053ZM51.895 15.263h-3.053v3.053h3.053v-3.053ZM54.948 15.263h-3.053v3.053h3.053v-3.053Z" fill="#005784"/><path d="M58 15.263h-3.052v3.053H58v-3.053ZM61.053 15.263h-3.052v3.053h3.052v-3.053Z" fill="#31A2F2"/><path d="M64.105 15.263h-3.052v3.053h3.052v-3.053ZM67.158 15.263h-3.052v3.053h3.052v-3.053ZM70.211 15.263H67.16v3.053h3.052v-3.053Z" fill="#005784"/><path d="M73.263 15.263h-3.052v3.053h3.052v-3.053Z" fill="#1B2632"/><path d="M76.316 15.263h-3.053v3.053h3.053v-3.053Z" fill="#B2DCEF"/><path d="M79.369 15.263h-3.053v3.053h3.053v-3.053ZM3.053 18.316H0v3.053h3.053v-3.053Z" fill="#060608"/><path d="M6.105 18.316H3.052v3.053h3.053v-3.053Z" fill="#1B2632"/><path d="M9.158 18.316H6.105v3.053h3.053v-3.053Z" fill="#B2DCEF"/><path d="M12.21 18.316H9.159v3.053h3.053v-3.053Z" fill="#1B2632"/><path d="M15.264 18.316H12.21v3.053h3.053v-3.053Z" fill="#005784"/><path d="M18.316 18.316h-3.053v3.053h3.053v-3.053Z" fill="#005784"/><path d="M21.368 18.316h-3.053v3.053h3.053v-3.053ZM24.421 18.316H21.37v3.053h3.052v-3.053Z" fill="#005784"/><path d="M27.474 18.316H24.42v3.053h3.053v-3.053ZM30.526 18.316h-3.052v3.053h3.052v-3.053ZM33.578 18.316h-3.052v3.053h3.052v-3.053ZM36.631 18.316H33.58v3.053h3.052v-3.053ZM39.684 18.316h-3.052v3.053h3.052v-3.053ZM42.737 18.316h-3.053v3.053h3.053v-3.053ZM45.79 18.316h-3.053v3.053h3.053v-3.053ZM48.842 18.316H45.79v3.053h3.052v-3.053ZM51.895 18.316h-3.053v3.053h3.053v-3.053ZM54.948 18.316h-3.053v3.053h3.053v-3.053ZM58 18.316h-3.052v3.053H58v-3.053ZM61.053 18.316h-3.052v3.053h3.052v-3.053ZM64.105 18.316h-3.052v3.053h3.052v-3.053ZM67.158 18.316h-3.052v3.053h3.052v-3.053ZM70.211 18.316H67.16v3.053h3.052v-3.053Z" fill="#005784"/><path d="M73.263 18.316h-3.052v3.053h3.052v-3.053Z" fill="#1B2632"/><path d="M76.316 18.316h-3.053v3.053h3.053v-3.053Z" fill="#B2DCEF"/><path d="M79.369 18.316h-3.053v3.053h3.053v-3.053ZM3.053 21.369H0v3.052h3.053V21.37Z" fill="#060608"/><path d="M6.105 21.369H3.052v3.052h3.053V21.37Z" fill="#1B2632"/><path d="M9.158 21.369H6.105v3.052h3.053V21.37Z" fill="#B2DCEF"/><path d="M12.21 21.369H9.159v3.052h3.053V21.37Z" fill="#1B2632"/><path d="M15.264 21.369H12.21v3.052h3.053V21.37Z" fill="#005784"/><path d="M18.316 21.369h-3.053v3.052h3.053V21.37Z" fill="#005784"/><path d="M21.368 21.369h-3.053v3.052h3.053V21.37ZM24.421 21.369H21.37v3.052h3.052V21.37Z" fill="#005784"/><path d="M27.474 21.369H24.42v3.052h3.053V21.37ZM30.526 21.369h-3.052v3.052h3.052V21.37ZM33.578 21.369h-3.052v3.052h3.052V21.37ZM36.631 21.369H33.58v3.052h3.052V21.37ZM39.684 21.369h-3.052v3.052h3.052V21.37ZM42.737 21.369h-3.053v3.052h3.053V21.37ZM45.79 21.369h-3.053v3.052h3.053V21.37ZM48.842 21.369H45.79v3.052h3.052V21.37ZM51.895 21.369h-3.053v3.052h3.053V21.37ZM54.948 21.369h-3.053v3.052h3.053V21.37ZM58 21.369h-3.052v3.052H58V21.37Z" fill="#005784"/><path d="M61.053 21.369h-3.052v3.052h3.052V21.37Z" fill="#31A2F2"/><path d="M64.105 21.369h-3.052v3.052h3.052V21.37ZM67.158 21.369h-3.052v3.052h3.052V21.37ZM70.211 21.369H67.16v3.052h3.052V21.37Z" fill="#005784"/><path d="M73.263 21.369h-3.052v3.052h3.052V21.37Z" fill="#1B2632"/><path d="M76.316 21.369h-3.053v3.052h3.053V21.37Z" fill="#B2DCEF"/><path d="M79.369 21.369h-3.053v3.052h3.053V21.37ZM3.053 24.421H0v3.053h3.053V24.42Z" fill="#060608"/><path d="M6.105 24.421H3.052v3.053h3.053V24.42Z" fill="#1B2632"/><path d="M9.158 24.421H6.105v3.053h3.053V24.42Z" fill="#B2DCEF"/><path d="M12.21 24.421H9.159v3.053h3.053V24.42Z" fill="#1B2632"/><path d="M15.264 24.421H12.21v3.053h3.053V24.42Z" fill="#005784"/><path d="M18.316 24.421h-3.053v3.053h3.053V24.42Z" fill="#005784"/><path d="M21.368 24.421h-3.053v3.053h3.053V24.42ZM24.421 24.421H21.37v3.053h3.052V24.42Z" fill="#005784"/><path d="M27.474 24.421H24.42v3.053h3.053V24.42ZM30.526 24.421h-3.052v3.053h3.052V24.42ZM33.578 24.421h-3.052v3.053h3.052V24.42ZM36.631 24.421H33.58v3.053h3.052V24.42ZM39.684 24.421h-3.052v3.053h3.052V24.42ZM42.737 24.421h-3.053v3.053h3.053V24.42ZM45.79 24.421h-3.053v3.053h3.053V24.42ZM48.842 24.421H45.79v3.053h3.052V24.42ZM51.895 24.421h-3.053v3.053h3.053V24.42ZM54.948 24.421h-3.053v3.053h3.053V24.42ZM58 24.421h-3.052v3.053H58V24.42ZM61.053 24.421h-3.052v3.053h3.052V24.42ZM64.105 24.421h-3.052v3.053h3.052V24.42ZM67.158 24.421h-3.052v3.053h3.052V24.42ZM70.211 24.421H67.16v3.053h3.052V24.42Z" fill="#005784"/><path d="M73.263 24.421h-3.052v3.053h3.052V24.42Z" fill="#1B2632"/><path d="M76.316 24.421h-3.053v3.053h3.053V24.42Z" fill="#B2DCEF"/><path d="M79.369 24.421h-3.053v3.053h3.053V24.42ZM3.053 27.474H0v3.052h3.053v-3.052Z" fill="#060608"/><path d="M6.105 27.474H3.052v3.052h3.053v-3.052Z" fill="#1B2632"/><path d="M9.158 27.474H6.105v3.052h3.053v-3.052Z" fill="#B2DCEF"/><path d="M12.21 27.474H9.159v3.052h3.053v-3.052Z" fill="#1B2632"/><path d="M15.264 27.474H12.21v3.052h3.053v-3.052Z" fill="#005784"/><path d="M18.316 27.474h-3.053v3.052h3.053v-3.052Z" fill="#005784"/><path d="M21.368 27.474h-3.053v3.052h3.053v-3.052ZM24.421 27.474H21.37v3.052h3.052v-3.052Z" fill="#005784"/><path d="M27.474 27.474H24.42v3.052h3.053v-3.052ZM30.526 27.474h-3.052v3.052h3.052v-3.052ZM33.578 27.474h-3.052v3.052h3.052v-3.052ZM36.631 27.474H33.58v3.052h3.052v-3.052ZM39.684 27.474h-3.052v3.052h3.052v-3.052ZM42.737 27.474h-3.053v3.052h3.053v-3.052ZM45.79 27.474h-3.053v3.052h3.053v-3.052ZM48.842 27.474H45.79v3.052h3.052v-3.052ZM51.895 27.474h-3.053v3.052h3.053v-3.052ZM54.948 27.474h-3.053v3.052h3.053v-3.052ZM58 27.474h-3.052v3.052H58v-3.052ZM61.053 27.474h-3.052v3.052h3.052v-3.052ZM64.105 27.474h-3.052v3.052h3.052v-3.052ZM67.158 27.474h-3.052v3.052h3.052v-3.052ZM70.211 27.474H67.16v3.052h3.052v-3.052Z" fill="#005784"/><path d="M73.263 27.474h-3.052v3.052h3.052v-3.052Z" fill="#1B2632"/><path d="M76.316 27.474h-3.053v3.052h3.053v-3.052Z" fill="#B2DCEF"/><path d="M79.369 27.474h-3.053v3.052h3.053v-3.052ZM3.053 30.527H0v3.052h3.053v-3.052Z" fill="#060608"/><path d="M6.105 30.527H3.052v3.052h3.053v-3.052Z" fill="#1B2632"/><path d="M9.158 30.527H6.105v3.052h3.053v-3.052Z" fill="#B2DCEF"/><path d="M12.21 30.527H9.159v3.052h3.053v-3.052Z" fill="#1B2632"/><path d="M15.264 30.527H12.21v3.052h3.053v-3.052Z" fill="#005784"/><path d="M18.316 30.527h-3.053v3.052h3.053v-3.052Z" fill="#005784"/><path d="M21.368 30.527h-3.053v3.052h3.053v-3.052ZM24.421 30.527H21.37v3.052h3.052v-3.052Z" fill="#005784"/><path d="M27.474 30.527H24.42v3.052h3.053v-3.052ZM30.526 30.527h-3.052v3.052h3.052v-3.052ZM33.578 30.527h-3.052v3.052h3.052v-3.052ZM36.631 30.527H33.58v3.052h3.052v-3.052ZM39.684 30.527h-3.052v3.052h3.052v-3.052ZM42.737 30.527h-3.053v3.052h3.053v-3.052ZM45.79 30.527h-3.053v3.052h3.053v-3.052ZM48.842 30.527H45.79v3.052h3.052v-3.052ZM51.895 30.527h-3.053v3.052h3.053v-3.052ZM54.948 30.527h-3.053v3.052h3.053v-3.052ZM58 30.527h-3.052v3.052H58v-3.052ZM61.053 30.527h-3.052v3.052h3.052v-3.052ZM64.105 30.527h-3.052v3.052h3.052v-3.052ZM67.158 30.527h-3.052v3.052h3.052v-3.052ZM70.211 30.527H67.16v3.052h3.052v-3.052Z" fill="#005784"/><path d="M73.263 30.527h-3.052v3.052h3.052v-3.052Z" fill="#1B2632"/><path d="M76.316 30.527h-3.053v3.052h3.053v-3.052Z" fill="#B2DCEF"/><path d="M79.369 30.527h-3.053v3.052h3.053v-3.052ZM3.053 33.58H0v3.052h3.053v-3.053Z" fill="#060608"/><path d="M6.105 33.58H3.052v3.052h3.053v-3.053Z" fill="#1B2632"/><path d="M9.158 33.58H6.105v3.052h3.053v-3.053Z" fill="#B2DCEF"/><path d="M12.21 33.58H9.159v3.052h3.053v-3.053Z" fill="#1B2632"/><path d="M15.264 33.58H12.21v3.052h3.053v-3.053Z" fill="#005784"/><path d="M18.316 33.58h-3.053v3.052h3.053v-3.053Z" fill="#005784"/><path d="M21.368 33.58h-3.053v3.052h3.053v-3.053ZM24.421 33.58H21.37v3.052h3.052v-3.053Z" fill="#005784"/><path d="M27.474 33.58H24.42v3.052h3.053v-3.053ZM30.526 33.58h-3.052v3.052h3.052v-3.053ZM33.578 33.58h-3.052v3.052h3.052v-3.053ZM36.631 33.58H33.58v3.052h3.052v-3.053ZM39.684 33.58h-3.052v3.052h3.052v-3.053ZM42.737 33.58h-3.053v3.052h3.053v-3.053ZM45.79 33.58h-3.053v3.052h3.053v-3.053ZM48.842 33.58H45.79v3.052h3.052v-3.053ZM51.895 33.58h-3.053v3.052h3.053v-3.053ZM54.948 33.58h-3.053v3.052h3.053v-3.053ZM58 33.58h-3.052v3.052H58v-3.053ZM61.053 33.58h-3.052v3.052h3.052v-3.053ZM64.105 33.58h-3.052v3.052h3.052v-3.053ZM67.158 33.58h-3.052v3.052h3.052v-3.053ZM70.211 33.58H67.16v3.052h3.052v-3.053Z" fill="#005784"/><path d="M73.263 33.58h-3.052v3.052h3.052v-3.053Z" fill="#1B2632"/><path d="M76.316 33.58h-3.053v3.052h3.053v-3.053Z" fill="#B2DCEF"/><path d="M79.369 33.58h-3.053v3.052h3.053v-3.053ZM3.053 36.632H0v3.052h3.053v-3.052Z" fill="#060608"/><path d="M6.105 36.632H3.052v3.052h3.053v-3.052Z" fill="#1B2632"/><path d="M9.158 36.632H6.105v3.052h3.053v-3.052Z" fill="#B2DCEF"/><path d="M12.21 36.632H9.159v3.052h3.053v-3.052Z" fill="#1B2632"/><path d="M15.264 36.632H12.21v3.052h3.053v-3.052Z" fill="#005784"/><path d="M18.316 36.632h-3.053v3.052h3.053v-3.052Z" fill="#005784"/><path d="M21.368 36.632h-3.053v3.052h3.053v-3.052ZM24.421 36.632H21.37v3.052h3.052v-3.052Z" fill="#005784"/><path d="M27.474 36.632H24.42v3.052h3.053v-3.052ZM30.526 36.632h-3.052v3.052h3.052v-3.052ZM33.578 36.632h-3.052v3.052h3.052v-3.052ZM36.631 36.632H33.58v3.052h3.052v-3.052ZM39.684 36.632h-3.052v3.052h3.052v-3.052ZM42.737 36.632h-3.053v3.052h3.053v-3.052ZM45.79 36.632h-3.053v3.052h3.053v-3.052ZM48.842 36.632H45.79v3.052h3.052v-3.052ZM51.895 36.632h-3.053v3.052h3.053v-3.052ZM54.948 36.632h-3.053v3.052h3.053v-3.052ZM58 36.632h-3.052v3.052H58v-3.052ZM61.053 36.632h-3.052v3.052h3.052v-3.052ZM64.105 36.632h-3.052v3.052h3.052v-3.052ZM67.158 36.632h-3.052v3.052h3.052v-3.052ZM70.211 36.632H67.16v3.052h3.052v-3.052Z" fill="#005784"/><path d="M73.263 36.632h-3.052v3.052h3.052v-3.052Z" fill="#1B2632"/><path d="M76.316 36.632h-3.053v3.052h3.053v-3.052Z" fill="#B2DCEF"/><path d="M79.369 36.632h-3.053v3.052h3.053v-3.052ZM3.053 39.685H0v3.052h3.053v-3.052Z" fill="#060608"/><path d="M6.105 39.685H3.052v3.052h3.053v-3.052Z" fill="#1B2632"/><path d="M9.158 39.685H6.105v3.052h3.053v-3.052Z" fill="#B2DCEF"/><path d="M12.21 39.685H9.159v3.052h3.053v-3.052Z" fill="#1B2632"/><path d="M15.264 39.685H12.21v3.052h3.053v-3.052Z" fill="#005784"/><path d="M18.316 39.685h-3.053v3.052h3.053v-3.052Z" fill="#005784"/><path d="M21.368 39.685h-3.053v3.052h3.053v-3.052ZM24.421 39.685H21.37v3.052h3.052v-3.052Z" fill="#005784"/><path d="M27.474 39.685H24.42v3.052h3.053v-3.052ZM30.526 39.685h-3.052v3.052h3.052v-3.052ZM33.578 39.685h-3.052v3.052h3.052v-3.052ZM36.631 39.685H33.58v3.052h3.052v-3.052ZM39.684 39.685h-3.052v3.052h3.052v-3.052ZM42.737 39.685h-3.053v3.052h3.053v-3.052ZM45.79 39.685h-3.053v3.052h3.053v-3.052ZM48.842 39.685H45.79v3.052h3.052v-3.052ZM51.895 39.685h-3.053v3.052h3.053v-3.052ZM54.948 39.685h-3.053v3.052h3.053v-3.052ZM58 39.685h-3.052v3.052H58v-3.052ZM61.053 39.685h-3.052v3.052h3.052v-3.052ZM64.105 39.685h-3.052v3.052h3.052v-3.052ZM67.158 39.685h-3.052v3.052h3.052v-3.052ZM70.211 39.685H67.16v3.052h3.052v-3.052Z" fill="#005784"/><path d="M73.263 39.685h-3.052v3.052h3.052v-3.052Z" fill="#1B2632"/><path d="M76.316 39.685h-3.053v3.052h3.053v-3.052Z" fill="#B2DCEF"/><path d="M79.369 39.685h-3.053v3.052h3.053v-3.052ZM3.053 42.737H0v3.053h3.053v-3.053Z" fill="#060608"/><path d="M6.105 42.737H3.052v3.053h3.053v-3.053Z" fill="#1B2632"/><path d="M9.158 42.737H6.105v3.053h3.053v-3.053Z" fill="#B2DCEF"/><path d="M12.21 42.737H9.159v3.053h3.053v-3.053Z" fill="#1B2632"/><path d="M15.264 42.737H12.21v3.053h3.053v-3.053Z" fill="#005784"/><path d="M18.316 42.737h-3.053v3.053h3.053v-3.053Z" fill="#005784"/><path d="M21.368 42.737h-3.053v3.053h3.053v-3.053ZM24.421 42.737H21.37v3.053h3.052v-3.053Z" fill="#005784"/><path d="M27.474 42.737H24.42v3.053h3.053v-3.053ZM30.526 42.737h-3.052v3.053h3.052v-3.053ZM33.578 42.737h-3.052v3.053h3.052v-3.053ZM36.631 42.737H33.58v3.053h3.052v-3.053ZM39.684 42.737h-3.052v3.053h3.052v-3.053ZM42.737 42.737h-3.053v3.053h3.053v-3.053ZM45.79 42.737h-3.053v3.053h3.053v-3.053ZM48.842 42.737H45.79v3.053h3.052v-3.053ZM51.895 42.737h-3.053v3.053h3.053v-3.053ZM54.948 42.737h-3.053v3.053h3.053v-3.053ZM58 42.737h-3.052v3.053H58v-3.053ZM61.053 42.737h-3.052v3.053h3.052v-3.053ZM64.105 42.737h-3.052v3.053h3.052v-3.053ZM67.158 42.737h-3.052v3.053h3.052v-3.053ZM70.211 42.737H67.16v3.053h3.052v-3.053Z" fill="#005784"/><path d="M73.263 42.737h-3.052v3.053h3.052v-3.053Z" fill="#1B2632"/><path d="M76.316 42.737h-3.053v3.053h3.053v-3.053Z" fill="#B2DCEF"/><path d="M79.369 42.737h-3.053v3.053h3.053v-3.053ZM3.053 45.79H0v3.052h3.053V45.79Z" fill="#060608"/><path d="M6.105 45.79H3.052v3.052h3.053V45.79Z" fill="#1B2632"/><path d="M9.158 45.79H6.105v3.052h3.053V45.79ZM12.21 45.79H9.159v3.052h3.053V45.79Z" fill="#B2DCEF"/><path d="M15.264 45.79H12.21v3.052h3.053V45.79Z" fill="#1B2632"/><path d="M18.316 45.79h-3.053v3.052h3.053V45.79Z" fill="#1B2632"/><path d="M21.368 45.79h-3.053v3.052h3.053V45.79ZM24.421 45.79H21.37v3.052h3.052V45.79Z" fill="#1B2632"/><path d="M27.474 45.79H24.42v3.052h3.053V45.79ZM30.526 45.79h-3.052v3.052h3.052V45.79ZM33.578 45.79h-3.052v3.052h3.052V45.79ZM36.631 45.79H33.58v3.052h3.052V45.79ZM39.684 45.79h-3.052v3.052h3.052V45.79ZM42.737 45.79h-3.053v3.052h3.053V45.79ZM45.79 45.79h-3.053v3.052h3.053V45.79ZM48.842 45.79H45.79v3.052h3.052V45.79ZM51.895 45.79h-3.053v3.052h3.053V45.79ZM54.948 45.79h-3.053v3.052h3.053V45.79ZM58 45.79h-3.052v3.052H58V45.79ZM61.053 45.79h-3.052v3.052h3.052V45.79ZM64.105 45.79h-3.052v3.052h3.052V45.79ZM67.158 45.79h-3.052v3.052h3.052V45.79ZM70.211 45.79H67.16v3.052h3.052V45.79Z" fill="#1B2632"/><path d="M73.263 45.79h-3.052v3.052h3.052V45.79ZM76.316 45.79h-3.053v3.052h3.053V45.79Z" fill="#B2DCEF"/><path d="M79.369 45.79h-3.053v3.052h3.053V45.79ZM3.053 48.842H0v3.053h3.053v-3.053Z" fill="#060608"/><path d="M6.105 48.842H3.052v3.053h3.053v-3.053Z" fill="#1B2632"/><path d="M9.158 48.842H6.105v3.053h3.053v-3.053ZM12.21 48.842H9.159v3.053h3.053v-3.053Z" fill="#B2DCEF"/><path d="M15.264 48.842H12.21v3.053h3.053v-3.053Z" fill="#B2DCEF"/><path d="M18.316 48.842h-3.053v3.053h3.053v-3.053Z" fill="#B2DCEF"/><path d="M21.368 48.842h-3.053v3.053h3.053v-3.053ZM24.421 48.842H21.37v3.053h3.052v-3.053Z" fill="#B2DCEF"/><path d="M27.474 48.842H24.42v3.053h3.053v-3.053ZM30.526 48.842h-3.052v3.053h3.052v-3.053ZM33.578 48.842h-3.052v3.053h3.052v-3.053ZM36.631 48.842H33.58v3.053h3.052v-3.053ZM39.684 48.842h-3.052v3.053h3.052v-3.053ZM42.737 48.842h-3.053v3.053h3.053v-3.053ZM45.79 48.842h-3.053v3.053h3.053v-3.053ZM48.842 48.842H45.79v3.053h3.052v-3.053ZM51.895 48.842h-3.053v3.053h3.053v-3.053ZM54.948 48.842h-3.053v3.053h3.053v-3.053ZM58 48.842h-3.052v3.053H58v-3.053ZM61.053 48.842h-3.052v3.053h3.052v-3.053ZM64.105 48.842h-3.052v3.053h3.052v-3.053ZM67.158 48.842h-3.052v3.053h3.052v-3.053ZM70.211 48.842H67.16v3.053h3.052v-3.053Z" fill="#B2DCEF"/><path d="M73.263 48.842h-3.052v3.053h3.052v-3.053ZM76.316 48.842h-3.053v3.053h3.053v-3.053Z" fill="#B2DCEF"/><path d="M79.369 48.842h-3.053v3.053h3.053v-3.053ZM6.105 51.895H3.052v3.053h3.053v-3.053ZM9.158 51.895H6.105v3.053h3.053v-3.053ZM12.21 51.895H9.159v3.053h3.053v-3.053Z" fill="#060608"/><path d="M15.264 51.895H12.21v3.053h3.053v-3.053Z" fill="#060608"/><path d="M18.316 51.895h-3.053v3.053h3.053v-3.053Z" fill="#1B2632"/><path d="M21.368 51.895h-3.053v3.053h3.053v-3.053ZM24.421 51.895H21.37v3.053h3.052v-3.053Z" fill="#2F484E"/><path d="M27.474 51.895H24.42v3.053h3.053v-3.053Z" fill="#1B2632"/><path d="M30.526 51.895h-3.052v3.053h3.052v-3.053ZM33.578 51.895h-3.052v3.053h3.052v-3.053ZM36.631 51.895H33.58v3.053h3.052v-3.053ZM39.684 51.895h-3.052v3.053h3.052v-3.053ZM42.737 51.895h-3.053v3.053h3.053v-3.053ZM45.79 51.895h-3.053v3.053h3.053v-3.053ZM48.842 51.895H45.79v3.053h3.052v-3.053ZM51.895 51.895h-3.053v3.053h3.053v-3.053ZM54.948 51.895h-3.053v3.053h3.053v-3.053Z" fill="#060608"/><path d="M58 51.895h-3.052v3.053H58v-3.053Z" fill="#1B2632"/><path d="M61.053 51.895h-3.052v3.053h3.052v-3.053ZM64.105 51.895h-3.052v3.053h3.052v-3.053Z" fill="#2F484E"/><path d="M67.158 51.895h-3.052v3.053h3.052v-3.053Z" fill="#1B2632"/><path d="M70.211 51.895H67.16v3.053h3.052v-3.053Z" fill="#060608"/><path d="M73.263 51.895h-3.052v3.053h3.052v-3.053ZM76.316 51.895h-3.053v3.053h3.053v-3.053ZM79.369 51.895h-3.053v3.053h3.053v-3.053ZM6.105 54.948H3.052V58h3.053v-3.052Z" fill="#060608"/><path d="M9.158 54.948H6.105V58h3.053v-3.052Z" fill="#fff"/><path d="M12.21 54.948H9.159V58h3.053v-3.052Z" fill="#B2DCEF"/><path d="M15.264 54.948H12.21V58h3.053v-3.052Z" fill="#B2DCEF"/><path d="M18.316 54.948h-3.053V58h3.053v-3.052Z" fill="#B2DCEF"/><path d="M21.368 54.948h-3.053V58h3.053v-3.052ZM24.421 54.948H21.37V58h3.052v-3.052Z" fill="#B2DCEF"/><path d="M27.474 54.948H24.42V58h3.053v-3.052ZM30.526 54.948h-3.052V58h3.052v-3.052ZM33.578 54.948h-3.052V58h3.052v-3.052ZM36.631 54.948H33.58V58h3.052v-3.052ZM39.684 54.948h-3.052V58h3.052v-3.052ZM42.737 54.948h-3.053V58h3.053v-3.052ZM45.79 54.948h-3.053V58h3.053v-3.052ZM48.842 54.948H45.79V58h3.052v-3.052ZM51.895 54.948h-3.053V58h3.053v-3.052ZM54.948 54.948h-3.053V58h3.053v-3.052ZM58 54.948h-3.052V58H58v-3.052ZM61.053 54.948h-3.052V58h3.052v-3.052ZM64.105 54.948h-3.052V58h3.052v-3.052ZM67.158 54.948h-3.052V58h3.052v-3.052ZM70.211 54.948H67.16V58h3.052v-3.052Z" fill="#B2DCEF"/><path d="M73.263 54.948h-3.052V58h3.052v-3.052ZM76.316 54.948h-3.053V58h3.053v-3.052ZM79.369 54.948h-3.053V58h3.053v-3.052Z" fill="#B2DCEF"/><path d="M82.421 54.948H79.37V58h3.052v-3.052ZM6.105 58H3.052v3.053h3.053V58Z" fill="#060608"/><path d="M9.158 58H6.105v3.053h3.053V58Z" fill="#1B2632"/><path d="M12.21 58H9.159v3.053h3.053V58Z" fill="#fff"/><path d="M15.264 58H12.21v3.053h3.053V58Z" fill="#B2DCEF"/><path d="M18.316 58h-3.053v3.053h3.053V58Z" fill="#B2DCEF"/><path d="M21.368 58h-3.053v3.053h3.053V58ZM24.421 58H21.37v3.053h3.052V58Z" fill="#1B2632"/><path d="M27.474 58H24.42v3.053h3.053V58ZM30.526 58h-3.052v3.053h3.052V58ZM33.578 58h-3.052v3.053h3.052V58ZM36.631 58H33.58v3.053h3.052V58ZM39.684 58h-3.052v3.053h3.052V58ZM42.737 58h-3.053v3.053h3.053V58ZM45.79 58h-3.053v3.053h3.053V58ZM48.842 58H45.79v3.053h3.052V58ZM51.895 58h-3.053v3.053h3.053V58ZM54.948 58h-3.053v3.053h3.053V58ZM58 58h-3.052v3.053H58V58ZM61.053 58h-3.052v3.053h3.052V58ZM64.105 58h-3.052v3.053h3.052V58ZM67.158 58h-3.052v3.053h3.052V58ZM70.211 58H67.16v3.053h3.052V58Z" fill="#1B2632"/><path d="M73.263 58h-3.052v3.053h3.052V58ZM76.316 58h-3.053v3.053h3.053V58Z" fill="#1B2632"/><path d="M79.369 58h-3.053v3.053h3.053V58Z" fill="#B2DCEF"/><path d="M82.421 58H79.37v3.053h3.052V58Z" fill="#fff"/><path d="M85.474 58h-3.052v3.053h3.052V58ZM6.105 61.053H3.052v3.052h3.053v-3.052Z" fill="#060608"/><path d="M9.158 61.053H6.105v3.052h3.053v-3.052ZM12.21 61.053H9.159v3.052h3.053v-3.052Z" fill="#1B2632"/><path d="M15.264 61.053H12.21v3.052h3.053v-3.052Z" fill="#fff"/><path d="M18.316 61.053h-3.053v3.052h3.053v-3.052Z" fill="#B2DCEF"/><path d="M21.368 61.053h-3.053v3.052h3.053v-3.052Z" fill="#B2DCEF"/><path d="M24.421 61.053H21.37v3.052h3.052v-3.052Z" fill="#1B2632"/><path d="M27.474 61.053H24.42v3.052h3.053v-3.052Z" fill="#2F484E"/><path d="M30.526 61.053h-3.052v3.052h3.052v-3.052Z" fill="#B2DCEF"/><path d="M33.578 61.053h-3.052v3.052h3.052v-3.052Z" fill="#1B2632"/><path d="M36.631 61.053H33.58v3.052h3.052v-3.052Z" fill="#2F484E"/><path d="M39.684 61.053h-3.052v3.052h3.052v-3.052Z" fill="#B2DCEF"/><path d="M42.737 61.053h-3.053v3.052h3.053v-3.052Z" fill="#1B2632"/><path d="M45.79 61.053h-3.053v3.052h3.053v-3.052Z" fill="#2F484E"/><path d="M48.842 61.053H45.79v3.052h3.052v-3.052Z" fill="#B2DCEF"/><path d="M51.895 61.053h-3.053v3.052h3.053v-3.052Z" fill="#1B2632"/><path d="M54.948 61.053h-3.053v3.052h3.053v-3.052Z" fill="#2F484E"/><path d="M58 61.053h-3.052v3.052H58v-3.052Z" fill="#B2DCEF"/><path d="M61.053 61.053h-3.052v3.052h3.052v-3.052Z" fill="#1B2632"/><path d="M64.105 61.053h-3.052v3.052h3.052v-3.052Z" fill="#2F484E"/><path d="M67.158 61.053h-3.052v3.052h3.052v-3.052Z" fill="#B2DCEF"/><path d="M70.211 61.053H67.16v3.052h3.052v-3.052Z" fill="#1B2632"/><path d="M73.263 61.053h-3.052v3.052h3.052v-3.052Z" fill="#2F484E"/><path d="M76.316 61.053h-3.053v3.052h3.053v-3.052Z" fill="#B2DCEF"/><path d="M79.369 61.053h-3.053v3.052h3.053v-3.052Z" fill="#1B2632"/><path d="M82.421 61.053H79.37v3.052h3.052v-3.052Z" fill="#B2DCEF"/><path d="M85.474 61.053h-3.052v3.052h3.052v-3.052Z" fill="#fff"/><path d="M88.527 61.053h-3.053v3.052h3.053v-3.052ZM9.158 64.106H6.105v3.052h3.053v-3.052Z" fill="#060608"/><path d="M12.21 64.106H9.159v3.052h3.053v-3.052Z" fill="#1B2632"/><path d="M15.264 64.106H12.21v3.052h3.053v-3.052Z" fill="#1B2632"/><path d="M18.316 64.106h-3.053v3.052h3.053v-3.052Z" fill="#fff"/><path d="M21.368 64.106h-3.053v3.052h3.053v-3.052ZM24.421 64.106H21.37v3.052h3.052v-3.052Z" fill="#B2DCEF"/><path d="M27.474 64.106H24.42v3.052h3.053v-3.052Z" fill="#1B2632"/><path d="M30.526 64.106h-3.052v3.052h3.052v-3.052Z" fill="#2F484E"/><path d="M33.578 64.106h-3.052v3.052h3.052v-3.052Z" fill="#B2DCEF"/><path d="M36.631 64.106H33.58v3.052h3.052v-3.052Z" fill="#1B2632"/><path d="M39.684 64.106h-3.052v3.052h3.052v-3.052Z" fill="#2F484E"/><path d="M42.737 64.106h-3.053v3.052h3.053v-3.052Z" fill="#B2DCEF"/><path d="M45.79 64.106h-3.053v3.052h3.053v-3.052Z" fill="#1B2632"/><path d="M48.842 64.106H45.79v3.052h3.052v-3.052Z" fill="#2F484E"/><path d="M51.895 64.106h-3.053v3.052h3.053v-3.052ZM54.948 64.106h-3.053v3.052h3.053v-3.052ZM58 64.106h-3.052v3.052H58v-3.052ZM61.053 64.106h-3.052v3.052h3.052v-3.052ZM64.105 64.106h-3.052v3.052h3.052v-3.052ZM67.158 64.106h-3.052v3.052h3.052v-3.052Z" fill="#1B2632"/><path d="M70.211 64.106H67.16v3.052h3.052v-3.052Z" fill="#B2DCEF"/><path d="M73.263 64.106h-3.052v3.052h3.052v-3.052Z" fill="#1B2632"/><path d="M76.316 64.106h-3.053v3.052h3.053v-3.052Z" fill="#2F484E"/><path d="M79.369 64.106h-3.053v3.052h3.053v-3.052Z" fill="#B2DCEF"/><path d="M82.421 64.106H79.37v3.052h3.052v-3.052Z" fill="#1B2632"/><path d="M85.474 64.106h-3.052v3.052h3.052v-3.052Z" fill="#B2DCEF"/><path d="M88.527 64.106h-3.053v3.052h3.053v-3.052Z" fill="#fff"/><path d="M91.58 64.106h-3.053v3.052h3.053v-3.052ZM12.21 67.158H9.159v3.053h3.053v-3.053Z" fill="#060608"/><path d="M15.264 67.158H12.21v3.053h3.053v-3.053Z" fill="#1B2632"/><path d="M18.316 67.158h-3.053v3.053h3.053v-3.053Z" fill="#1B2632"/><path d="M21.368 67.158h-3.053v3.053h3.053v-3.053Z" fill="#fff"/><path d="M24.421 67.158H21.37v3.053h3.052v-3.053Z" fill="#B2DCEF"/><path d="M27.474 67.158H24.42v3.053h3.053v-3.053Z" fill="#B2DCEF"/><path d="M30.526 67.158h-3.052v3.053h3.052v-3.053Z" fill="#1B2632"/><path d="M33.578 67.158h-3.052v3.053h3.052v-3.053Z" fill="#2F484E"/><path d="M36.631 67.158H33.58v3.053h3.052v-3.053Z" fill="#B2DCEF"/><path d="M39.684 67.158h-3.052v3.053h3.052v-3.053Z" fill="#1B2632"/><path d="M42.737 67.158h-3.053v3.053h3.053v-3.053Z" fill="#2F484E"/><path d="M45.79 67.158h-3.053v3.053h3.053v-3.053Z" fill="#B2DCEF"/><path d="M48.842 67.158H45.79v3.053h3.052v-3.053Z" fill="#2F484E"/><path d="M51.895 67.158h-3.053v3.053h3.053v-3.053ZM54.948 67.158h-3.053v3.053h3.053v-3.053ZM58 67.158h-3.052v3.053H58v-3.053ZM61.053 67.158h-3.052v3.053h3.052v-3.053ZM64.105 67.158h-3.052v3.053h3.052v-3.053ZM67.158 67.158h-3.052v3.053h3.052v-3.053Z" fill="#B2DCEF"/><path d="M70.211 67.158H67.16v3.053h3.052v-3.053Z" fill="#1B2632"/><path d="M73.263 67.158h-3.052v3.053h3.052v-3.053Z" fill="#B2DCEF"/><path d="M76.316 67.158h-3.053v3.053h3.053v-3.053Z" fill="#1B2632"/><path d="M79.369 67.158h-3.053v3.053h3.053v-3.053Z" fill="#2F484E"/><path d="M82.421 67.158H79.37v3.053h3.052v-3.053Z" fill="#B2DCEF"/><path d="M85.474 67.158h-3.052v3.053h3.052v-3.053Z" fill="#1B2632"/><path d="M88.527 67.158h-3.053v3.053h3.053v-3.053Z" fill="#B2DCEF"/><path d="M91.58 67.158h-3.053v3.053h3.053v-3.053Z" fill="#fff"/><path d="M94.632 67.158h-3.053v3.053h3.053v-3.053ZM15.264 70.21H12.21v3.053h3.053v-3.052Z" fill="#060608"/><path d="M18.316 70.21h-3.053v3.053h3.053v-3.052Z" fill="#1B2632"/><path d="M21.368 70.21h-3.053v3.053h3.053v-3.052Z" fill="#1B2632"/><path d="M24.421 70.21H21.37v3.053h3.052v-3.052Z" fill="#fff"/><path d="M27.474 70.21H24.42v3.053h3.053v-3.052ZM30.526 70.21h-3.052v3.053h3.052v-3.052Z" fill="#B2DCEF"/><path d="M33.578 70.21h-3.052v3.053h3.052v-3.052ZM36.631 70.21H33.58v3.053h3.052v-3.052ZM39.684 70.21h-3.052v3.053h3.052v-3.052ZM42.737 70.21h-3.053v3.053h3.053v-3.052ZM45.79 70.21h-3.053v3.053h3.053v-3.052ZM48.842 70.21H45.79v3.053h3.052v-3.052ZM51.895 70.21h-3.053v3.053h3.053v-3.052ZM54.948 70.21h-3.053v3.053h3.053v-3.052ZM58 70.21h-3.052v3.053H58v-3.052ZM61.053 70.21h-3.052v3.053h3.052v-3.052ZM64.105 70.21h-3.052v3.053h3.052v-3.052ZM67.158 70.21h-3.052v3.053h3.052v-3.052ZM70.211 70.21H67.16v3.053h3.052v-3.052Z" fill="#1B2632"/><path d="M73.263 70.21h-3.052v3.053h3.052v-3.052ZM76.316 70.21h-3.053v3.053h3.053v-3.052ZM79.369 70.21h-3.053v3.053h3.053v-3.052ZM82.421 70.21H79.37v3.053h3.052v-3.052Z" fill="#1B2632"/><path d="M85.474 70.21h-3.052v3.053h3.052v-3.052ZM88.527 70.21h-3.053v3.053h3.053v-3.052Z" fill="#1B2632"/><path d="M91.58 70.21h-3.053v3.053h3.053v-3.052Z" fill="#B2DCEF"/><path d="M94.632 70.21h-3.053v3.053h3.053v-3.052Z" fill="#fff"/><path d="M97.684 70.21h-3.052v3.053h3.052v-3.052ZM18.316 73.264h-3.053v3.052h3.053v-3.052Z" fill="#060608"/><path d="M21.368 73.264h-3.053v3.052h3.053v-3.052ZM24.421 73.264H21.37v3.052h3.052v-3.052Z" fill="#1B2632"/><path d="M27.474 73.264H24.42v3.052h3.053v-3.052Z" fill="#fff"/><path d="M30.526 73.264h-3.052v3.052h3.052v-3.052ZM33.578 73.264h-3.052v3.052h3.052v-3.052ZM36.631 73.264H33.58v3.052h3.052v-3.052ZM39.684 73.264h-3.052v3.052h3.052v-3.052ZM42.737 73.264h-3.053v3.052h3.053v-3.052ZM45.79 73.264h-3.053v3.052h3.053v-3.052ZM48.842 73.264H45.79v3.052h3.052v-3.052ZM51.895 73.264h-3.053v3.052h3.053v-3.052ZM54.948 73.264h-3.053v3.052h3.053v-3.052ZM58 73.264h-3.052v3.052H58v-3.052ZM61.053 73.264h-3.052v3.052h3.052v-3.052ZM64.105 73.264h-3.052v3.052h3.052v-3.052ZM67.158 73.264h-3.052v3.052h3.052v-3.052ZM70.211 73.264H67.16v3.052h3.052v-3.052Z" fill="#B2DCEF"/><path d="M73.263 73.264h-3.052v3.052h3.052v-3.052ZM76.316 73.264h-3.053v3.052h3.053v-3.052ZM79.369 73.264h-3.053v3.052h3.053v-3.052ZM82.421 73.264H79.37v3.052h3.052v-3.052Z" fill="#B2DCEF"/><path d="M85.474 73.264h-3.052v3.052h3.052v-3.052ZM88.527 73.264h-3.053v3.052h3.053v-3.052ZM91.58 73.264h-3.053v3.052h3.053v-3.052Z" fill="#B2DCEF"/><path d="M94.632 73.264h-3.053v3.052h3.053v-3.052Z" fill="#B2DCEF"/><path d="M97.684 73.264h-3.052v3.052h3.052v-3.052Z" fill="#fff"/><path d="M100.737 73.264h-3.052v3.052h3.052v-3.052ZM21.368 76.316h-3.053v3.053h3.053v-3.053Z" fill="#060608"/><path d="M24.421 76.316H21.37v3.053h3.052v-3.053Z" fill="#1B2632"/><path d="M27.474 76.316H24.42v3.053h3.053v-3.053Z" fill="#1B2632"/><path d="M30.526 76.316h-3.052v3.053h3.052v-3.053Z" fill="#fff"/><path d="M33.578 76.316h-3.052v3.053h3.052v-3.053ZM36.631 76.316H33.58v3.053h3.052v-3.053ZM39.684 76.316h-3.052v3.053h3.052v-3.053ZM42.737 76.316h-3.053v3.053h3.053v-3.053ZM45.79 76.316h-3.053v3.053h3.053v-3.053ZM48.842 76.316H45.79v3.053h3.052v-3.053ZM51.895 76.316h-3.053v3.053h3.053v-3.053ZM54.948 76.316h-3.053v3.053h3.053v-3.053ZM58 76.316h-3.052v3.053H58v-3.053Z" fill="#B2DCEF"/><path d="M61.053 76.316h-3.052v3.053h3.052v-3.053Z" fill="#1B2632"/><path d="M64.105 76.316h-3.052v3.053h3.052v-3.053ZM67.158 76.316h-3.052v3.053h3.052v-3.053ZM70.211 76.316H67.16v3.053h3.052v-3.053Z" fill="#2F484E"/><path d="M73.263 76.316h-3.052v3.053h3.052v-3.053Z" fill="#2F484E"/><path d="M76.316 76.316h-3.053v3.053h3.053v-3.053Z" fill="#1B2632"/><path d="M79.369 76.316h-3.053v3.053h3.053v-3.053ZM82.421 76.316H79.37v3.053h3.052v-3.053Z" fill="#B2DCEF"/><path d="M85.474 76.316h-3.052v3.053h3.052v-3.053ZM88.527 76.316h-3.053v3.053h3.053v-3.053ZM91.58 76.316h-3.053v3.053h3.053v-3.053Z" fill="#B2DCEF"/><path d="M94.632 76.316h-3.053v3.053h3.053v-3.053Z" fill="#B2DCEF"/><path d="M97.684 76.316h-3.052v3.053h3.052v-3.053Z" fill="#B2DCEF"/><path d="M100.737 76.316h-3.052v3.053h3.052v-3.053Z" fill="#fff"/><path d="M103.79 76.316h-3.053v3.053h3.053v-3.053ZM24.421 79.369H21.37v3.052h3.052V79.37Z" fill="#060608"/><path d="M27.474 79.369H24.42v3.052h3.053V79.37ZM30.526 79.369h-3.052v3.052h3.052V79.37Z" fill="#1B2632"/><path d="M33.578 79.369h-3.052v3.052h3.052V79.37ZM36.631 79.369H33.58v3.052h3.052V79.37ZM39.684 79.369h-3.052v3.052h3.052V79.37ZM42.737 79.369h-3.053v3.052h3.053V79.37ZM45.79 79.369h-3.053v3.052h3.053V79.37ZM48.842 79.369H45.79v3.052h3.052V79.37ZM51.895 79.369h-3.053v3.052h3.053V79.37ZM54.948 79.369h-3.053v3.052h3.053V79.37ZM58 79.369h-3.052v3.052H58V79.37ZM61.053 79.369h-3.052v3.052h3.052V79.37ZM64.105 79.369h-3.052v3.052h3.052V79.37ZM67.158 79.369h-3.052v3.052h3.052V79.37ZM70.211 79.369H67.16v3.052h3.052V79.37Z" fill="#fff"/><path d="M73.263 79.369h-3.052v3.052h3.052V79.37ZM76.316 79.369h-3.053v3.052h3.053V79.37ZM79.369 79.369h-3.053v3.052h3.053V79.37ZM82.421 79.369H79.37v3.052h3.052V79.37Z" fill="#fff"/><path d="M85.474 79.369h-3.052v3.052h3.052V79.37ZM88.527 79.369h-3.053v3.052h3.053V79.37ZM91.58 79.369h-3.053v3.052h3.053V79.37Z" fill="#fff"/><path d="M94.632 79.369h-3.053v3.052h3.053V79.37Z" fill="#fff"/><path d="M97.684 79.369h-3.052v3.052h3.052V79.37ZM100.737 79.369h-3.052v3.052h3.052V79.37ZM103.79 79.369h-3.053v3.052h3.053V79.37Z" fill="#fff"/><path d="M106.843 79.369h-3.053v3.052h3.053V79.37ZM27.474 82.421H24.42v3.053h3.053v-3.053Z" fill="#060608"/><path d="M30.526 82.421h-3.052v3.053h3.052v-3.053Z" fill="#1B2632"/><path d="M33.578 82.421h-3.052v3.053h3.052v-3.053ZM36.631 82.421H33.58v3.053h3.052v-3.053ZM39.684 82.421h-3.052v3.053h3.052v-3.053ZM42.737 82.421h-3.053v3.053h3.053v-3.053ZM45.79 82.421h-3.053v3.053h3.053v-3.053ZM48.842 82.421H45.79v3.053h3.052v-3.053ZM51.895 82.421h-3.053v3.053h3.053v-3.053ZM54.948 82.421h-3.053v3.053h3.053v-3.053ZM58 82.421h-3.052v3.053H58v-3.053ZM61.053 82.421h-3.052v3.053h3.052v-3.053ZM64.105 82.421h-3.052v3.053h3.052v-3.053Z" fill="#2F484E"/><path d="M67.158 82.421h-3.052v3.053h3.052v-3.053Z" fill="#EC4700"/><path d="M70.211 82.421H67.16v3.053h3.052v-3.053Z" fill="#2F484E"/><path d="M73.263 82.421h-3.052v3.053h3.052v-3.053Z" fill="#15C2A5"/><path d="M76.316 82.421h-3.053v3.053h3.053v-3.053ZM79.369 82.421h-3.053v3.053h3.053v-3.053ZM82.421 82.421H79.37v3.053h3.052v-3.053Z" fill="#2F484E"/><path d="M85.474 82.421h-3.052v3.053h3.052v-3.053ZM88.527 82.421h-3.053v3.053h3.053v-3.053ZM91.58 82.421h-3.053v3.053h3.053v-3.053Z" fill="#2F484E"/><path d="M94.632 82.421h-3.053v3.053h3.053v-3.053Z" fill="#2F484E"/><path d="M97.684 82.421h-3.052v3.053h3.052v-3.053ZM100.737 82.421h-3.052v3.053h3.052v-3.053ZM103.79 82.421h-3.053v3.053h3.053v-3.053Z" fill="#2F484E"/><path d="M106.843 82.421h-3.053v3.053h3.053v-3.053ZM30.526 85.475h-3.052v3.052h3.052v-3.052ZM33.578 85.475h-3.052v3.052h3.052v-3.052ZM36.631 85.475H33.58v3.052h3.052v-3.052ZM39.684 85.475h-3.052v3.052h3.052v-3.052ZM42.737 85.475h-3.053v3.052h3.053v-3.052ZM45.79 85.475h-3.053v3.052h3.053v-3.052ZM48.842 85.475H45.79v3.052h3.052v-3.052ZM51.895 85.475h-3.053v3.052h3.053v-3.052ZM54.948 85.475h-3.053v3.052h3.053v-3.052ZM58 85.475h-3.052v3.052H58v-3.052ZM61.053 85.475h-3.052v3.052h3.052v-3.052ZM64.105 85.475h-3.052v3.052h3.052v-3.052ZM67.158 85.475h-3.052v3.052h3.052v-3.052ZM70.211 85.475H67.16v3.052h3.052v-3.052Z" fill="#060608"/><path d="M73.263 85.475h-3.052v3.052h3.052v-3.052ZM76.316 85.475h-3.053v3.052h3.053v-3.052ZM79.369 85.475h-3.053v3.052h3.053v-3.052ZM82.421 85.475H79.37v3.052h3.052v-3.052Z" fill="#060608"/><path d="M85.474 85.475h-3.052v3.052h3.052v-3.052ZM88.527 85.475h-3.053v3.052h3.053v-3.052ZM91.58 85.475h-3.053v3.052h3.053v-3.052Z" fill="#060608"/><path d="M94.632 85.475h-3.053v3.052h3.053v-3.052Z" fill="#060608"/><path d="M97.684 85.475h-3.052v3.052h3.052v-3.052ZM100.737 85.475h-3.052v3.052h3.052v-3.052ZM103.79 85.475h-3.053v3.052h3.053v-3.052Z" fill="#060608"/></svg>