<svg width="88" height="85" fill="none" xmlns="http://www.w3.org/2000/svg"><path d="M27.166 0h-3.019v3.018h3.019V0ZM63.385 0h-3.018v3.018h3.018V0ZM72.44 81.496h-3.018v3.018h3.018v-3.018ZM18.11 81.496H15.09v3.018h3.019v-3.018ZM87.532 54.33h-3.018v3.019h3.018V54.33ZM87.532 51.312h-3.018v3.018h3.018v-3.018ZM87.532 48.294h-3.018v3.018h3.018v-3.018ZM87.532 45.275h-3.018v3.019h3.018v-3.019ZM87.532 42.257h-3.018v3.018h3.018v-3.018Z" fill="#060608"/><path d="M87.532 39.24h-3.018v3.017h3.018V39.24ZM87.532 36.22h-3.018v3.019h3.018V36.22ZM87.532 33.202h-3.018v3.018h3.018v-3.018ZM87.532 30.184h-3.018v3.018h3.018v-3.018ZM87.532 27.165h-3.018v3.019h3.018v-3.019ZM84.514 60.367h-3.018v3.019h3.018v-3.019Z" fill="#060608"/><path d="M84.514 57.35h-3.018v3.018h3.018v-3.019Z" fill="#060608"/><path d="M84.514 54.33h-3.018v3.019h3.018V54.33Z" fill="#AD1515"/><path d="M84.514 51.312h-3.018v3.018h3.018v-3.018Z" fill="#961212"/><path d="M84.514 48.294h-3.018v3.018h3.018v-3.018ZM84.514 45.275h-3.018v3.019h3.018v-3.019ZM84.514 42.257h-3.018v3.018h3.018v-3.018Z" fill="#282828"/><path d="M84.514 39.24h-3.018v3.017h3.018V39.24ZM84.514 36.22h-3.018v3.019h3.018V36.22Z" fill="#282828"/><path d="M84.514 33.202h-3.018v3.018h3.018v-3.018ZM84.514 30.184h-3.018v3.018h3.018v-3.018ZM84.514 27.165h-3.018v3.019h3.018v-3.019Z" fill="#4C4C4C"/><path d="M84.514 24.147h-3.018v3.018h3.018v-3.018ZM81.496 63.386h-3.018v3.018h3.018v-3.018Z" fill="#060608"/><path d="M81.496 60.367h-3.018v3.019h3.018v-3.019Z" fill="#AD1515"/><path d="M81.496 57.35h-3.018v3.018h3.018v-3.019ZM81.496 54.33h-3.018v3.019h3.018V54.33Z" fill="#AD1515"/><path d="M81.496 51.312h-3.018v3.018h3.018v-3.018Z" fill="#961212"/><path d="M81.496 48.294h-3.018v3.018h3.018v-3.018ZM81.496 45.275h-3.018v3.019h3.018v-3.019ZM81.496 42.257h-3.018v3.018h3.018v-3.018Z" fill="#282828"/><path d="M81.496 39.24h-3.018v3.017h3.018V39.24Z" fill="#282828"/><path d="M81.496 36.22h-3.018v3.019h3.018V36.22ZM81.496 33.202h-3.018v3.018h3.018v-3.018ZM81.496 30.184h-3.018v3.018h3.018v-3.018ZM81.496 27.165h-3.018v3.019h3.018v-3.019ZM81.496 24.147h-3.018v3.018h3.018v-3.018Z" fill="#4C4C4C"/><path d="M81.496 21.129h-3.018v3.018h3.018v-3.018ZM78.478 63.386H75.46v3.018h3.018v-3.018Z" fill="#060608"/><path d="M78.478 60.367H75.46v3.019h3.018v-3.019Z" fill="#AD1515"/><path d="M78.478 57.35H75.46v3.018h3.018v-3.019ZM78.478 54.33H75.46v3.019h3.018V54.33Z" fill="#C91414"/><path d="M78.478 51.312H75.46v3.018h3.018v-3.018Z" fill="#961212"/><path d="M78.478 48.294H75.46v3.018h3.018v-3.018ZM78.478 45.275H75.46v3.019h3.018v-3.019ZM78.478 42.257H75.46v3.018h3.018v-3.018Z" fill="#282828"/><path d="M78.478 39.24H75.46v3.017h3.018V39.24Z" fill="#282828"/><path d="M78.478 36.22H75.46v3.019h3.018V36.22ZM78.478 33.202H75.46v3.018h3.018v-3.018ZM78.478 30.184H75.46v3.018h3.018v-3.018ZM78.478 27.165H75.46v3.019h3.018v-3.019ZM78.478 24.147H75.46v3.018h3.018v-3.018Z" fill="#4C4C4C"/><path d="M78.478 21.129H75.46v3.018h3.018v-3.018ZM75.459 63.386H72.44v3.018h3.019v-3.018Z" fill="#060608"/><path d="M75.459 60.367H72.44v3.019h3.019v-3.019Z" fill="#AD1515"/><path d="M75.459 57.35H72.44v3.018h3.019v-3.019ZM75.459 54.33H72.44v3.019h3.019V54.33Z" fill="#C91414"/><path d="M75.459 51.312H72.44v3.018h3.019v-3.018Z" fill="#961212"/><path d="M75.459 48.294H72.44v3.018h3.019v-3.018Z" fill="#4C4C4C"/><path d="M75.459 45.275H72.44v3.019h3.019v-3.019ZM75.459 42.257H72.44v3.018h3.019v-3.018Z" fill="#282828"/><path d="M75.459 39.24H72.44v3.017h3.019V39.24Z" fill="#282828"/><path d="M75.459 36.22H72.44v3.019h3.019V36.22ZM75.459 33.202H72.44v3.018h3.019v-3.018ZM75.459 30.184H72.44v3.018h3.019v-3.018ZM75.459 27.165H72.44v3.019h3.019v-3.019ZM75.459 24.147H72.44v3.018h3.019v-3.018Z" fill="#4C4C4C"/><path d="M75.459 21.129H72.44v3.018h3.019v-3.018ZM72.44 78.478h-3.018v3.018h3.018v-3.018ZM72.44 75.459h-3.018v3.018h3.018V75.46ZM72.44 63.386h-3.018v3.018h3.018v-3.018Z" fill="#060608"/><path d="M72.44 60.367h-3.018v3.019h3.018v-3.019Z" fill="#7F1212"/><path d="M72.44 57.35h-3.018v3.018h3.018v-3.019ZM72.44 54.33h-3.018v3.019h3.018V54.33ZM72.44 51.312h-3.018v3.018h3.018v-3.018ZM72.44 48.294h-3.018v3.018h3.018v-3.018Z" fill="#7F1212"/><path d="M72.44 45.275h-3.018v3.019h3.018v-3.019ZM72.44 42.257h-3.018v3.018h3.018v-3.018Z" fill="#4C4C4C"/><path d="M72.44 39.24h-3.018v3.017h3.018V39.24Z" fill="#282828"/><path d="M72.44 36.22h-3.018v3.019h3.018V36.22ZM72.44 33.202h-3.018v3.018h3.019v-3.018Z" fill="#4C4C4C"/><path d="M72.44 30.184h-3.018v3.018h3.019v-3.018Z" fill="#DAFF00"/><path d="M72.44 27.165h-3.018v3.019h3.019v-3.019ZM72.44 24.147h-3.018v3.018h3.019v-3.018Z" fill="#4C4C4C"/><path d="M72.44 21.129h-3.018v3.018h3.019v-3.018ZM69.422 81.496h-3.018v3.018h3.018v-3.018Z" fill="#060608"/><path d="M69.422 78.478h-3.018v3.018h3.018v-3.018ZM69.422 75.459h-3.018v3.018h3.018V75.46Z" fill="#fff"/><path d="M69.422 72.44h-3.018v3.019h3.018V72.44Z" fill="#060608"/><path d="M69.422 69.422h-3.018v3.019h3.018v-3.019ZM69.422 63.386h-3.018v3.018h3.018v-3.018Z" fill="#060608"/><path d="M69.422 60.367h-3.018v3.019h3.018v-3.019Z" fill="#C91414"/><path d="M69.422 57.35h-3.018v3.018h3.018v-3.019ZM69.422 54.33h-3.018v3.019h3.018V54.33ZM69.422 51.312h-3.018v3.018h3.018v-3.018ZM69.422 48.294h-3.018v3.018h3.018v-3.018Z" fill="#C91414"/><path d="M69.422 45.275h-3.018v3.019h3.018v-3.019Z" fill="#7F1212"/><path d="M69.422 42.257h-3.018v3.018h3.018v-3.018Z" fill="#4C4C4C"/><path d="M69.422 39.24h-3.018v3.017h3.018V39.24Z" fill="#282828"/><path d="M69.422 36.22h-3.018v3.019h3.018V36.22ZM69.422 33.202h-3.018v3.018h3.018v-3.018Z" fill="#4C4C4C"/><path d="M69.422 30.184h-3.018v3.018h3.018v-3.018Z" fill="#DAFF00"/><path d="M69.422 27.165h-3.018v3.019h3.018v-3.019ZM69.422 24.147h-3.018v3.018h3.018v-3.018Z" fill="#4C4C4C"/><path d="M69.422 21.129h-3.018v3.018h3.018v-3.018ZM69.422 18.11h-3.018v3.018h3.018V18.11ZM69.422 15.092h-3.018v3.018h3.018v-3.018ZM66.404 81.496h-3.019v3.018h3.019v-3.018Z" fill="#060608"/><path d="M66.404 78.478h-3.019v3.018h3.019v-3.018ZM66.404 75.459h-3.019v3.018h3.019V75.46ZM66.404 72.44h-3.019v3.019h3.019V72.44Z" fill="#fff"/><path d="M66.404 69.422h-3.019v3.019h3.019v-3.019Z" fill="#fff"/><path d="M66.404 66.404h-3.019v3.019h3.019v-3.02Z" fill="#060608"/><path d="M66.404 63.386h-3.019v3.018h3.019v-3.018Z" fill="#060608"/><path d="M66.404 60.367h-3.019v3.019h3.019v-3.019Z" fill="#7F1212"/><path d="M66.404 57.35h-3.019v3.018h3.019v-3.019ZM66.404 54.33h-3.019v3.019h3.019V54.33Z" fill="#7F1212"/><path d="M66.404 51.312h-3.019v3.018h3.019v-3.018ZM66.404 48.294h-3.019v3.018h3.019v-3.018Z" fill="#C91414"/><path d="M66.404 45.275h-3.019v3.019h3.019v-3.019Z" fill="#7F1212"/><path d="M66.404 42.257h-3.019v3.018h3.019v-3.018Z" fill="#4C4C4C"/><path d="M66.404 39.24h-3.019v3.017h3.019V39.24Z" fill="#282828"/><path d="M66.404 36.22h-3.019v3.019h3.019V36.22ZM66.404 33.202h-3.019v3.018h3.019v-3.018ZM66.404 30.184h-3.019v3.018h3.019v-3.018ZM66.404 27.165h-3.019v3.019h3.019v-3.019ZM66.404 24.147h-3.019v3.018h3.019v-3.018Z" fill="#4C4C4C"/><path d="M66.404 21.129h-3.019v3.018h3.019v-3.018Z" fill="#060608"/><path d="M66.404 18.11h-3.019v3.018h3.019V18.11ZM66.404 15.092h-3.019v3.018h3.019v-3.018Z" fill="#7F1212"/><path d="M66.404 12.073h-3.019v3.019h3.019v-3.019ZM63.385 81.496h-3.018v3.018h3.018v-3.018Z" fill="#060608"/><path d="M63.385 78.478h-3.018v3.018h3.018v-3.018ZM63.385 75.459h-3.018v3.018h3.018V75.46ZM63.385 72.44h-3.018v3.019h3.018V72.44Z" fill="#fff"/><path d="M63.385 69.422h-3.018v3.019h3.018v-3.019Z" fill="#fff"/><path d="M63.385 66.404h-3.018v3.019h3.018v-3.02Z" fill="#fff"/><path d="M63.385 63.386h-3.018v3.018h3.018v-3.018Z" fill="#898989"/><path d="M63.385 60.367h-3.018v3.019h3.018v-3.019Z" fill="#fff"/><path d="M63.385 57.35h-3.018v3.018h3.018v-3.019ZM63.385 54.33h-3.018v3.019h3.018V54.33Z" fill="#898989"/><path d="M63.385 51.312h-3.018v3.018h3.018v-3.018Z" fill="#7F1212"/><path d="M63.385 48.294h-3.018v3.018h3.018v-3.018Z" fill="#C91414"/><path d="M63.385 45.275h-3.018v3.019h3.018v-3.019Z" fill="#7F1212"/><path d="M63.385 42.257h-3.018v3.018h3.018v-3.018Z" fill="#4C4C4C"/><path d="M63.385 39.24h-3.018v3.017h3.018V39.24Z" fill="#282828"/><path d="M63.385 36.22h-3.018v3.019h3.018V36.22ZM63.385 33.202h-3.018v3.018h3.018v-3.018ZM63.385 30.184h-3.018v3.018h3.018v-3.018ZM63.385 27.165h-3.018v3.019h3.018v-3.019ZM63.385 24.147h-3.018v3.018h3.018v-3.018Z" fill="#4C4C4C"/><path d="M63.385 21.129h-3.018v3.018h3.018v-3.018Z" fill="#333"/><path d="M63.385 18.11h-3.018v3.018h3.018V18.11ZM63.385 15.092h-3.018v3.018h3.018v-3.018Z" fill="#060608"/><path d="M63.385 12.073h-3.018v3.019h3.018v-3.019ZM63.385 9.055h-3.018v3.018h3.018V9.055ZM63.385 6.036h-3.018v3.019h3.018V6.036ZM63.385 3.018h-3.018v3.018h3.018V3.018ZM60.367 81.496h-3.018v3.018h3.018v-3.018Z" fill="#060608"/><path d="M60.367 78.478h-3.018v3.018h3.018v-3.018ZM60.367 75.459h-3.018v3.018h3.018V75.46ZM60.367 72.44h-3.018v3.019h3.018V72.44Z" fill="#fff"/><path d="M60.367 69.422h-3.018v3.019h3.018v-3.019Z" fill="#fff"/><path d="M60.367 66.404h-3.018v3.019h3.018v-3.02Z" fill="#fff"/><path d="M60.367 63.386h-3.018v3.018h3.018v-3.018Z" fill="#fff"/><path d="M60.367 60.367h-3.018v3.019h3.018v-3.019Z" fill="#898989"/><path d="M60.367 57.35h-3.018v3.018h3.018v-3.019ZM60.367 54.33h-3.018v3.019h3.018V54.33Z" fill="#898989"/><path d="M60.367 51.312h-3.018v3.018h3.018v-3.018Z" fill="#7F1212"/><path d="M60.367 48.294h-3.018v3.018h3.018v-3.018Z" fill="#C91414"/><path d="M60.367 45.275h-3.018v3.019h3.018v-3.019Z" fill="#7F1212"/><path d="M60.367 42.257h-3.018v3.018h3.018v-3.018Z" fill="#4C4C4C"/><path d="M60.367 39.24h-3.018v3.017h3.018V39.24Z" fill="#282828"/><path d="M60.367 36.22h-3.018v3.019h3.018V36.22ZM60.367 33.202h-3.018v3.018h3.018v-3.018Z" fill="#4C4C4C"/><path d="M60.367 30.184h-3.018v3.018h3.018v-3.018Z" fill="#16DB2E"/><path d="M60.367 27.165h-3.018v3.019h3.018v-3.019ZM60.367 24.147h-3.018v3.018h3.018v-3.018Z" fill="#4C4C4C"/><path d="M60.367 21.129h-3.018v3.018h3.018v-3.018Z" fill="#333"/><path d="M60.367 18.11h-3.018v3.018h3.018V18.11Z" fill="#898989"/><path d="M60.367 15.092h-3.018v3.018h3.018v-3.018Z" fill="#fff"/><path d="M60.367 12.073h-3.018v3.019h3.018v-3.019Z" fill="#898989"/><path d="M60.367 9.055h-3.018v3.018h3.018V9.055ZM60.367 6.036h-3.018v3.019h3.018V6.036ZM60.367 3.018h-3.018v3.018h3.018V3.018Z" fill="#fff"/><path d="M60.367 0h-3.018v3.018h3.018V0ZM57.349 81.496H54.33v3.018h3.019v-3.018Z" fill="#060608"/><path d="M57.349 78.478H54.33v3.018h3.019v-3.018Z" fill="#fff"/><path d="M57.349 75.459H54.33v3.018h3.019V75.46Z" fill="#383838"/><path d="M57.349 72.44H54.33v3.019h3.019V72.44Z" fill="#fff"/><path d="M57.349 69.422H54.33v3.019h3.019v-3.019Z" fill="#fff"/><path d="M57.349 66.404H54.33v3.019h3.019v-3.02Z" fill="#fff"/><path d="M57.349 63.386H54.33v3.018h3.019v-3.018Z" fill="#898989"/><path d="M57.349 60.367H54.33v3.019h3.019v-3.019Z" fill="#fff"/><path d="M57.349 57.35H54.33v3.018h3.019v-3.019ZM57.349 54.33H54.33v3.019h3.019V54.33Z" fill="#898989"/><path d="M57.349 51.312H54.33v3.018h3.019v-3.018Z" fill="#7F1212"/><path d="M57.349 48.294H54.33v3.018h3.019v-3.018Z" fill="#C91414"/><path d="M57.349 45.275H54.33v3.019h3.019v-3.019Z" fill="#7F1212"/><path d="M57.349 42.257H54.33v3.018h3.019v-3.018Z" fill="#4C4C4C"/><path d="M57.349 39.24H54.33v3.017h3.019V39.24Z" fill="#282828"/><path d="M57.349 36.22H54.33v3.019h3.019V36.22ZM57.349 33.202H54.33v3.018h3.019v-3.018ZM57.349 30.184H54.33v3.018h3.019v-3.018ZM57.349 27.165H54.33v3.019h3.019v-3.019ZM57.349 24.147H54.33v3.018h3.019v-3.018Z" fill="#4C4C4C"/><path d="M57.349 21.128H54.33v3.019h3.019v-3.018Z" fill="#333"/><path d="M57.349 18.11H54.33v3.018h3.019V18.11ZM57.349 15.092H54.33v3.018h3.019v-3.018Z" fill="#898989"/><path d="M57.349 12.073H54.33v3.019h3.019v-3.019ZM57.349 9.055H54.33v3.018h3.019V9.055ZM57.349 6.036H54.33v3.019h3.019V6.036ZM57.349 3.018H54.33v3.018h3.019V3.018Z" fill="#fff"/><path d="M57.349 0H54.33v3.018h3.019V0ZM54.33 81.496h-3.018v3.018h3.018v-3.018Z" fill="#060608"/><path d="M54.33 78.478h-3.018v3.018h3.018v-3.018Z" fill="#fff"/><path d="M54.33 75.459h-3.018v3.018h3.018V75.46Z" fill="#383838"/><path d="M54.33 72.44h-3.018v3.019h3.018V72.44Z" fill="#fff"/><path d="M54.33 69.422h-3.018v3.019h3.018v-3.019Z" fill="#fff"/><path d="M54.33 66.404h-3.018v3.019h3.018v-3.02Z" fill="#fff"/><path d="M54.33 63.386h-3.018v3.018h3.018v-3.018Z" fill="#fff"/><path d="M54.33 60.367h-3.018v3.019h3.018v-3.019Z" fill="#898989"/><path d="M54.33 57.35h-3.018v3.018h3.018v-3.019ZM54.33 54.33h-3.018v3.019h3.018V54.33Z" fill="#898989"/><path d="M54.33 51.312h-3.018v3.018h3.018v-3.018Z" fill="#7F1212"/><path d="M54.33 48.294h-3.018v3.018h3.018v-3.018Z" fill="#C91414"/><path d="M54.33 45.275h-3.018v3.019h3.018v-3.019Z" fill="#7F1212"/><path d="M54.33 42.257h-3.018v3.018h3.018v-3.018Z" fill="#4C4C4C"/><path d="M54.33 39.24h-3.018v3.017h3.018V39.24Z" fill="#282828"/><path d="M54.33 36.22h-3.018v3.019h3.018V36.22ZM54.33 33.202h-3.018v3.018h3.018v-3.018ZM54.33 30.184h-3.018v3.018h3.018v-3.018ZM54.33 27.165h-3.018v3.019h3.018v-3.019ZM54.33 24.147h-3.018v3.018h3.018v-3.018Z" fill="#4C4C4C"/><path d="M54.33 21.128h-3.018v3.019h3.018v-3.018Z" fill="#333"/><path d="M54.33 18.11h-3.018v3.018h3.018V18.11Z" fill="#898989"/><path d="M54.33 15.092h-3.018v3.018h3.018v-3.018Z" fill="#fff"/><path d="M54.33 12.073h-3.018v3.019h3.018v-3.019Z" fill="#898989"/><path d="M54.33 9.055h-3.018v3.018h3.018V9.055ZM54.33 6.036h-3.018v3.019h3.018V6.036ZM54.33 3.018h-3.018v3.018h3.018V3.018Z" fill="#fff"/><path d="M54.33 0h-3.018v3.018h3.018V0ZM51.312 81.496h-3.018v3.018h3.018v-3.018Z" fill="#060608"/><path d="M51.312 78.478h-3.018v3.018h3.018v-3.018Z" fill="#fff"/><path d="M51.312 75.459h-3.018v3.018h3.018V75.46Z" fill="#383838"/><path d="M51.312 72.44h-3.018v3.019h3.018V72.44Z" fill="#fff"/><path d="M51.312 69.422h-3.018v3.019h3.018v-3.019Z" fill="#fff"/><path d="M51.312 66.404h-3.018v3.019h3.018v-3.02Z" fill="#fff"/><path d="M51.312 63.386h-3.018v3.018h3.018v-3.018Z" fill="#898989"/><path d="M51.312 60.367h-3.018v3.019h3.018v-3.019Z" fill="#fff"/><path d="M51.312 57.35h-3.018v3.018h3.018v-3.019ZM51.312 54.33h-3.018v3.019h3.018V54.33Z" fill="#898989"/><path d="M51.312 51.312h-3.018v3.018h3.018v-3.018Z" fill="#7F1212"/><path d="M51.312 48.294h-3.018v3.018h3.018v-3.018Z" fill="#C91414"/><path d="M51.312 45.275h-3.018v3.019h3.018v-3.019Z" fill="#7F1212"/><path d="M51.312 42.257h-3.018v3.018h3.018v-3.018Z" fill="#4C4C4C"/><path d="M51.312 39.24h-3.018v3.017h3.018V39.24Z" fill="#282828"/><path d="M51.312 36.22h-3.018v3.019h3.018V36.22ZM51.312 33.202h-3.018v3.018h3.018v-3.018ZM51.312 30.184h-3.018v3.018h3.018v-3.018ZM51.312 27.165h-3.018v3.019h3.018v-3.019ZM51.312 24.147h-3.018v3.018h3.018v-3.018Z" fill="#4C4C4C"/><path d="M51.312 21.128h-3.018v3.019h3.018v-3.018Z" fill="#333"/><path d="M51.312 18.11h-3.018v3.018h3.018V18.11ZM51.312 15.092h-3.018v3.018h3.018v-3.018Z" fill="#898989"/><path d="M51.312 12.073h-3.018v3.019h3.018v-3.019ZM51.312 9.055h-3.018v3.018h3.018V9.055ZM51.312 6.036h-3.018v3.019h3.018V6.036ZM51.312 3.018h-3.018v3.018h3.018V3.018Z" fill="#fff"/><path d="M51.312 0h-3.018v3.018h3.018V0ZM48.294 81.496h-3.02v3.018h3.02v-3.018Z" fill="#060608"/><path d="M48.294 78.478h-3.02v3.018h3.02v-3.018ZM48.294 75.459h-3.02v3.018h3.02V75.46ZM48.294 72.44h-3.02v3.019h3.02V72.44Z" fill="#fff"/><path d="M48.294 69.422h-3.02v3.019h3.02v-3.019Z" fill="#fff"/><path d="M48.294 66.404h-3.02v3.019h3.02v-3.02Z" fill="#fff"/><path d="M48.294 63.386h-3.02v3.018h3.02v-3.018Z" fill="#fff"/><path d="M48.294 60.367h-3.02v3.019h3.02v-3.019Z" fill="#898989"/><path d="M48.294 57.35h-3.02v3.018h3.02v-3.019ZM48.294 54.33h-3.02v3.019h3.02V54.33Z" fill="#898989"/><path d="M48.294 51.312h-3.02v3.018h3.02v-3.018Z" fill="#7F1212"/><path d="M48.294 48.294h-3.02v3.018h3.02v-3.018Z" fill="#C91414"/><path d="M48.294 45.275h-3.02v3.019h3.02v-3.019Z" fill="#7F1212"/><path d="M48.294 42.257h-3.02v3.018h3.02v-3.018Z" fill="#4C4C4C"/><path d="M48.294 39.24h-3.02v3.017h3.02V39.24Z" fill="#282828"/><path d="M48.294 36.22h-3.02v3.019h3.02V36.22ZM48.294 33.202h-3.02v3.018h3.02v-3.018ZM48.294 30.184h-3.02v3.018h3.02v-3.018ZM48.294 27.165h-3.02v3.019h3.02v-3.019ZM48.294 24.147h-3.02v3.018h3.02v-3.018Z" fill="#4C4C4C"/><path d="M48.294 21.128h-3.02v3.019h3.02v-3.018Z" fill="#333"/><path d="M48.294 18.11h-3.02v3.018h3.02V18.11Z" fill="#898989"/><path d="M48.294 15.092h-3.02v3.018h3.02v-3.018Z" fill="#fff"/><path d="M48.294 12.073h-3.02v3.019h3.02v-3.019Z" fill="#898989"/><path d="M48.294 9.055h-3.02v3.018h3.02V9.055ZM48.294 6.036h-3.02v3.019h3.02V6.036ZM48.294 3.018h-3.02v3.018h3.02V3.018Z" fill="#fff"/><path d="M48.294 0h-3.02v3.018h3.02V0ZM45.275 81.496h-3.018v3.018h3.018v-3.018Z" fill="#060608"/><path d="M45.275 78.478h-3.018v3.018h3.018v-3.018ZM45.275 75.459h-3.018v3.018h3.018V75.46ZM45.275 72.44h-3.018v3.019h3.018V72.44Z" fill="#fff"/><path d="M45.275 69.422h-3.018v3.019h3.018v-3.019Z" fill="#383838"/><path d="M45.275 66.404h-3.018v3.019h3.018v-3.02Z" fill="#fff"/><path d="M45.275 63.386h-3.018v3.018h3.018v-3.018Z" fill="#898989"/><path d="M45.275 60.367h-3.018v3.019h3.018v-3.019Z" fill="#fff"/><path d="M45.275 57.35h-3.018v3.018h3.018v-3.019ZM45.275 54.33h-3.018v3.019h3.018V54.33Z" fill="#898989"/><path d="M45.275 51.312h-3.018v3.018h3.018v-3.018Z" fill="#7F1212"/><path d="M45.275 48.294h-3.018v3.018h3.018v-3.018Z" fill="#C91414"/><path d="M45.275 45.275h-3.018v3.019h3.018v-3.019Z" fill="#7F1212"/><path d="M45.275 42.257h-3.018v3.018h3.018v-3.018Z" fill="#4C4C4C"/><path d="M45.275 39.24h-3.018v3.017h3.018V39.24Z" fill="#282828"/><path d="M45.275 36.22h-3.018v3.019h3.018V36.22ZM45.275 33.202h-3.018v3.018h3.018v-3.018ZM45.275 30.184h-3.018v3.018h3.018v-3.018ZM45.275 27.165h-3.018v3.019h3.018v-3.019ZM45.275 24.147h-3.018v3.018h3.018v-3.018Z" fill="#4C4C4C"/><path d="M45.275 21.128h-3.018v3.019h3.018v-3.018Z" fill="#333"/><path d="M45.275 18.11h-3.018v3.018h3.018V18.11ZM45.275 15.092h-3.018v3.018h3.018v-3.018Z" fill="#898989"/><path d="M45.275 12.073h-3.018v3.019h3.018v-3.019ZM45.275 9.055h-3.018v3.018h3.018V9.055ZM45.275 6.036h-3.018v3.019h3.018V6.036ZM45.275 3.018h-3.018v3.018h3.018V3.018Z" fill="#fff"/><path d="M45.275 0h-3.018v3.018h3.018V0ZM42.257 81.496h-3.018v3.018h3.018v-3.018Z" fill="#060608"/><path d="M42.257 78.478h-3.018v3.018h3.018v-3.018ZM42.257 75.459h-3.018v3.018h3.018V75.46ZM42.257 72.44h-3.018v3.019h3.018V72.44Z" fill="#fff"/><path d="M42.257 69.422h-3.018v3.019h3.018v-3.019Z" fill="#383838"/><path d="M42.257 66.404h-3.018v3.019h3.018v-3.02Z" fill="#fff"/><path d="M42.257 63.386h-3.018v3.018h3.018v-3.018Z" fill="#fff"/><path d="M42.257 60.367h-3.018v3.019h3.018v-3.019Z" fill="#898989"/><path d="M42.257 57.35h-3.018v3.018h3.018v-3.019ZM42.257 54.33h-3.018v3.019h3.018V54.33Z" fill="#898989"/><path d="M42.257 51.312h-3.018v3.018h3.018v-3.018Z" fill="#7F1212"/><path d="M42.257 48.294h-3.018v3.018h3.018v-3.018Z" fill="#C91414"/><path d="M42.257 45.275h-3.018v3.019h3.018v-3.019Z" fill="#7F1212"/><path d="M42.257 42.257h-3.018v3.018h3.018v-3.018Z" fill="#4C4C4C"/><path d="M42.257 39.24h-3.018v3.017h3.018V39.24Z" fill="#282828"/><path d="M42.257 36.22h-3.018v3.019h3.018V36.22ZM42.257 33.202h-3.018v3.018h3.018v-3.018ZM42.257 30.184h-3.018v3.018h3.018v-3.018ZM42.257 27.165h-3.018v3.019h3.018v-3.019ZM42.257 24.147h-3.018v3.018h3.018v-3.018Z" fill="#4C4C4C"/><path d="M42.257 21.128h-3.018v3.019h3.018v-3.018Z" fill="#333"/><path d="M42.257 18.11h-3.018v3.018h3.018V18.11Z" fill="#898989"/><path d="M42.257 15.092h-3.018v3.018h3.018v-3.018Z" fill="#fff"/><path d="M42.257 12.073h-3.018v3.019h3.018v-3.019Z" fill="#898989"/><path d="M42.257 9.055h-3.018v3.018h3.018V9.055ZM42.257 6.036h-3.018v3.019h3.018V6.036ZM42.257 3.018h-3.018v3.018h3.018V3.018Z" fill="#fff"/><path d="M42.257 0h-3.018v3.018h3.018V0ZM39.238 81.496H36.22v3.018h3.018v-3.018Z" fill="#060608"/><path d="M39.238 78.478H36.22v3.018h3.018v-3.018Z" fill="#fff"/><path d="M39.238 75.459H36.22v3.018h3.018V75.46Z" fill="#383838"/><path d="M39.238 72.44H36.22v3.019h3.018V72.44Z" fill="#fff"/><path d="M39.238 69.422H36.22v3.019h3.018v-3.019Z" fill="#383838"/><path d="M39.238 66.404H36.22v3.019h3.018v-3.02Z" fill="#fff"/><path d="M39.238 63.386H36.22v3.018h3.018v-3.018Z" fill="#898989"/><path d="M39.238 60.367H36.22v3.019h3.018v-3.019Z" fill="#fff"/><path d="M39.238 57.35H36.22v3.018h3.018v-3.019ZM39.238 54.33H36.22v3.019h3.018V54.33Z" fill="#898989"/><path d="M39.238 51.312H36.22v3.018h3.018v-3.018Z" fill="#7F1212"/><path d="M39.238 48.294H36.22v3.018h3.018v-3.018Z" fill="#C91414"/><path d="M39.238 45.275H36.22v3.019h3.018v-3.019Z" fill="#7F1212"/><path d="M39.238 42.257H36.22v3.018h3.018v-3.018Z" fill="#4C4C4C"/><path d="M39.238 39.24H36.22v3.017h3.018V39.24Z" fill="#282828"/><path d="M39.238 36.22H36.22v3.019h3.018V36.22ZM39.238 33.202H36.22v3.018h3.018v-3.018ZM39.238 30.184H36.22v3.018h3.018v-3.018ZM39.238 27.165H36.22v3.019h3.018v-3.019ZM39.238 24.147H36.22v3.018h3.018v-3.018Z" fill="#4C4C4C"/><path d="M39.238 21.128H36.22v3.019h3.018v-3.018Z" fill="#333"/><path d="M39.238 18.11H36.22v3.018h3.018V18.11ZM39.238 15.092H36.22v3.018h3.018v-3.018Z" fill="#898989"/><path d="M39.238 12.073H36.22v3.019h3.018v-3.019ZM39.238 9.055H36.22v3.018h3.018V9.055ZM39.238 6.036H36.22v3.019h3.018V6.036ZM39.238 3.018H36.22v3.018h3.018V3.018Z" fill="#fff"/><path d="M39.238 0H36.22v3.018h3.018V0ZM36.22 81.496H33.2v3.018h3.019v-3.018Z" fill="#060608"/><path d="M36.22 78.478H33.2v3.018h3.019v-3.018Z" fill="#fff"/><path d="M36.22 75.459H33.2v3.018h3.019V75.46Z" fill="#383838"/><path d="M36.22 72.44H33.2v3.019h3.019V72.44Z" fill="#fff"/><path d="M36.22 69.422H33.2v3.019h3.019v-3.019Z" fill="#383838"/><path d="M36.22 66.404H33.2v3.019h3.019v-3.02Z" fill="#fff"/><path d="M36.22 63.386H33.2v3.018h3.019v-3.018Z" fill="#fff"/><path d="M36.22 60.367H33.2v3.019h3.019v-3.019Z" fill="#898989"/><path d="M36.22 57.35H33.2v3.018h3.019v-3.019ZM36.22 54.33H33.2v3.019h3.019V54.33Z" fill="#898989"/><path d="M36.22 51.312H33.2v3.018h3.019v-3.018Z" fill="#7F1212"/><path d="M36.22 48.294H33.2v3.018h3.019v-3.018Z" fill="#C91414"/><path d="M36.22 45.275H33.2v3.019h3.019v-3.019Z" fill="#7F1212"/><path d="M36.22 42.257H33.2v3.018h3.019v-3.018Z" fill="#4C4C4C"/><path d="M36.22 39.24H33.2v3.017h3.019V39.24Z" fill="#282828"/><path d="M36.22 36.22H33.2v3.019h3.019V36.22ZM36.22 33.202H33.2v3.018h3.019v-3.018ZM36.22 30.184H33.2v3.018h3.019v-3.018ZM36.22 27.165H33.2v3.019h3.019v-3.019ZM36.22 24.147H33.2v3.018h3.019v-3.018Z" fill="#4C4C4C"/><path d="M36.22 21.128H33.2v3.019h3.019v-3.018Z" fill="#333"/><path d="M36.22 18.11H33.2v3.018h3.019V18.11Z" fill="#898989"/><path d="M36.22 15.092H33.2v3.018h3.019v-3.018Z" fill="#fff"/><path d="M36.22 12.073H33.2v3.019h3.019v-3.019Z" fill="#898989"/><path d="M36.22 9.055H33.2v3.018h3.019V9.055ZM36.22 6.036H33.2v3.019h3.019V6.036ZM36.22 3.018H33.2v3.018h3.019V3.018Z" fill="#fff"/><path d="M36.22 0H33.2v3.018h3.019V0ZM33.201 81.496h-3.018v3.018h3.018v-3.018Z" fill="#060608"/><path d="M33.201 78.478h-3.018v3.018h3.018v-3.018Z" fill="#fff"/><path d="M33.201 75.459h-3.018v3.018h3.018V75.46Z" fill="#383838"/><path d="M33.201 72.44h-3.018v3.019h3.018V72.44Z" fill="#fff"/><path d="M33.201 69.422h-3.018v3.019h3.018v-3.019Z" fill="#383838"/><path d="M33.201 66.404h-3.018v3.019h3.018v-3.02Z" fill="#fff"/><path d="M33.201 63.386h-3.018v3.018h3.018v-3.018Z" fill="#898989"/><path d="M33.201 60.367h-3.018v3.019h3.018v-3.019Z" fill="#fff"/><path d="M33.201 57.35h-3.018v3.018h3.018v-3.019ZM33.201 54.33h-3.018v3.019h3.018V54.33Z" fill="#898989"/><path d="M33.201 51.312h-3.018v3.018h3.018v-3.018Z" fill="#7F1212"/><path d="M33.201 48.294h-3.018v3.018h3.018v-3.018Z" fill="#C91414"/><path d="M33.201 45.275h-3.018v3.019h3.018v-3.019Z" fill="#7F1212"/><path d="M33.201 42.257h-3.018v3.018h3.018v-3.018Z" fill="#4C4C4C"/><path d="M33.201 39.24h-3.018v3.017h3.018V39.24Z" fill="#282828"/><path d="M33.201 36.22h-3.018v3.019h3.018V36.22ZM33.201 33.202h-3.018v3.018h3.018v-3.018ZM33.201 30.184h-3.018v3.018h3.018v-3.018ZM33.201 27.165h-3.018v3.019h3.018v-3.019ZM33.201 24.147h-3.018v3.018h3.018v-3.018Z" fill="#4C4C4C"/><path d="M33.201 21.128h-3.018v3.019h3.018v-3.018Z" fill="#333"/><path d="M33.201 18.11h-3.018v3.018h3.018V18.11ZM33.201 15.092h-3.018v3.018h3.018v-3.018Z" fill="#898989"/><path d="M33.201 12.073h-3.018v3.019h3.018v-3.019ZM33.201 9.055h-3.018v3.018h3.018V9.055ZM33.201 6.036h-3.018v3.019h3.018V6.036ZM33.201 3.018h-3.018v3.018h3.018V3.018Z" fill="#fff"/><path d="M33.201 0h-3.018v3.018h3.018V0ZM30.183 81.496h-3.018v3.018h3.018v-3.018Z" fill="#060608"/><path d="M30.183 78.478h-3.018v3.018h3.018v-3.018Z" fill="#fff"/><path d="M30.183 75.459h-3.018v3.018h3.018V75.46Z" fill="#383838"/><path d="M30.183 72.44h-3.018v3.019h3.018V72.44Z" fill="#fff"/><path d="M30.183 69.422h-3.018v3.019h3.018v-3.019Z" fill="#383838"/><path d="M30.183 66.404h-3.018v3.019h3.018v-3.02Z" fill="#fff"/><path d="M30.183 63.386h-3.018v3.018h3.018v-3.018Z" fill="#fff"/><path d="M30.183 60.367h-3.018v3.019h3.018v-3.019Z" fill="#898989"/><path d="M30.183 57.35h-3.018v3.018h3.018v-3.019ZM30.183 54.33h-3.018v3.019h3.018V54.33Z" fill="#898989"/><path d="M30.183 51.312h-3.018v3.018h3.018v-3.018Z" fill="#7F1212"/><path d="M30.183 48.294h-3.018v3.018h3.018v-3.018Z" fill="#C91414"/><path d="M30.183 45.275h-3.018v3.019h3.018v-3.019Z" fill="#7F1212"/><path d="M30.183 42.257h-3.018v3.018h3.018v-3.018Z" fill="#4C4C4C"/><path d="M30.183 39.24h-3.018v3.017h3.018V39.24Z" fill="#282828"/><path d="M30.183 36.22h-3.018v3.019h3.018V36.22ZM30.183 33.202h-3.018v3.018h3.018v-3.018ZM30.183 30.184h-3.018v3.018h3.018v-3.018ZM30.183 27.165h-3.018v3.019h3.018v-3.019ZM30.183 24.147h-3.018v3.018h3.018v-3.018Z" fill="#4C4C4C"/><path d="M30.183 21.128h-3.018v3.019h3.018v-3.018Z" fill="#333"/><path d="M30.183 18.11h-3.018v3.018h3.018V18.11Z" fill="#898989"/><path d="M30.183 15.092h-3.018v3.018h3.018v-3.018Z" fill="#fff"/><path d="M30.183 12.073h-3.018v3.019h3.018v-3.019Z" fill="#898989"/><path d="M30.183 9.055h-3.018v3.018h3.018V9.055ZM30.183 6.036h-3.018v3.019h3.018V6.036ZM30.183 3.018h-3.018v3.018h3.018V3.018Z" fill="#fff"/><path d="M30.183 0h-3.018v3.018h3.018V0ZM27.166 81.496h-3.019v3.018h3.019v-3.018Z" fill="#060608"/><path d="M27.166 78.478h-3.019v3.018h3.019v-3.018Z" fill="#fff"/><path d="M27.166 75.459h-3.019v3.018h3.019V75.46Z" fill="#383838"/><path d="M27.166 72.44h-3.019v3.019h3.019V72.44Z" fill="#fff"/><path d="M27.166 69.422h-3.019v3.019h3.019v-3.019Z" fill="#fff"/><path d="M27.166 66.404h-3.019v3.019h3.019v-3.02Z" fill="#fff"/><path d="M27.166 63.386h-3.019v3.018h3.019v-3.018Z" fill="#898989"/><path d="M27.166 60.367h-3.019v3.019h3.019v-3.019Z" fill="#fff"/><path d="M27.166 57.35h-3.019v3.018h3.019v-3.019ZM27.166 54.33h-3.019v3.019h3.019V54.33Z" fill="#898989"/><path d="M27.166 51.312h-3.019v3.018h3.019v-3.018Z" fill="#7F1212"/><path d="M27.166 48.294h-3.019v3.018h3.019v-3.018Z" fill="#C91414"/><path d="M27.166 45.275h-3.019v3.019h3.019v-3.019Z" fill="#7F1212"/><path d="M27.166 42.257h-3.019v3.018h3.019v-3.018Z" fill="#4C4C4C"/><path d="M27.166 39.24h-3.019v3.017h3.019V39.24Z" fill="#282828"/><path d="M27.166 36.22h-3.019v3.019h3.019V36.22ZM27.166 33.202h-3.019v3.018h3.019v-3.018ZM27.166 30.184h-3.019v3.018h3.019v-3.018ZM27.166 27.165h-3.019v3.019h3.019v-3.019ZM27.166 24.147h-3.019v3.018h3.019v-3.018Z" fill="#4C4C4C"/><path d="M27.166 21.128h-3.019v3.019h3.019v-3.018Z" fill="#333"/><path d="M27.166 18.11h-3.019v3.018h3.019V18.11ZM27.166 15.092h-3.019v3.018h3.019v-3.018Z" fill="#060608"/><path d="M27.166 12.073h-3.019v3.019h3.019v-3.019ZM27.166 9.055h-3.019v3.018h3.019V9.055ZM27.166 6.036h-3.019v3.019h3.019V6.036ZM27.166 3.018h-3.019v3.018h3.019V3.018ZM24.147 81.496h-3.019v3.018h3.019v-3.018Z" fill="#060608"/><path d="M24.147 78.478h-3.019v3.018h3.019v-3.018ZM24.147 75.459h-3.019v3.018h3.019V75.46ZM24.147 72.44h-3.019v3.019h3.019V72.44Z" fill="#fff"/><path d="M24.147 69.422h-3.019v3.019h3.019v-3.019Z" fill="#fff"/><path d="M24.147 66.404h-3.019v3.019h3.019v-3.02Z" fill="#060608"/><path d="M24.147 63.386h-3.019v3.018h3.019v-3.018ZM24.147 60.367h-3.019v3.019h3.019v-3.019Z" fill="#7F1212"/><path d="M24.147 57.35h-3.019v3.018h3.019v-3.019ZM24.147 54.33h-3.019v3.019h3.019V54.33Z" fill="#7F1212"/><path d="M24.147 51.312h-3.019v3.018h3.019v-3.018ZM24.147 48.294h-3.019v3.018h3.019v-3.018Z" fill="#C91414"/><path d="M24.147 45.275h-3.019v3.019h3.019v-3.019Z" fill="#7F1212"/><path d="M24.147 42.257h-3.019v3.018h3.019v-3.018Z" fill="#4C4C4C"/><path d="M24.147 39.24h-3.019v3.017h3.019V39.24Z" fill="#282828"/><path d="M24.147 36.22h-3.019v3.019h3.019V36.22ZM24.147 33.202h-3.019v3.018h3.019v-3.018ZM24.147 30.184h-3.019v3.018h3.019v-3.018ZM24.147 27.165h-3.019v3.019h3.019v-3.019ZM24.147 24.147h-3.019v3.018h3.019v-3.018Z" fill="#4C4C4C"/><path d="M24.147 21.128h-3.019v3.019h3.019v-3.018Z" fill="#060608"/><path d="M24.147 18.11h-3.019v3.018h3.019V18.11ZM24.147 15.092h-3.019v3.018h3.019v-3.018Z" fill="#7F1212"/><path d="M24.147 12.073h-3.019v3.019h3.019v-3.019ZM21.128 81.496H18.11v3.018h3.018v-3.018Z" fill="#060608"/><path d="M21.128 78.478H18.11v3.018h3.018v-3.018ZM21.128 75.459H18.11v3.018h3.018V75.46Z" fill="#fff"/><path d="M21.128 72.44H18.11v3.019h3.018V72.44Z" fill="#060608"/><path d="M21.128 69.422H18.11v3.019h3.018v-3.019ZM21.128 63.386H18.11v3.018h3.018v-3.018Z" fill="#060608"/><path d="M21.128 60.367H18.11v3.019h3.018v-3.019Z" fill="#C91414"/><path d="M21.128 57.35H18.11v3.018h3.018v-3.019ZM21.128 54.33H18.11v3.019h3.018V54.33ZM21.128 51.312H18.11v3.018h3.018v-3.018ZM21.128 48.294H18.11v3.018h3.018v-3.018Z" fill="#C91414"/><path d="M21.128 45.275H18.11v3.019h3.018v-3.019Z" fill="#7F1212"/><path d="M21.128 42.257H18.11v3.018h3.018v-3.018Z" fill="#4C4C4C"/><path d="M21.128 39.24H18.11v3.017h3.018V39.24Z" fill="#282828"/><path d="M21.128 36.22H18.11v3.019h3.018V36.22ZM21.128 33.202H18.11v3.018h3.018v-3.018ZM21.128 30.184H18.11v3.018h3.018v-3.018ZM21.128 27.165H18.11v3.019h3.018v-3.019ZM21.128 24.147H18.11v3.018h3.018v-3.018Z" fill="#4C4C4C"/><path d="M21.128 21.128H18.11v3.019h3.018v-3.018ZM21.128 18.11H18.11v3.018h3.018V18.11ZM21.128 15.092H18.11v3.018h3.018v-3.018ZM18.11 78.478H15.09v3.018h3.019v-3.018ZM18.11 75.459H15.09v3.018h3.019V75.46ZM18.11 63.386H15.09v3.018h3.019v-3.018Z" fill="#060608"/><path d="M18.11 60.367H15.09v3.019h3.019v-3.019Z" fill="#7F1212"/><path d="M18.11 57.35H15.09v3.018h3.019v-3.019ZM18.11 54.33H15.09v3.019h3.019V54.33ZM18.11 51.312H15.09v3.018h3.019v-3.018ZM18.11 48.294H15.09v3.018h3.019v-3.018Z" fill="#7F1212"/><path d="M18.11 45.275H15.09v3.019h3.019v-3.019ZM18.11 42.257H15.09v3.018h3.019v-3.018Z" fill="#4C4C4C"/><path d="M18.11 39.24H15.09v3.017h3.019V39.24Z" fill="#282828"/><path d="M18.11 36.22H15.09v3.019h3.019V36.22ZM18.11 33.202H15.09v3.018h3.019v-3.018ZM18.11 30.184H15.09v3.018h3.019v-3.018ZM18.11 27.165H15.09v3.019h3.019v-3.019ZM18.11 24.147H15.09v3.018h3.019v-3.018Z" fill="#4C4C4C"/><path d="M18.11 21.128H15.09v3.019h3.019v-3.018ZM15.091 63.386h-3.018v3.018h3.018v-3.018Z" fill="#060608"/><path d="M15.091 60.367h-3.018v3.019h3.018v-3.019Z" fill="#AD1515"/><path d="M15.091 57.35h-3.018v3.018h3.018v-3.019ZM15.091 54.33h-3.018v3.019h3.018V54.33Z" fill="#AD1515"/><path d="M15.091 51.312h-3.018v3.018h3.018v-3.018Z" fill="#961212"/><path d="M15.091 48.294h-3.018v3.018h3.018v-3.018Z" fill="#4C4C4C"/><path d="M15.091 45.275h-3.018v3.019h3.018v-3.019ZM15.091 42.257h-3.018v3.018h3.018v-3.018Z" fill="#282828"/><path d="M15.091 39.24h-3.018v3.017h3.018V39.24Z" fill="#282828"/><path d="M15.091 36.22h-3.018v3.019h3.018V36.22ZM15.091 33.202h-3.018v3.018h3.018v-3.018ZM15.091 30.184h-3.018v3.018h3.018v-3.018ZM15.091 27.165h-3.018v3.019h3.018v-3.019ZM15.091 24.147h-3.018v3.018h3.018v-3.018Z" fill="#4C4C4C"/><path d="M15.091 21.128h-3.018v3.019h3.018v-3.018ZM12.073 63.386H9.055v3.018h3.018v-3.018Z" fill="#060608"/><path d="M12.073 60.367H9.055v3.019h3.018v-3.019Z" fill="#AD1515"/><path d="M12.073 57.35H9.055v3.018h3.018v-3.019Z" fill="#AD1515"/><path d="M12.073 54.33H9.055v3.019h3.018V54.33Z" fill="#C91414"/><path d="M12.073 51.312H9.055v3.018h3.018v-3.018Z" fill="#961212"/><path d="M12.073 48.294H9.055v3.018h3.018v-3.018ZM12.073 45.275H9.055v3.019h3.018v-3.019ZM12.073 42.257H9.055v3.018h3.018v-3.018Z" fill="#282828"/><path d="M12.073 39.24H9.055v3.017h3.018V39.24Z" fill="#282828"/><path d="M12.073 36.22H9.055v3.019h3.018V36.22ZM12.073 33.202H9.055v3.018h3.018v-3.018ZM12.073 30.184H9.055v3.018h3.018v-3.018ZM12.073 27.165H9.055v3.019h3.018v-3.019ZM12.073 24.147H9.055v3.018h3.018v-3.018Z" fill="#4C4C4C"/><path d="M12.073 21.128H9.055v3.019h3.018v-3.018ZM9.055 63.386H6.037v3.018h3.018v-3.018Z" fill="#060608"/><path d="M9.055 60.367H6.037v3.019h3.018v-3.019Z" fill="#AD1515"/><path d="M9.055 57.35H6.037v3.018h3.018v-3.019Z" fill="#AD1515"/><path d="M9.055 54.33H6.037v3.019h3.018V54.33Z" fill="#C91414"/><path d="M9.055 51.312H6.037v3.018h3.018v-3.018Z" fill="#961212"/><path d="M9.055 48.294H6.037v3.018h3.018v-3.018ZM9.055 45.275H6.037v3.019h3.018v-3.019ZM9.055 42.257H6.037v3.018h3.018v-3.018Z" fill="#282828"/><path d="M9.055 39.24H6.037v3.017h3.018V39.24Z" fill="#282828"/><path d="M9.055 36.22H6.037v3.019h3.018V36.22ZM9.055 33.202H6.037v3.018h3.018v-3.018ZM9.055 30.184H6.037v3.018h3.018v-3.018ZM9.055 27.165H6.037v3.019h3.018v-3.019ZM9.055 24.147H6.037v3.018h3.018v-3.018Z" fill="#4C4C4C"/><path d="M9.055 21.128H6.037v3.019h3.018v-3.018ZM6.037 60.367H3.018v3.019h3.019v-3.019Z" fill="#060608"/><path d="M6.037 57.35H3.018v3.018h3.019v-3.019Z" fill="#060608"/><path d="M6.037 54.33H3.018v3.019h3.019V54.33Z" fill="#C91414"/><path d="M6.037 51.312H3.018v3.018h3.019v-3.018Z" fill="#961212"/><path d="M6.037 48.294H3.018v3.018h3.019v-3.018ZM6.037 45.275H3.018v3.019h3.019v-3.019ZM6.037 42.257H3.018v3.018h3.019v-3.018Z" fill="#282828"/><path d="M6.037 39.24H3.018v3.017h3.019V39.24ZM6.037 36.22H3.018v3.019h3.019V36.22Z" fill="#282828"/><path d="M6.037 33.202H3.018v3.018h3.019v-3.018ZM6.037 30.184H3.018v3.018h3.019v-3.018ZM6.037 27.165H3.018v3.019h3.019v-3.019Z" fill="#4C4C4C"/><path d="M6.037 24.147H3.018v3.018h3.019v-3.018ZM3.018 54.33H0v3.019h3.018V54.33ZM3.018 51.312H0v3.018h3.018v-3.018ZM3.018 48.294H0v3.018h3.018v-3.018ZM3.018 45.275H0v3.019h3.018v-3.019ZM3.018 42.257H0v3.018h3.018v-3.018Z" fill="#060608"/><path d="M3.018 39.24H0v3.017h3.018V39.24ZM3.018 36.22H0v3.019h3.018V36.22ZM3.018 33.202H0v3.018h3.018v-3.018ZM3.018 30.184H0v3.018h3.018v-3.018ZM3.018 27.165H0v3.019h3.018v-3.019Z" fill="#060608"/></svg>