<svg width="107" height="80" fill="none" xmlns="http://www.w3.org/2000/svg"><path d="M83.196 51.503h-3.962v3.961h3.962v-3.961Z" fill="#060608"/><path d="M79.234 51.503h-3.962v3.961h3.962v-3.961Z" fill="#D3D3D3"/><path d="M75.273 51.503H71.31v3.961h3.962v-3.961Z" fill="#919191"/><path d="M71.311 51.503H67.35v3.961h3.961v-3.961ZM67.35 51.503h-3.962v3.961h3.962v-3.961ZM63.387 51.503h-3.961v3.961h3.961v-3.961ZM59.426 51.503h-3.962v3.961h3.962v-3.961ZM55.464 51.503h-3.962v3.961h3.962v-3.961Z" fill="#919191"/><path d="M51.503 51.503H47.54v3.961h3.962v-3.961ZM47.54 51.503h-3.96v3.961h3.96v-3.961ZM43.579 51.503h-3.962v3.961h3.962v-3.961ZM39.617 51.503h-3.961v3.961h3.961v-3.961ZM35.655 51.503h-3.961v3.961h3.961v-3.961Z" fill="#919191"/><path d="M83.196 55.464h-3.962v3.962h3.962v-3.962Z" fill="#060608"/><path d="M79.234 55.464h-3.962v3.962h3.962v-3.962Z" fill="#D3D3D3"/><path d="M75.273 55.464H71.31v3.962h3.962v-3.962Z" fill="#919191"/><path d="M71.311 55.464H67.35v3.962h3.961v-3.962ZM67.35 55.464h-3.962v3.962h3.962v-3.962Z" fill="#919191"/><path d="M71.311 57.431H67.35v3.962h3.961V57.43ZM67.35 57.431h-3.962v3.962h3.962V57.43ZM63.387 55.464h-3.961v3.962h3.961v-3.962ZM59.426 55.464h-3.962v3.962h3.962v-3.962ZM55.464 55.464h-3.962v3.962h3.962v-3.962Z" fill="#919191"/><path d="M51.503 55.464H47.54v3.962h3.962v-3.962ZM47.54 55.464h-3.96v3.962h3.96v-3.962ZM43.579 55.464h-3.962v3.962h3.962v-3.962ZM39.617 55.464h-3.961v3.962h3.961v-3.962ZM35.655 55.464h-3.961v3.962h3.961v-3.962ZM43.579 63.374h-3.962v3.961h3.962v-3.961ZM39.617 63.374h-3.961v3.961h3.961v-3.961Z" fill="#919191"/><path d="M43.579 67.335h-3.962v3.962h3.962v-3.962Z" fill="#919191"/><path d="M43.579 69.302h-3.962v3.961h3.962v-3.961ZM39.617 67.335h-3.961v3.962h3.961v-3.962ZM35.655 63.374h-3.961v3.961h3.961v-3.961ZM43.579 59.426h-3.962v3.962h3.962v-3.962ZM39.617 59.426h-3.961v3.962h3.961v-3.962Z" fill="#919191"/><path d="M35.655 59.426h-3.961v3.962h3.961v-3.962Z" fill="#919191"/><path d="M106.966 19.809h-3.961v3.961h3.961V19.81ZM103.005 23.77h-3.962v3.962h3.962v-3.961Z" fill="#060608"/><path d="M103.005 19.809h-3.962v3.961h3.962V19.81Z" fill="#D3D3D3"/><path d="M103.005 15.847h-3.962v3.962h3.962v-3.962ZM99.043 65.369h-3.962v3.961h3.962V65.37ZM99.043 61.407h-3.962v3.962h3.962v-3.962Z" fill="#060608"/><path d="M99.043 57.445h-3.962v3.962h3.962v-3.962ZM99.043 39.617h-3.962v3.962h3.962v-3.962ZM99.043 35.656h-3.962v3.961h3.962v-3.961ZM99.043 31.694h-3.962v3.962h3.962v-3.962ZM99.043 51.517h-3.962v3.962h3.962v-3.962Z" fill="#060608"/><path d="M99.043 53.9h-3.962v3.962h3.962V53.9ZM99.043 47.555h-3.962v3.962h3.962v-3.962ZM99.043 43.594h-3.962v3.961h3.962v-3.961ZM99.043 27.732h-3.962v3.962h3.962v-3.962Z" fill="#060608"/><path d="M99.043 23.77h-3.962v3.962h3.962v-3.961Z" fill="#787878"/><path d="M99.043 19.809h-3.962v3.961h3.962V19.81Z" fill="#D3D3D3"/><path d="M99.043 15.847h-3.962v3.962h3.962v-3.962ZM99.043 11.886h-3.962v3.961h3.962v-3.961ZM95.082 69.33H91.12v3.962h3.962V69.33Z" fill="#060608"/><path d="M95.082 65.369H91.12v3.961h3.962V65.37ZM95.082 61.407H91.12v3.962h3.962v-3.962Z" fill="#919191"/><path d="M95.082 57.445H91.12v3.962h3.962v-3.962Z" fill="#919191"/><path d="M95.082 55.479H91.12v3.961h3.962V55.48Z" fill="#919191"/><path d="M95.082 51.517H91.12v3.962h3.962v-3.962Z" fill="#919191"/><path d="M95.082 39.617H91.12v3.962h3.962v-3.962ZM95.082 35.656H91.12v3.961h3.962v-3.961ZM95.082 47.527H91.12v3.961h3.962v-3.961Z" fill="#D3D3D3"/><path d="M95.082 43.565H91.12v3.962h3.962v-3.962ZM95.082 31.694H91.12v3.962h3.962v-3.962Z" fill="#D3D3D3"/><path d="M95.082 27.732H91.12v3.962h3.962v-3.962Z" fill="#060608"/><path d="M95.082 23.77H91.12v3.962h3.962v-3.961Z" fill="#787878"/><path d="M95.082 19.809H91.12v3.961h3.962V19.81ZM91.12 73.293h-3.962v3.961h3.962v-3.962Z" fill="#060608"/><path d="M91.12 69.33h-3.962v3.962h3.962V69.33Z" fill="#787878"/><path d="M91.12 65.369h-3.962v3.961h3.962V65.37ZM91.12 61.407h-3.962v3.962h3.962v-3.962Z" fill="#919191"/><path d="M91.12 57.445h-3.962v3.962h3.962v-3.962ZM91.12 39.617h-3.962v3.962h3.962v-3.962ZM91.12 35.656h-3.962v3.961h3.962v-3.961ZM91.12 47.527h-3.962v3.961h3.962v-3.961Z" fill="#919191"/><path d="M91.12 43.565h-3.962v3.962h3.962v-3.962ZM91.12 55.464h-3.962v3.962h3.962v-3.962ZM91.12 51.503h-3.962v3.961h3.962v-3.961Z" fill="#919191"/><path d="M91.12 31.694h-3.962v3.962h3.962v-3.962ZM91.12 27.732h-3.962v3.962h3.962v-3.962Z" fill="#D3D3D3"/><path d="M91.12 23.77h-3.962v3.962h3.962v-3.961ZM87.158 73.293h-3.962v3.961h3.962v-3.962Z" fill="#060608"/><path d="M87.158 69.33h-3.962v3.962h3.962V69.33ZM87.158 65.369h-3.962v3.961h3.962V65.37ZM87.158 61.407h-3.962v3.962h3.962v-3.962Z" fill="#787878"/><path d="M87.158 57.445h-3.962v3.962h3.962v-3.962Z" fill="#787878"/><path d="M87.158 55.479h-3.962v3.961h3.962V55.48Z" fill="#787878"/><path d="M87.158 51.517h-3.962v3.962h3.962v-3.962ZM87.158 47.555h-3.962v3.962h3.962v-3.962ZM87.158 43.557h-3.962v3.962h3.962v-3.962Z" fill="#787878"/><path d="M87.158 39.617h-3.962v3.962h3.962v-3.962Z" fill="#787878"/><path d="M87.158 35.656h-3.962v3.961h3.962v-3.961ZM87.158 31.694h-3.962v3.962h3.962v-3.962Z" fill="#919191"/><path d="M87.158 27.732h-3.962v3.962h3.962v-3.962Z" fill="#D3D3D3"/><path d="M87.158 23.77h-3.962v3.962h3.962v-3.961ZM83.196 73.293h-3.962v3.961h3.962v-3.962Z" fill="#060608"/><path d="M83.196 69.33h-3.962v3.962h3.962V69.33Z" fill="#787878"/><path d="M83.196 65.369h-3.962v3.961h3.962V65.37ZM83.196 61.407h-3.962v3.962h3.962v-3.962Z" fill="#060608"/><path d="M83.196 57.445h-3.962v3.962h3.962v-3.962ZM83.196 39.617h-3.962v3.962h3.962v-3.962ZM83.196 35.656h-3.962v3.961h3.962v-3.961ZM83.196 31.694h-3.962v3.962h3.962v-3.962Z" fill="#060608"/><path d="M83.196 27.732h-3.962v3.962h3.962v-3.962Z" fill="#D3D3D3"/><path d="M83.196 23.77h-3.962v3.962h3.962v-3.961ZM79.234 11.886h-3.962v3.961h3.962v-3.961ZM79.234 7.924h-3.962v3.961h3.962V7.924ZM79.234 3.962h-3.962v3.962h3.962V3.962ZM79.234 0h-3.962v3.962h3.962V0ZM79.234 73.293h-3.962v3.961h3.962v-3.962Z" fill="#060608"/><path d="M79.234 69.33h-3.962v3.962h3.962V69.33Z" fill="#787878"/><path d="M79.234 65.369h-3.962v3.961h3.962V65.37Z" fill="#060608"/><path d="M79.234 61.407h-3.962v3.962h3.962v-3.962Z" fill="#D3D3D3"/><path d="M79.234 57.445h-3.962v3.962h3.962v-3.962ZM79.234 39.617h-3.962v3.962h3.962v-3.962ZM79.234 35.656h-3.962v3.961h3.962v-3.961Z" fill="#D3D3D3"/><path d="M79.234 31.694h-3.962v3.962h3.962v-3.962Z" fill="#060608"/><path d="M79.234 27.732h-3.962v3.962h3.962v-3.962Z" fill="#D3D3D3"/><path d="M79.234 23.77h-3.962v3.962h3.962v-3.961ZM75.273 11.886H71.31v3.961h3.962v-3.961Z" fill="#060608"/><path d="M75.273 7.924H71.31v3.961h3.962V7.924Z" fill="#636363"/><path d="M75.273 3.962H71.31v3.962h3.962V3.962Z" fill="#787878"/><path d="M75.273 0H71.31v3.962h3.962V0ZM75.273 73.293H71.31v3.961h3.962v-3.962Z" fill="#060608"/><path d="M75.273 69.33H71.31v3.962h3.962V69.33Z" fill="#787878"/><path d="M75.273 65.369H71.31v3.961h3.962V65.37Z" fill="#060608"/><path d="M75.273 61.407H71.31v3.962h3.962v-3.962Z" fill="#919191"/><path d="M75.273 57.445H71.31v3.962h3.962v-3.962ZM75.273 39.617H71.31v3.962h3.962v-3.962Z" fill="#919191"/><path d="M75.273 35.656H71.31v3.961h3.962v-3.961Z" fill="#D3D3D3"/><path d="M75.273 31.694H71.31v3.962h3.962v-3.962Z" fill="#060608"/><path d="M75.273 27.732H71.31v3.962h3.962v-3.962Z" fill="#D3D3D3"/><path d="M75.273 23.77H71.31v3.962h3.962v-3.961ZM71.311 19.809H67.35v3.961h3.961V19.81ZM71.311 15.847H67.35v3.962h3.961v-3.962ZM71.311 11.886H67.35v3.961h3.961v-3.961Z" fill="#060608"/><path d="M71.311 7.924H67.35v3.961h3.961V7.924Z" fill="#636363"/><path d="M71.311 3.962H67.35v3.962h3.961V3.962Z" fill="#787878"/><path d="M71.311 0H67.35v3.962h3.961V0ZM71.311 73.293H67.35v3.961h3.961v-3.962Z" fill="#060608"/><path d="M71.311 69.33H67.35v3.962h3.961V69.33Z" fill="#787878"/><path d="M71.311 65.369H67.35v3.961h3.961V65.37Z" fill="#060608"/><path d="M71.311 61.407H67.35v3.962h3.961v-3.962Z" fill="#919191"/><path d="M71.311 39.617H67.35v3.962h3.961v-3.962Z" fill="#EC4700"/><path d="M71.311 35.656H67.35v3.961h3.961v-3.961Z" fill="#D3D3D3"/><path d="M71.311 31.694H67.35v3.962h3.961v-3.962Z" fill="#060608"/><path d="M71.311 27.732H67.35v3.962h3.961v-3.962Z" fill="#D3D3D3"/><path d="M71.311 23.77H67.35v3.962h3.961v-3.961Z" fill="#060608"/><path d="M67.35 19.809h-3.962v3.961h3.962V19.81Z" fill="#787878"/><path d="M67.35 15.847h-3.962v3.962h3.962v-3.962Z" fill="#636363"/><path d="M67.35 11.886h-3.962v3.961h3.962v-3.961Z" fill="#060608"/><path d="M67.35 7.924h-3.962v3.961h3.962V7.924Z" fill="#636363"/><path d="M67.35 3.962h-3.962v3.962h3.962V3.962Z" fill="#787878"/><path d="M67.35 0h-3.962v3.962h3.962V0ZM67.35 73.293h-3.962v3.961h3.962v-3.962Z" fill="#060608"/><path d="M67.35 69.33h-3.962v3.962h3.962V69.33Z" fill="#787878"/><path d="M67.35 65.369h-3.962v3.961h3.962V65.37Z" fill="#060608"/><path d="M67.35 61.407h-3.962v3.962h3.962v-3.962Z" fill="#919191"/><path d="M67.35 39.617h-3.962v3.962h3.962v-3.962Z" fill="#EC4700"/><path d="M67.35 35.656h-3.962v3.961h3.962v-3.961Z" fill="#D3D3D3"/><path d="M67.35 31.694h-3.962v3.962h3.962v-3.962Z" fill="#060608"/><path d="M67.35 27.732h-3.962v3.962h3.962v-3.962Z" fill="#D3D3D3"/><path d="M67.35 23.77h-3.962v3.962h3.962v-3.961ZM63.387 19.809h-3.961v3.961h3.961V19.81ZM63.387 15.847h-3.961v3.962h3.961v-3.962ZM63.387 11.886h-3.961v3.961h3.961v-3.961Z" fill="#060608"/><path d="M63.387 7.924h-3.961v3.961h3.961V7.924Z" fill="#636363"/><path d="M63.387 3.962h-3.961v3.962h3.961V3.962Z" fill="#787878"/><path d="M63.387 0h-3.961v3.962h3.961V0ZM63.387 73.293h-3.961v3.961h3.961v-3.962Z" fill="#060608"/><path d="M63.387 69.33h-3.961v3.962h3.961V69.33Z" fill="#787878"/><path d="M63.387 65.369h-3.961v3.961h3.961V65.37Z" fill="#060608"/><path d="M63.387 61.407h-3.961v3.962h3.961v-3.962Z" fill="#919191"/><path d="M63.387 57.445h-3.961v3.962h3.961v-3.962ZM63.387 39.617h-3.961v3.962h3.961v-3.962Z" fill="#919191"/><path d="M63.387 35.656h-3.961v3.961h3.961v-3.961Z" fill="#D3D3D3"/><path d="M63.387 31.694h-3.961v3.962h3.961v-3.962Z" fill="#060608"/><path d="M63.387 27.732h-3.961v3.962h3.961v-3.962Z" fill="#D3D3D3"/><path d="M63.387 23.77h-3.961v3.962h3.961v-3.961ZM59.426 11.886h-3.962v3.961h3.962v-3.961Z" fill="#060608"/><path d="M59.426 7.924h-3.962v3.961h3.962V7.924Z" fill="#636363"/><path d="M59.426 3.962h-3.962v3.962h3.962V3.962Z" fill="#787878"/><path d="M59.426 0h-3.962v3.962h3.962V0ZM59.426 73.293h-3.962v3.961h3.962v-3.962Z" fill="#060608"/><path d="M59.426 69.33h-3.962v3.962h3.962V69.33Z" fill="#787878"/><path d="M59.426 65.369h-3.962v3.961h3.962V65.37Z" fill="#060608"/><path d="M59.426 61.407h-3.962v3.962h3.962v-3.962Z" fill="#919191"/><path d="M59.426 57.445h-3.962v3.962h3.962v-3.962ZM63.387 53.483h-3.961v3.962h3.961v-3.962ZM59.426 53.483h-3.962v3.962h3.962v-3.962ZM59.426 39.617h-3.962v3.962h3.962v-3.962Z" fill="#919191"/><path d="M59.426 35.656h-3.962v3.961h3.962v-3.961Z" fill="#D3D3D3"/><path d="M59.426 31.694h-3.962v3.962h3.962v-3.962Z" fill="#060608"/><path d="M59.426 27.732h-3.962v3.962h3.962v-3.962Z" fill="#D3D3D3"/><path d="M59.426 23.77h-3.962v3.962h3.962v-3.961ZM55.464 7.924h-3.962v3.961h3.962V7.924ZM55.464 3.962h-3.962v3.962h3.962V3.962ZM55.464 73.293h-3.962v3.961h3.962v-3.962Z" fill="#060608"/><path d="M55.464 69.33h-3.962v3.962h3.962V69.33Z" fill="#787878"/><path d="M55.464 65.369h-3.962v3.961h3.962V65.37Z" fill="#060608"/><path d="M55.464 61.407h-3.962v3.962h3.962v-3.962Z" fill="#919191"/><path d="M55.464 57.445h-3.962v3.962h3.962v-3.962ZM55.464 39.617h-3.962v3.962h3.962v-3.962Z" fill="#919191"/><path d="M55.464 35.656h-3.962v3.961h3.962v-3.961Z" fill="#D3D3D3"/><path d="M55.464 31.694h-3.962v3.962h3.962v-3.962Z" fill="#060608"/><path d="M55.464 27.732h-3.962v3.962h3.962v-3.962Z" fill="#D3D3D3"/><path d="M55.464 23.77h-3.962v3.962h3.962v-3.961ZM51.503 73.293H47.54v3.961h3.962v-3.962Z" fill="#060608"/><path d="M51.503 69.33H47.54v3.962h3.962V69.33ZM51.503 65.369H47.54v3.961h3.962V65.37ZM51.503 61.407H47.54v3.962h3.962v-3.962Z" fill="#919191"/><path d="M51.503 57.445H47.54v3.962h3.962v-3.962ZM51.503 39.617H47.54v3.962h3.962v-3.962ZM51.503 35.656H47.54v3.961h3.962v-3.961ZM51.503 31.694H47.54v3.962h3.962v-3.962Z" fill="#919191"/><path d="M51.503 27.732H47.54v3.962h3.962v-3.962Z" fill="#D3D3D3"/><path d="M51.503 23.77H47.54v3.962h3.962v-3.961ZM47.54 73.293h-3.96v3.961h3.96v-3.962Z" fill="#060608"/><path d="M47.54 69.33h-3.96v3.962h3.96V69.33ZM47.54 65.369h-3.96v3.961h3.96V65.37ZM47.54 61.407h-3.96v3.962h3.96v-3.962Z" fill="#919191"/><path d="M47.54 57.445h-3.96v3.962h3.96v-3.962ZM47.54 39.617h-3.96v3.962h3.96v-3.962ZM47.54 35.656h-3.96v3.961h3.96v-3.961ZM47.54 31.694h-3.96v3.962h3.96v-3.962ZM43.579 39.617h-3.962v3.962h3.962v-3.962ZM43.579 35.656h-3.962v3.961h3.962v-3.961ZM43.579 31.694h-3.962v3.962h3.962v-3.962ZM39.617 39.617h-3.961v3.962h3.961v-3.962ZM39.617 35.656h-3.961v3.961h3.961v-3.961ZM35.655 39.617h-3.961v3.962h3.961v-3.962Z" fill="#919191"/><path d="M83.196 43.565h-3.962v3.962h3.962v-3.962Z" fill="#060608"/><path d="M79.234 43.565h-3.962v3.962h3.962v-3.962Z" fill="#D3D3D3"/><path d="M75.273 43.565H71.31v3.962h3.962v-3.962Z" fill="#919191"/><path d="M71.311 43.565H67.35v3.962h3.961v-3.962ZM67.35 43.565h-3.962v3.962h3.962v-3.962Z" fill="#EC4700"/><path d="M63.387 43.565h-3.961v3.962h3.961v-3.962ZM59.426 43.565h-3.962v3.962h3.962v-3.962ZM55.464 43.565h-3.962v3.962h3.962v-3.962Z" fill="#919191"/><path d="M51.503 43.565H47.54v3.962h3.962v-3.962ZM47.54 43.565h-3.96v3.962h3.96v-3.962ZM43.579 43.565h-3.962v3.962h3.962v-3.962ZM39.617 43.565h-3.961v3.962h3.961v-3.962ZM35.655 43.565h-3.961v3.962h3.961v-3.962Z" fill="#919191"/><path d="M83.196 47.555h-3.962v3.962h3.962v-3.962Z" fill="#060608"/><path d="M79.234 47.555h-3.962v3.962h3.962v-3.962Z" fill="#D3D3D3"/><path d="M75.273 47.555H71.31v3.962h3.962v-3.962Z" fill="#919191"/><path d="M71.311 47.555H67.35v3.962h3.961v-3.962ZM67.35 47.555h-3.962v3.962h3.962v-3.962ZM63.387 47.555h-3.961v3.962h3.961v-3.962ZM59.426 47.555h-3.962v3.962h3.962v-3.962ZM55.464 47.555h-3.962v3.962h3.962v-3.962Z" fill="#919191"/><path d="M51.503 47.555H47.54v3.962h3.962v-3.962ZM47.54 47.555h-3.96v3.962h3.96v-3.962ZM43.579 47.555h-3.962v3.962h3.962v-3.962ZM39.617 47.555h-3.961v3.962h3.961v-3.962ZM35.655 47.555h-3.961v3.962h3.961v-3.962ZM35.655 35.656h-3.961v3.961h3.961v-3.961ZM39.617 31.694h-3.961v3.962h3.961v-3.962Z" fill="#919191"/><path d="M47.54 27.732h-3.96v3.962h3.96v-3.962ZM43.579 27.732h-3.962v3.962h3.962v-3.962Z" fill="#D3D3D3"/><path d="M47.54 23.77h-3.96v3.962h3.96v-3.961ZM31.694 63.374h-3.962v3.961h3.962v-3.961Z" fill="#060608"/><path d="M31.694 59.412h-3.962v3.962h3.962v-3.962Z" fill="#787878"/><path d="M31.694 55.45h-3.962v3.962h3.962V55.45ZM31.694 51.489h-3.962v3.961h3.962v-3.962Z" fill="#787878"/><path d="M31.694 47.527h-3.962v3.961h3.962v-3.961ZM31.694 43.565h-3.962v3.962h3.962v-3.962Z" fill="#919191"/><path d="M31.694 39.603h-3.962v3.962h3.962v-3.962Z" fill="#919191"/><path d="M31.694 35.641h-3.962v3.962h3.962v-3.962ZM27.732 59.412H23.77v3.962h3.962v-3.962Z" fill="#060608"/><path d="M27.732 55.45H23.77v3.962h3.962V55.45ZM27.732 51.489H23.77v3.961h3.962v-3.962Z" fill="#060608"/><path d="M27.732 47.527H23.77v3.961h3.962v-3.961ZM27.732 43.565H23.77v3.962h3.962v-3.962Z" fill="#060608"/><path d="M27.732 39.603H23.77v3.962h3.962v-3.962ZM39.617 27.718h-3.961v3.961h3.961v-3.961ZM43.579 23.756h-3.962v3.962h3.962v-3.962ZM35.655 31.68h-3.961v3.961h3.961V31.68ZM39.617 71.297h-3.961v3.962h3.961v-3.962ZM35.655 67.335h-3.961v3.962h3.961v-3.962ZM43.579 73.293h-3.962v3.961h3.962v-3.962ZM23.77 55.45H19.81v3.962h3.961V55.45Z" fill="#060608"/><path d="M23.77 51.489H19.81v3.961h3.961v-3.962Z" fill="#787878"/><path d="M23.77 47.527H19.81v3.961h3.961v-3.961Z" fill="#787878"/><path d="M23.77 43.565H19.81v3.962h3.961v-3.962ZM19.808 59.412h-3.962v3.962h3.962v-3.962Z" fill="#060608"/><path d="M19.808 55.45h-3.962v3.962h3.962V55.45ZM19.808 51.489h-3.962v3.961h3.962v-3.962Z" fill="#787878"/><path d="M19.808 47.527h-3.962v3.961h3.962v-3.961ZM19.808 43.565h-3.962v3.962h3.962v-3.962Z" fill="#D3D3D3"/><path d="M19.808 39.603h-3.962v3.962h3.962v-3.962ZM15.847 63.374h-3.962v3.961h3.962v-3.961ZM11.885 67.335H7.924v3.962h3.961v-3.962ZM7.923 71.297H3.962v3.962h3.961v-3.962ZM3.962 75.259H0v3.961h3.962V75.26Z" fill="#060608"/><path d="M15.847 59.412h-3.962v3.962h3.962v-3.962Z" fill="#787878"/><path d="M15.847 55.45h-3.962v3.962h3.962V55.45Z" fill="#787878"/><path d="M15.847 51.489h-3.962v3.961h3.962v-3.962Z" fill="#D3D3D3"/><path d="M15.847 47.527h-3.962v3.961h3.962v-3.961ZM15.847 43.565h-3.962v3.962h3.962v-3.962Z" fill="#D3D3D3"/><path d="M15.847 39.603h-3.962v3.962h3.962v-3.962Z" fill="#D3D3D3"/><path d="M15.847 35.641h-3.962v3.962h3.962v-3.962ZM11.885 31.68H7.924v3.961h3.961V31.68ZM7.923 27.718H3.962v3.961h3.961v-3.961ZM3.962 23.756H0v3.962h3.962v-3.962Z" fill="#060608"/><path d="M11.885 63.374H7.924v3.961h3.961v-3.961ZM11.885 59.412H7.924v3.962h3.961v-3.962Z" fill="#787878"/><path d="M11.885 55.45H7.924v3.962h3.961V55.45ZM11.885 51.489H7.924v3.961h3.961v-3.962Z" fill="#D3D3D3"/><path d="M11.885 47.527H7.924v3.961h3.961v-3.961ZM11.885 43.565H7.924v3.962h3.961v-3.962Z" fill="#D3D3D3"/><path d="M11.885 39.603H7.924v3.962h3.961v-3.962ZM11.885 35.641H7.924v3.962h3.961v-3.962Z" fill="#D3D3D3"/><path d="M7.923 63.374H3.962v3.961h3.961v-3.961Z" fill="#787878"/><path d="M7.923 67.335H3.962v3.962h3.961v-3.962ZM7.923 59.412H3.962v3.962h3.961v-3.962Z" fill="#787878"/><path d="M7.923 55.45H3.962v3.962h3.961V55.45ZM7.923 51.489H3.962v3.961h3.961v-3.962Z" fill="#D3D3D3"/><path d="M7.923 47.527H3.962v3.961h3.961v-3.961ZM7.923 43.565H3.962v3.962h3.961v-3.962Z" fill="#D3D3D3"/><path d="M7.923 39.603H3.962v3.962h3.961v-3.962ZM7.923 35.641H3.962v3.962h3.961v-3.962ZM7.923 31.68H3.962v3.961h3.961V31.68Z" fill="#D3D3D3"/><path d="M3.962 63.374H0v3.961h3.962v-3.961ZM3.962 59.412H0v3.962h3.962v-3.962ZM3.962 71.297H0v3.962h3.962v-3.962Z" fill="#060608"/><path d="M3.962 67.335H0v3.962h3.962v-3.962ZM3.962 55.45H0v3.962h3.962V55.45ZM3.962 51.489H0v3.961h3.962v-3.962Z" fill="#060608"/><path d="M3.962 47.527H0v3.961h3.962v-3.961ZM3.962 43.565H0v3.962h3.962v-3.962Z" fill="#060608"/><path d="M3.962 39.603H0v3.962h3.962v-3.962ZM3.962 35.641H0v3.962h3.962v-3.962ZM3.962 31.68H0v3.961h3.962V31.68ZM3.962 27.718H0v3.961h3.962v-3.961Z" fill="#060608"/></svg>