<svg width="105" height="96" fill="none" xmlns="http://www.w3.org/2000/svg"><path d="m52.466 46.67 36.698-19.637 3.567.31-.001 45.177-36.854 19.022H52.31l.156-44.872Z" fill="#A8B8C7"/><path d="M52.17 46.67 15.473 27.033l-3.566.31V72.52L48.76 91.542h3.567L52.17 46.67Z" fill="#7D8993"/><path d="M93.92 22.588v2.51l-1.902 1.056-.476.265-2.378 1.32-1.427.793-.95.528-2.378 1.322-.951.528-1.427.793-2.378 1.32-.476.265-1.902 1.056-2.377 1.321-2.378 1.321-1.902 1.057h-.476v.264l-2.377 1.321-1.427.793h-.951v.528l-2.378 1.321-.95.528h-1.427v.793l-2.378 1.321-.476.264h-1.902v1.057l-2.377 1.32-2.378-1.311-1.93-1.066-.448-.247-2.378-1.312-1.483-.819-.894-.493-2.378-1.312-1.037-.572-1.34-.74-2.379-1.313-.59-.325-1.787-.986-2.378-1.312-.143-.08-2.234-1.233-2.075-1.144-.304-.168-2.377-1.312-1.628-.898h-.75l-2.378-1.726-1.18-.652h-1.197l-1.189-.626-2.378-.562-1.653-1.19-1.28-1.188-.32-1.19 2.065-1.039 2.377-1.197.28-.141 2.098-1.057 2.377-1.198.245-.122 2.134-1.075 2.377-1.198.21-.105 2.167-1.092 2.379-1.198.173-.088 2.204-1.11 2.378-1.198.14-.07 2.237-1.127 2.379-1.198.104-.052 2.273-1.145 2.378-1.198.07-.035 2.307-1.162 2.378-1.198.035-.018 2.343-1.18 2.378-1.198 2.377 1.19v1.188h2.379l2.377 1.189v1.189h2.377l2.378 1.189V9.51h2.378l2.377 1.188v1.19h2.378l2.378 1.188v1.19h2.377l2.378 1.188v1.189h2.378l2.378 1.189v1.189h2.377l2.378 1.188V21.4h2.378l2.378 1.189Z" fill="#C1CCDD"/><path d="M51.12 2.378h-2.377v2.378h2.378V2.378ZM53.498 2.378h-2.377v2.378h2.377V2.378ZM55.876 2.377h-2.377v2.378h2.377V2.377ZM46.365 4.755h-2.378v2.378h2.378V4.755Z" fill="#060608"/><path d="M48.743 4.755h-2.378v2.378h2.378V4.755Z" fill="#060608"/><path d="M51.12 4.755h-2.377v2.378h2.378V4.755ZM55.876 4.755h-2.378v2.378h2.378V4.755ZM58.254 4.755h-2.378v2.378h2.378V4.755ZM60.631 4.755h-2.377v2.378h2.377V4.755ZM41.61 7.133h-2.378v2.378h2.378V7.133ZM43.988 7.133H41.61v2.378h2.378V7.133Z" fill="#060608"/><path d="M46.365 7.133h-2.378v2.378h2.378V7.133ZM60.631 7.133h-2.378v2.378h2.378V7.133Z" fill="#060608"/><path d="M63.01 7.133H60.63V9.51h2.378V7.133Z" fill="#060608"/><path d="M65.387 7.133h-2.378V9.51h2.378V7.133ZM36.855 9.51h-2.378v2.379h2.378V9.51ZM39.232 9.51h-2.377v2.379h2.377V9.51ZM41.61 9.51h-2.378v2.379h2.378V9.51ZM65.387 9.51h-2.378v2.379h2.378V9.51ZM67.765 9.51h-2.378v2.378h2.378V9.511ZM70.142 9.51h-2.377v2.378h2.377V9.511ZM32.1 11.889H29.72v2.378H32.1v-2.378Z" fill="#060608"/><path d="M34.477 11.889h-2.378v2.378h2.378v-2.378ZM36.855 11.889h-2.378v2.378h2.378v-2.378ZM70.142 11.889h-2.378v2.378h2.378v-2.378ZM72.52 11.888h-2.378v2.378h2.378v-2.378ZM74.898 11.888H72.52v2.378h2.378v-2.378ZM27.344 14.266h-2.378v2.378h2.378v-2.378ZM29.722 14.266h-2.378v2.378h2.378v-2.378Z" fill="#060608"/><path d="M32.1 14.266H29.72v2.378H32.1v-2.378ZM74.898 14.266H72.52v2.378h2.378v-2.378ZM77.275 14.266h-2.377v2.378h2.377v-2.378ZM79.653 14.266h-2.378v2.378h2.378v-2.378ZM22.588 16.644H20.21v2.378h2.378v-2.378ZM24.966 16.644h-2.378v2.378h2.378v-2.378ZM27.344 16.644h-2.378v2.378h2.378v-2.378ZM79.653 16.644h-2.378v2.378h2.378v-2.378ZM82.031 16.644h-2.377v2.378h2.377v-2.378Z" fill="#060608"/><path d="M84.41 16.644H82.03v2.378h2.378v-2.378ZM17.833 19.021h-2.378V21.4h2.378v-2.378Z" fill="#060608"/><path d="M20.21 19.021h-2.378V21.4h2.378v-2.378ZM22.588 19.021H20.21V21.4h2.378v-2.378ZM84.41 19.021H82.03V21.4h2.378v-2.378Z" fill="#060608"/><path d="M86.787 19.021h-2.378V21.4h2.378V19.02ZM89.165 19.021h-2.378V21.4h2.377V19.02ZM13.078 21.4H10.7v2.377h2.378V21.4Z" fill="#060608"/><path d="M15.455 21.4h-2.378v2.377h2.378V21.4Z" fill="#060608"/><path d="M17.833 21.4h-2.378v2.377h2.378V21.4ZM89.165 21.4h-2.378v2.377h2.377V21.4Z" fill="#060608"/><path d="M91.541 21.399h-2.377v2.378h2.377v-2.378ZM93.92 21.399h-2.378v2.378h2.378v-2.378ZM13.078 23.777H10.7v2.378h2.378v-2.378ZM93.92 23.777h-2.378v2.377h2.378v-2.377ZM13.078 26.155H10.7v2.378h2.378v-2.378Z" fill="#060608"/><path d="M15.455 26.155h-2.378v2.378h2.378v-2.378Z" fill="#060608"/><path d="M17.833 26.155h-2.378v2.378h2.378v-2.378ZM89.165 26.155h-2.378v2.378h2.377v-2.378Z" fill="#060608"/><path d="M91.542 26.155h-2.378v2.378h2.378v-2.378ZM93.92 26.155h-2.378v2.378h2.378v-2.378ZM13.078 28.532H10.7v2.378h2.378v-2.378ZM20.21 28.532h-2.378v2.378h2.378v-2.378ZM22.588 28.532H20.21v2.378h2.378v-2.378ZM84.41 28.532H82.03v2.378h2.378v-2.378Z" fill="#060608"/><path d="M86.787 28.532h-2.378v2.378h2.378v-2.378ZM93.92 28.532h-2.378v2.378h2.378v-2.378ZM13.078 30.91H10.7v2.378h2.378V30.91ZM24.966 30.91h-2.378v2.378h2.378V30.91ZM27.344 30.91h-2.378v2.378h2.378V30.91ZM79.653 30.91h-2.378v2.378h2.378V30.91ZM82.03 30.91h-2.377v2.378h2.378V30.91ZM93.92 30.91h-2.378v2.378h2.378V30.91ZM13.078 33.288H10.7v2.378h2.378v-2.378ZM29.722 33.288h-2.378v2.378h2.378v-2.378Z" fill="#060608"/><path d="M32.1 33.288H29.72v2.378H32.1v-2.378ZM74.898 33.288H72.52v2.378h2.378v-2.378Z" fill="#060608"/><path d="M77.275 33.288h-2.378v2.378h2.378v-2.378ZM93.92 33.288h-2.378v2.378h2.378v-2.378ZM13.078 35.666H10.7v2.377h2.378v-2.377ZM34.477 35.666h-2.378v2.377h2.378v-2.377ZM36.855 35.666h-2.378v2.377h2.378v-2.377ZM39.232 38.043h-2.377v2.378h2.377v-2.378ZM41.61 38.043h-2.378v2.378h2.378v-2.378ZM70.142 35.666h-2.378v2.377h2.378v-2.377ZM72.52 35.665h-2.378v2.378h2.378v-2.378ZM93.92 35.666h-2.378v2.377h2.378v-2.377ZM13.078 38.043H10.7v2.378h2.378v-2.378ZM65.387 38.043h-2.378v2.378h2.378v-2.378ZM67.765 38.043h-2.378v2.378h2.378v-2.378ZM93.92 38.043h-2.378v2.378h2.378v-2.378Z" fill="#060608"/><path d="M13.078 40.42H10.7V42.8h2.378V40.42ZM43.988 40.42H41.61V42.8h2.378V40.42Z" fill="#060608"/><path d="M46.365 40.42h-2.378V42.8h2.378V40.42ZM60.631 40.42h-2.378V42.8h2.378V40.42Z" fill="#060608"/><path d="M63.01 40.42H60.63v2.378h2.378v-2.377ZM93.92 40.42h-2.378V42.8h2.378V40.42ZM13.078 42.798H10.7v2.378h2.378v-2.378ZM48.743 42.798h-2.378v2.378h2.378v-2.378Z" fill="#060608"/><path d="M51.12 42.798h-2.377v2.378h2.378v-2.378ZM55.876 42.798h-2.378v2.378h2.378v-2.378ZM58.254 42.798h-2.378v2.378h2.378v-2.378ZM93.92 42.798h-2.378v2.378h2.378v-2.378ZM13.078 45.176H10.7v2.378h2.378v-2.378ZM53.498 45.176h-2.377v2.378h2.377v-2.378ZM93.92 45.176h-2.378v2.378h2.378v-2.378ZM13.078 47.554H10.7v2.378h2.378v-2.378ZM53.498 47.554h-2.377v2.378h2.377v-2.378ZM93.92 47.554h-2.378v2.378h2.378v-2.378ZM13.078 49.932H10.7v2.378h2.378v-2.378ZM53.498 49.932h-2.377v2.378h2.377v-2.378ZM93.92 49.932h-2.378v2.378h2.378v-2.378ZM13.078 52.31H10.7v2.377h2.378V52.31ZM53.498 52.31h-2.377v2.377h2.377V52.31ZM93.92 52.31h-2.378v2.377h2.378V52.31Z" fill="#060608"/><path d="M13.078 54.687H10.7v2.378h2.378v-2.378ZM53.498 54.687h-2.377v2.378h2.377v-2.378ZM93.92 54.687h-2.378v2.378h2.378v-2.378ZM13.078 57.065H10.7v2.378h2.378v-2.378ZM53.498 57.065h-2.377v2.378h2.377v-2.378ZM93.92 57.065h-2.378v2.378h2.378v-2.378Z" fill="#060608"/><path d="M13.078 59.442H10.7v2.378h2.378v-2.378ZM53.498 59.442h-2.377v2.378h2.377v-2.378ZM93.92 59.442h-2.378v2.378h2.378v-2.378ZM13.078 61.82H10.7v2.378h2.378V61.82ZM53.498 61.82h-2.377v2.378h2.377V61.82ZM93.92 61.82h-2.378v2.378h2.378V61.82Z" fill="#060608"/><path d="M13.078 64.198H10.7v2.378h2.378v-2.378ZM53.498 64.198h-2.377v2.378h2.377v-2.378ZM93.92 64.198h-2.378v2.378h2.378v-2.378ZM13.078 66.576H10.7v2.378h2.378v-2.378ZM53.498 66.576h-2.377v2.378h2.377v-2.378ZM93.92 66.576h-2.378v2.378h2.378v-2.378Z" fill="#060608"/><path d="M13.078 68.953H10.7v2.378h2.378v-2.378ZM53.498 68.953h-2.377v2.378h2.377v-2.378ZM93.92 68.953h-2.378v2.378h2.378v-2.378ZM13.078 71.331H10.7v2.378h2.378v-2.378Z" fill="#060608"/><path d="M15.455 71.331h-2.378v2.378h2.378v-2.378ZM53.498 71.331h-2.377v2.378h2.377v-2.378ZM91.542 71.331h-2.378v2.378h2.378v-2.378ZM93.92 71.331h-2.378v2.378h2.378v-2.378ZM15.455 73.709h-2.378v2.377h2.378V73.71Z" fill="#060608"/><path d="M17.833 73.709h-2.378v2.377h2.378V73.71Z" fill="#060608"/><path d="M20.21 73.709h-2.378v2.377h2.378V73.71ZM53.498 73.709h-2.377v2.377h2.377V73.71ZM86.787 73.709h-2.378v2.377h2.378V73.71ZM89.165 73.709h-2.378v2.377h2.377V73.71Z" fill="#060608"/><path d="M91.542 73.709h-2.378v2.377h2.378V73.71ZM20.21 76.086h-2.378v2.378h2.378v-2.378ZM22.588 76.086H20.21v2.378h2.378v-2.378ZM24.966 76.086h-2.378v2.378h2.378v-2.378ZM53.498 76.086h-2.377v2.378h2.377v-2.378ZM82.03 76.086h-2.377v2.378h2.378v-2.378Z" fill="#060608"/><path d="M84.41 76.086H82.03v2.378h2.378v-2.378Z" fill="#060608"/><path d="M86.787 76.086h-2.378v2.378h2.378v-2.378ZM24.966 78.464h-2.378v2.378h2.378v-2.378ZM27.344 78.464h-2.378v2.378h2.378v-2.378ZM29.722 78.464h-2.378v2.378h2.378v-2.378ZM53.498 78.464h-2.377v2.378h2.377v-2.378ZM77.275 78.464h-2.378v2.378h2.378v-2.378ZM79.653 78.464h-2.378v2.378h2.378v-2.378ZM82.03 78.464h-2.377v2.378h2.378v-2.378ZM29.722 80.842h-2.378v2.378h2.378v-2.378Z" fill="#060608"/><path d="M32.1 80.842H29.72v2.378H32.1v-2.378Z" fill="#060608"/><path d="M34.477 80.842h-2.378v2.378h2.378v-2.378ZM53.498 80.842h-2.377v2.378h2.377v-2.378ZM72.52 80.842h-2.378v2.378h2.378v-2.378ZM74.898 80.842H72.52v2.378h2.378v-2.378Z" fill="#060608"/><path d="M77.275 80.842h-2.378v2.378h2.378v-2.378ZM34.477 83.22h-2.378v2.377h2.378V83.22ZM36.855 83.22h-2.378v2.377h2.378V83.22ZM39.232 83.22h-2.377v2.377h2.377V83.22ZM53.498 83.22h-2.377v2.377h2.377V83.22ZM67.765 83.22h-2.378v2.377h2.378V83.22Z" fill="#060608"/><path d="M70.142 83.22h-2.378v2.377h2.378V83.22ZM72.52 83.22h-2.378v2.377h2.378V83.22ZM39.232 85.597h-2.377v2.378h2.377v-2.378ZM41.61 85.597h-2.378v2.378h2.378v-2.378ZM43.988 85.597H41.61v2.378h2.378v-2.378ZM53.498 85.597h-2.377v2.378h2.377v-2.378ZM63.01 85.597H60.63v2.378h2.378v-2.378Z" fill="#060608"/><path d="M65.387 85.597h-2.378v2.378h2.378v-2.378ZM67.765 85.597h-2.378v2.378h2.378v-2.378ZM43.988 87.975H41.61v2.378h2.378v-2.378Z" fill="#060608"/><path d="M46.365 87.975h-2.378v2.378h2.378v-2.378ZM48.743 87.975h-2.378v2.378h2.378v-2.378ZM53.498 87.975h-2.377v2.378h2.377v-2.378ZM58.254 87.975h-2.378v2.378h2.378v-2.378Z" fill="#060608"/><path d="M60.631 87.975h-2.378v2.378h2.378v-2.378Z" fill="#060608"/><path d="M63.01 87.975H60.63v2.378h2.378v-2.378ZM48.743 90.353h-2.378v2.378h2.378v-2.378Z" fill="#060608"/><path d="M51.12 90.353h-2.377v2.378h2.378v-2.378ZM53.498 90.353h-2.377v2.378h2.377v-2.378ZM55.876 90.353h-2.378v2.378h2.378v-2.378ZM58.254 90.353h-2.378v2.378h2.378v-2.378Z" fill="#060608"/><path d="M89.165 28.532h-2.378v2.378h2.377v-2.378ZM84.41 30.91H82.03v2.378h2.378V30.91ZM79.653 33.288h-2.378v2.378h2.378v-2.378ZM74.898 35.666H72.52v2.377h2.378v-2.377ZM70.142 38.043h-2.377v2.378h2.377v-2.378ZM65.387 40.42h-2.378v2.378h2.378v-2.377ZM60.631 42.798h-2.377v2.378h2.377v-2.378ZM55.876 45.176h-2.377v2.378h2.377v-2.378ZM89.165 71.331h-2.378v2.378h2.377v-2.378ZM84.41 73.709H82.03v2.377h2.378V73.71ZM79.653 76.086h-2.378v2.378h2.378v-2.378ZM74.898 78.464H72.52v2.378h2.378v-2.378ZM70.142 80.842h-2.378v2.378h2.378v-2.378ZM65.387 83.22h-2.378v2.377h2.378V83.22ZM60.631 85.597h-2.378v2.378h2.378v-2.378ZM55.876 87.975h-2.378v2.378h2.378v-2.378Z" fill="#8B99A5"/><path d="M17.833 28.532h-2.378v2.378h2.378v-2.378ZM22.588 30.91H20.21v2.378h2.378V30.91ZM27.344 33.288h-2.378v2.378h2.378v-2.378ZM32.1 35.666H29.72v2.377H32.1v-2.377ZM36.855 38.043h-2.378v2.378h2.378v-2.378ZM41.61 40.42h-2.378V42.8h2.378V40.42ZM46.365 42.798h-2.378v2.378h2.378v-2.378ZM51.12 45.176h-2.377v2.378h2.378v-2.378ZM17.833 71.331h-2.378v2.378h2.378v-2.378ZM22.588 73.709H20.21v2.377h2.378V73.71ZM27.344 76.086h-2.378v2.378h2.378v-2.378ZM32.1 78.464H29.72v2.378H32.1v-2.378ZM36.855 80.842h-2.378v2.378h2.378v-2.378ZM41.61 83.22h-2.378v2.377h2.378V83.22ZM46.365 85.597h-2.378v2.378h2.378v-2.378ZM51.12 87.975h-2.377v2.378h2.378v-2.378Z" fill="#67727A"/><path d="M2.378 0H0v2.378h2.378V0ZM2.378 2.378H0v2.378h2.378V2.378Z" fill="#060608"/><path d="M2.378 4.755H0v2.378h2.378V4.755ZM2.378 7.133H0v2.378h2.378V7.133Z" fill="#060608"/><path d="M2.378 9.51H0v2.379h2.378V9.51ZM4.756 0H2.378v2.378h2.378V0Z" fill="#060608"/><path d="M7.133 0H4.755v2.378h2.378V0ZM9.511 0H7.133v2.378h2.378V0Z" fill="#060608"/><path d="M11.889 0H9.51v2.378h2.378V0Z" fill="#060608"/><path d="M7.133 2.378H4.755v2.378h2.378V2.378Z" fill="#CECECE"/><path d="M4.756 4.755H2.378v2.378h2.378V4.755Z" fill="#CECECE"/><path d="M4.756 2.378H2.378v2.378h2.378V2.378Z" fill="#CECECE"/><path d="M2.378 92.73H0v2.378h2.378V92.73Z" fill="#060608"/><path d="M2.378 90.353H0v2.378h2.378v-2.378ZM2.378 87.975H0v2.378h2.378v-2.378ZM2.378 85.597H0v2.378h2.378v-2.378ZM2.378 83.22H0v2.377h2.378V83.22ZM4.756 92.73H2.378v2.378h2.378V92.73Z" fill="#060608"/><path d="M7.133 92.73H4.755v2.378h2.378V92.73ZM9.511 92.73H7.133v2.378h2.378V92.73Z" fill="#060608"/><path d="M11.889 92.73H9.51v2.378h2.378V92.73Z" fill="#060608"/><path d="M7.133 90.353H4.755v2.378h2.378v-2.378ZM4.756 87.975H2.378v2.378h2.378v-2.378Z" fill="#CECECE"/><path d="M4.756 90.353H2.378v2.378h2.378v-2.378Z" fill="#CECECE"/><path d="M104.619 0h-2.378v2.378h2.378V0ZM104.619 2.378h-2.378v2.378h2.378V2.378Z" fill="#060608"/><path d="M104.619 4.755h-2.378v2.378h2.378V4.755ZM104.619 7.133h-2.378v2.378h2.378V7.133Z" fill="#060608"/><path d="M104.619 9.51h-2.378v2.379h2.378V9.51ZM102.241 0h-2.378v2.378h2.378V0Z" fill="#060608"/><path d="M99.864 0h-2.378v2.378h2.378V0ZM97.486 0h-2.378v2.378h2.378V0ZM95.108 0H92.73v2.378h2.378V0Z" fill="#060608"/><path d="M99.864 2.378h-2.378v2.378h2.378V2.378Z" fill="#CECECE"/><path d="M102.241 4.755h-2.378v2.378h2.378V4.755Z" fill="#CECECE"/><path d="M102.241 2.378h-2.378v2.378h2.378V2.378Z" fill="#CECECE"/><path d="M104.619 92.73h-2.378v2.378h2.378V92.73Z" fill="#060608"/><path d="M104.619 90.353h-2.378v2.378h2.378v-2.378ZM104.619 87.975h-2.378v2.378h2.378v-2.378ZM104.619 85.597h-2.378v2.378h2.378v-2.378ZM104.619 83.22h-2.378v2.377h2.378V83.22ZM102.241 92.73h-2.378v2.378h2.378V92.73Z" fill="#060608"/><path d="M99.864 92.73h-2.378v2.378h2.378V92.73ZM97.486 92.73h-2.378v2.378h2.378V92.73ZM95.108 92.73H92.73v2.378h2.378V92.73Z" fill="#060608"/><path d="M99.864 90.353h-2.378v2.378h2.378v-2.378ZM102.241 87.975h-2.378v2.378h2.378v-2.378Z" fill="#CECECE"/><path d="M102.241 90.353h-2.378v2.378h2.378v-2.378Z" fill="#CECECE"/><path d="M86.787 21.4h-2.378v2.377h2.378V21.4ZM82.03 19.021h-2.377V21.4h2.378v-2.378ZM77.275 16.644h-2.378v2.378h2.378v-2.378ZM72.52 14.266h-2.378v2.378h2.378v-2.378ZM67.765 11.889h-2.378v2.378h2.378v-2.378ZM63.01 9.51H60.63v2.379h2.378V9.51ZM58.254 7.133h-2.378v2.378h2.378V7.133ZM53.498 4.755h-2.377v2.378h2.377V4.755ZM15.455 23.777h-2.378v2.378h2.378v-2.378ZM20.21 21.4h-2.378v2.377h2.378V21.4ZM24.966 19.021h-2.378V21.4h2.378v-2.378ZM29.722 16.644h-2.378v2.378h2.378v-2.378ZM34.477 14.266h-2.378v2.378h2.378v-2.378ZM39.232 11.889h-2.377v2.378h2.377v-2.378ZM43.988 9.51H41.61v2.379h2.378V9.51ZM48.743 7.133h-2.378v2.378h2.378V7.133Z" fill="#ABB6C6"/><path d="M86.787 21.4h-2.378v2.377h2.378V21.4ZM82.03 19.021h-2.377V21.4h2.378v-2.378ZM77.275 16.644h-2.378v2.378h2.378v-2.378ZM72.52 14.266h-2.378v2.378h2.378v-2.378ZM67.765 11.889h-2.378v2.378h2.378v-2.378ZM63.01 9.51H60.63v2.379h2.378V9.51ZM58.254 7.133h-2.378v2.378h2.378V7.133ZM53.498 4.755h-2.377v2.378h2.377V4.755ZM15.455 23.777h-2.378v2.378h2.378v-2.378ZM20.21 21.4h-2.378v2.377h2.378V21.4ZM24.966 19.021h-2.378V21.4h2.378v-2.378ZM29.722 16.644h-2.378v2.378h2.378v-2.378ZM34.477 14.266h-2.378v2.378h2.378v-2.378ZM39.232 11.889h-2.377v2.378h2.377v-2.378ZM43.988 9.51H41.61v2.379h2.378V9.51ZM48.743 7.133h-2.378v2.378h2.378V7.133Z" fill="#ACB6C6"/></svg>