<svg width="64" height="60" fill="none" xmlns="http://www.w3.org/2000/svg"><path d="m44.052 28.172-.328 4.634 4.634.328.328-4.634-4.634-.328Z" fill="#E0922B"/><path d="m54.297 14.895-4.643-.328-.328 4.642-4.634-.328-.328 4.635 4.634.327-.328 4.643 4.642.328.329-4.642 4.634.327.328-4.634.328-4.642-4.634-.328Z" fill="#FF265B"/><path d="m45.693 4.975-.33 4.642 4.635.328.328-4.642-4.633-.328Z" fill="#FFACB2"/><path d="m39.081 32.478-.329 4.642 4.643.329.328-4.643-4.642-.328Z" fill="#E0922B"/><path d="m40.722 9.289-.328 4.634 4.642.329.328-4.634-4.642-.329Z" fill="#FFACB2"/><path d="m34.12 36.793-.329 4.634 4.634.328.328-4.634-4.634-.328Z" fill="#E0922B"/><path d="m34.447 32.15-.329 4.643 4.634.328.329-4.643-4.634-.328Z" fill="#E0922B"/><path d="m49.983 9.933-4.635-.328-.328 4.634-4.642-.328-.328 4.642 4.642.328 4.634.328.328-4.642 4.643.328.328-4.634-4.642-.328Z" fill="#FF6A86"/><path d="m41.05 4.646-.33 4.643 4.643.328.329-4.642-4.643-.329ZM36.087 8.962l-.328 4.634 4.634.328.328-4.634-4.634-.328Z" fill="#FF6A86"/><path d="m29.148 41.1-.328 4.633 4.642.329.328-4.634-4.642-.329Z" fill="#E0922B"/><path d="m30.788 17.91-.328 4.634 4.643.329.328-4.634-4.642-.329Z" fill="#FFEAC7"/><path d="m24.186 45.406-.329 4.642 4.634.328.33-4.642-4.635-.328ZM24.513 40.771l-.328 4.634 4.634.328.328-4.634-4.634-.328Z" fill="#E0922B"/><path d="m25.826 22.217-.329 4.642 4.634.328.329-4.642-4.634-.328Z" fill="#FFEAC7"/><path d="m19.215 49.72-.328 4.634 4.642.329.328-4.634-4.642-.329Z" fill="#DB7664"/><path d="m20.855 26.531-.328 4.634 4.642.329.328-4.634-4.642-.329Z" fill="#FFEAC7"/><path d="m14.58 49.392-.328 4.634 4.634.328.328-4.634-4.634-.328Z" fill="#DB7664"/><path d="m14.908 44.75-.328 4.642 4.633.328.33-4.643-4.635-.328Z" fill="#DB7664"/><path d="m15.893 30.838-.329 4.642 4.634.328.329-4.642-4.634-.328Z" fill="#FFEAC7"/><path d="m9.946 49.064-.328 4.634 4.634.328.328-4.634-4.634-.328Z" fill="#DB7664"/><path d="m35.416 18.226-.328 4.633-4.643-.328-.328 4.643-4.634-.328-.328 4.634-4.642-.329-.329 4.643-4.634-.328-.327 4.634 4.634.328 4.642.328.328-4.634 4.634.328.328-4.642 4.643.328.327-4.634 4.634.328.329-4.643.328-4.634-4.634-.328Z" fill="#FFAC33"/><path d="m31.116 13.268-.328 4.642 4.642.329.329-4.643-4.643-.328ZM26.154 17.583l-.328 4.634 4.634.328.328-4.634-4.634-.328ZM21.183 21.889l-.328 4.642 4.642.329.329-4.643-4.643-.328ZM16.22 26.203l-.328 4.634 4.634.328.328-4.634-4.634-.328ZM11.258 30.51l-.328 4.642 4.634.328.328-4.642-4.634-.328Z" fill="#FFAC33"/><path d="m39.722 23.187-.329 4.643-4.634-.328-.327 4.634 4.634.328 4.642.328.328-4.634.328-4.642-4.642-.329ZM29.461 36.45l-4.634-.328-.328 4.634 4.634.328 4.643.328.327-4.634.329-4.642-4.643-.329-.328 4.643ZM19.871 40.443l-.328 4.634 4.642.328.329-4.634-4.643-.328Z" fill="#E0922B"/><path d="m10.917 35.138-4.642-.328-.328 4.634-.328 4.634-.328 4.642 4.642.329 4.634.328.329-4.643.327-4.634-4.634-.327.328-4.635Z" fill="#FFB07A"/><path d="m58.931 15.223-.328 4.642-.328 4.634 4.643.329.328-4.634.328-4.643-4.643-.328ZM53.658 24.186l-.329 4.642 4.634.328.329-4.642-4.634-.328Z" fill="#060608"/><path d="m54.642 10.274-.329 4.634 4.634.328.328-4.634-4.633-.329ZM48.686 28.5l-.328 4.634 4.642.328.328-4.633-4.642-.33Z" fill="#060608"/><path d="M50.327 5.303 50 9.945l4.642.329.329-4.643-4.643-.328ZM43.724 32.806l-.329 4.643 4.634.328.329-4.642-4.634-.328ZM44.38 23.529l-.328 4.642 4.634.328.328-4.642-4.634-.328ZM50.31 5.29l.328-4.634L46.004.33 41.362 0l-.328 4.634 4.643.329 4.633.327ZM38.753 37.12l-.328 4.635 4.642.328.328-4.633-4.642-.33ZM40.065 18.567l-.328 4.633 4.642.33.328-4.635-4.642-.328ZM33.79 41.428l-.328 4.634 4.634.328.329-4.634-4.634-.328ZM35.76 13.595l-.33 4.643 4.635.328.328-4.642-4.634-.329ZM36.416 4.319l-.329 4.642 4.634.328.329-4.642-4.634-.328Z" fill="#060608"/><path d="m28.82 45.733-.328 4.643 4.642.328.329-4.642-4.643-.329ZM31.444 8.633l-.328 4.634 4.643.328.328-4.634-4.643-.328ZM23.857 50.048l-.328 4.634 4.634.328.328-4.634-4.634-.328Z" fill="#060608"/><path d="m26.483 12.94-.33 4.642 4.635.328.328-4.643-4.633-.328ZM19.543 45.077l-.329 4.643 4.643.328.329-4.642-4.643-.329ZM21.51 17.254l-.327 4.634 4.642.328.328-4.634-4.642-.328Z" fill="#060608"/><path d="m14.239 54.01-4.634-.327.328-4.634-4.643-.329.328-4.642.329-4.634.327-4.634-4.634-.328-.328 4.634-.328 4.634-.328 4.643-.327 4.634L0 57.67l4.634.328 4.643.328 4.634.328 4.634.328 4.642.328.329-4.642-4.643-.329-4.634-.327ZM15.237 40.115l-.328 4.634 4.634.328.328-4.634-4.634-.328ZM16.55 21.56l-.33 4.643 4.635.328.328-4.643-4.634-.328ZM10.93 35.153l-.328 4.634 4.633.328.329-4.634-4.634-.328ZM11.585 25.876l-.328 4.633 4.634.329.328-4.634-4.634-.328ZM6.615 30.181l-.328 4.643 4.642.329.329-4.643-4.643-.329Z" fill="#060608"/></svg>