<svg width="360" height="360" fill="none" xmlns="http://www.w3.org/2000/svg"><g clip-path="url(#a)" fill-rule="evenodd" clip-rule="evenodd"><path d="M0 0h100.8v100.8H0V0Zm14.4 14.4v72h72v-72h-72Z" fill="#483188"/><path d="M28.7998 28.7998h43.2v43.2h-43.2v-43.2Z" fill="#4E329B"/><path d="M360 0v100.8H259.2V0H360Zm-14.4 14.4h-72v72h72v-72Z" fill="#483188"/><path d="M331.2 28.7998v43.2H288v-43.2h43.2Z" fill="#4E329B"/><path d="M0 360V259.2h100.8V360H0Zm14.4-14.4h72v-72h-72v72Z" fill="#483188"/><path d="M28.7998 331.2V288h43.2v43.2h-43.2Z" fill="#4E329B"/><path d="M129.6 0v14.4h-14.4v14.4h14.4V14.4h28.8V0h-28.8Zm100.8 0v14.4h14.4V0h-14.4Zm-57.6 14.4v14.4h-14.4v14.4H144v14.4h-14.4V43.2h-14.4v14.4h14.4V72h-14.4v28.8h14.4v14.4H86.4v14.4H72v-14.4H0v57.6h14.4v-43.2h43.2V144H28.8v14.4h14.4v28.8H28.8V216h28.8v-14.4H72v28.8H57.6v14.4h43.2v-14.4h14.4V216h14.4v-28.8h28.8v14.4h28.8v28.8h14.4v28.8h-14.4V288h14.4v-14.4H216v28.8h-14.4v14.4h-28.8v14.4h-43.2v-14.4H144V288h28.8v-14.4h-14.4v-14.4H144v14.4h-14.4v-28.8h-14.4v28.8h14.4V288h-14.4v72h14.4v-14.4h43.2V360H216v-14.4h14.4V360h14.4v-14.4h72V360H360v-14.4h-14.4v-14.4H360v-28.8h-28.8v14.4h-14.4v14.4h-14.4v-28.8h14.4v-28.8H360V216h-14.4v-14.4H360v-28.8h-28.8v28.8h-14.4V216h14.4v14.4h14.4v28.8h-28.8v14.4h-14.4v-28.8h14.4v-14.4h-72V216h28.8v-14.4H288V216h14.4v-28.8h14.4v-14.4h-43.2v28.8h-28.8v-14.4h-14.4v-14.4h14.4v-14.4h28.8V144H288v14.4h14.4v-28.8h14.4v-14.4h-14.4v14.4H288v-14.4h-14.4V144h-14.4v-28.8h-14.4V86.4h-14.4V57.6h14.4V28.8h-14.4v14.4h-28.8V14.4h-28.8Zm0 14.4v14.4h-14.4v14.4h14.4V43.2h14.4V72h14.4V43.2h-14.4V28.8h-14.4ZM144 72v14.4h-14.4v14.4H144v28.8h-14.4v28.8H86.4V144h14.4v-14.4H86.4V144H57.6v43.2H43.2v14.4h14.4v-14.4H72v-28.8h14.4v14.4h14.4v14.4H86.4v14.4h14.4V216H86.4v14.4h14.4V216h14.4v-14.4h-14.4v-14.4h14.4v-14.4h43.2v14.4h14.4v-14.4h-14.4v-14.4H144V144h14.4v-14.4h14.4V144H216v14.4h-28.8v43.2h14.4v-28.8h28.8v-14.4h14.4v-43.2h-14.4V86.4H216v14.4h-14.4V86.4h-14.4v14.4h-14.4V72H144Zm0 14.4v14.4h14.4v14.4h14.4v14.4h14.4v-14.4h14.4v14.4H216V144h14.4v-28.8h-28.8v-14.4h-14.4v14.4h-14.4v-14.4h-14.4V86.4H144Zm187.2 28.8v14.4h14.4V144H360v-14.4h-14.4v-14.4h-14.4ZM316.8 144v14.4h14.4V144h-14.4ZM0 187.2v57.6h14.4v-57.6H0ZM158.4 216v14.4H144v14.4h14.4v-14.4h14.4V216h-14.4Zm43.2 0v14.4h28.8V216h-28.8Zm14.4 28.8v14.4h14.4v-14.4H216Zm28.8 0V288H288v-43.2h-43.2Zm14.4 14.4v14.4h14.4v-14.4h-14.4Zm0 43.2v28.8H288v-28.8h-28.8ZM216 316.8v14.4h-14.4v14.4H216v-14.4h28.8v-14.4H216Zm115.2 0v14.4h-14.4v14.4h14.4v-14.4h14.4v-14.4h-14.4Zm-158.4 14.4v14.4h14.4v-14.4h-14.4Z" fill="url(#b)"/></g><defs><linearGradient id="b" x1="0" y1="0" x2="0" y2="360" gradientUnits="userSpaceOnUse"><stop stop-color="#351E76"/><stop offset="1" stop-color="#6B4CC3"/></linearGradient><clipPath id="a"><path fill="#fff" d="M0 0h360v360H0z"/></clipPath></defs></svg>